{"glyphs":{"0":{"ha":393,"x_min":0,"x_max":393,"o":"m 194 -75 q 46 37 108 -75 q 0 250 0 128 q 7 336 0 294 q 148 627 41 547 q 237 662 193 662 q 350 579 307 662 q 393 347 393 491 q 334 39 393 171 q 270 -47 306 -20 q 194 -75 233 -75 m 192 11 q 256 75 227 12 q 307 347 307 189 q 302 436 307 383 q 273 540 298 490 q 232 576 254 576 q 186 549 210 576 q 92 323 117 475 q 85 247 85 286 q 90 177 85 222 q 122 76 94 132 q 192 11 156 11 z "},"1":{"ha":119,"x_min":0,"x_max":119,"o":"m 43 -101 q 12 -88 24 -101 q 0 -57 0 -75 q 33 618 16 281 q 47 648 34 636 q 78 659 60 659 q 107 645 96 658 q 119 614 119 632 l 85 -60 q 72 -90 84 -79 q 43 -101 60 -101 z "},"2":{"ha":458,"x_min":0,"x_max":458,"o":"m 363 -75 l 269 -75 q 51 -62 100 -71 q 7 -37 20 -58 q 0 -12 0 -25 q 15 29 0 7 q 93 121 30 50 q 200 248 149 182 q 305 459 302 378 q 292 522 305 500 q 221 566 268 566 q 196 562 209 566 q 102 494 138 545 q 65 475 87 475 q 39 483 52 475 q 20 520 20 496 q 28 545 20 533 q 182 650 89 629 q 222 654 203 654 q 296 638 256 654 q 370 566 337 623 q 395 467 395 524 l 395 435 q 360 333 395 405 q 271 194 323 262 q 123 20 228 138 q 317 15 220 15 q 406 17 392 15 q 441 7 427 17 q 458 -28 458 -5 q 448 -56 458 -43 q 420 -72 438 -68 q 363 -75 404 -74 z "},"3":{"ha":440,"x_min":0,"x_max":440,"o":"m 193 -87 q 23 -41 109 -87 q 0 -4 0 -28 q 5 16 0 6 q 43 39 19 39 q 64 34 54 39 q 194 -1 130 -1 q 300 28 256 -1 q 343 72 329 46 q 355 112 355 92 q 327 173 355 143 q 181 239 285 216 l 151 246 q 116 284 116 255 q 175 378 116 315 q 254 471 214 420 q 301 562 301 532 q 283 580 301 580 q 229 563 266 580 q 163 513 192 547 q 130 497 149 497 q 103 507 116 497 q 87 541 87 521 q 97 567 87 555 q 192 640 138 616 q 286 664 245 664 q 329 658 299 664 q 377 610 359 652 q 385 570 385 593 q 376 515 385 551 q 322 420 367 479 q 233 315 263 345 q 397 223 344 285 q 440 113 440 172 q 418 30 440 69 q 346 -45 393 -14 q 193 -87 283 -87 z "},"4":{"ha":441,"x_min":0,"x_max":441,"o":"m 366 -101 q 334 -88 347 -101 q 322 -56 322 -75 l 334 188 q 45 198 108 188 q 5 224 17 203 q 0 246 0 235 q 54 339 0 273 q 212 575 170 481 q 250 601 223 601 q 268 597 259 601 q 290 574 284 590 q 294 558 294 566 q 290 541 294 550 q 130 297 241 434 l 115 277 q 309 273 201 273 l 338 273 l 355 618 q 369 648 357 636 q 400 659 382 659 q 430 645 418 658 q 441 616 441 633 q 408 -60 410 -16 q 394 -90 407 -79 q 366 -101 382 -101 z "},"5":{"ha":399,"x_min":0,"x_max":399,"o":"m 198 -83 l 188 -83 q 8 10 75 -75 q 0 37 0 22 q 1 49 0 39 q 17 71 3 59 q 42 79 29 79 q 56 78 45 79 q 77 62 66 77 q 126 21 98 35 q 199 3 160 3 q 260 23 235 3 q 300 75 286 42 q 313 146 313 108 q 288 238 313 198 q 208 293 262 278 q 165 298 189 298 q 117 294 142 298 l 109 293 q 71 315 85 293 q 43 472 43 374 q 46 539 43 503 q 53 605 49 576 q 60 639 58 634 q 94 661 74 661 q 144 652 115 661 q 236 631 182 640 q 276 628 256 628 q 339 637 309 628 q 353 640 347 640 q 394 611 382 640 q 396 597 396 604 q 276 543 396 543 q 130 566 210 543 q 128 500 128 538 q 137 382 128 422 q 168 384 153 384 q 233 376 203 384 q 359 286 317 351 q 399 143 399 222 q 378 41 399 90 q 307 -50 355 -16 q 198 -83 262 -83 z "},"6":{"ha":321,"x_min":0,"x_max":321,"o":"m 183 -98 q 155 -96 170 -98 q 39 -32 75 -83 q 0 120 0 26 q 58 401 3 259 q 159 640 107 528 q 197 666 171 666 q 215 663 206 666 q 240 624 240 651 q 213 551 240 612 q 125 335 149 407 q 290 184 241 288 q 321 58 321 117 q 252 -82 321 -42 q 183 -98 223 -98 m 178 -12 q 239 56 239 -12 q 210 151 239 98 q 99 253 171 223 q 84 127 84 197 q 106 31 84 71 q 178 -12 127 -9 z "},"7":{"ha":365,"x_min":0,"x_max":365,"o":"m 186 -86 q 151 -68 165 -86 q 144 -43 144 -57 q 187 138 144 -27 q 277 530 261 411 q 280 542 278 536 q 281 551 281 547 q 275 556 281 556 q 258 553 269 556 q 117 540 168 540 q 26 557 68 540 q 0 596 0 570 q 4 614 0 605 q 42 640 16 640 q 60 635 51 640 q 120 626 85 626 q 146 627 124 626 q 209 633 169 627 q 279 639 248 639 q 309 637 288 639 q 349 615 330 635 q 365 554 365 597 q 271 117 365 473 q 229 -50 239 -2 q 212 -78 225 -68 q 186 -86 200 -86 z "},"8":{"ha":365,"x_min":0,"x_max":365,"o":"m 181 -79 q 82 -52 127 -79 q 20 12 43 -30 q 0 94 0 47 q 5 149 0 108 q 65 277 9 191 q 107 330 83 303 q 19 520 19 448 q 19 555 19 521 q 68 624 20 590 q 172 654 115 654 q 209 652 190 654 q 336 586 288 639 q 365 511 365 552 q 361 470 365 502 q 286 378 357 439 q 222 323 254 351 q 345 78 345 174 q 345 49 345 76 q 318 -14 345 22 q 251 -66 292 -50 q 181 -79 217 -79 m 181 7 q 249 36 224 7 q 259 74 259 50 q 258 95 259 78 q 236 154 258 111 q 161 262 205 208 q 136 230 147 245 q 85 94 85 149 q 95 52 85 69 q 181 7 123 7 m 169 391 q 231 444 199 418 q 277 512 277 483 q 270 532 277 524 q 196 566 244 559 q 171 568 182 568 q 119 555 140 568 q 105 522 105 545 q 110 490 105 514 q 164 397 115 465 l 169 391 z "},"9":{"ha":322,"x_min":0,"x_max":322,"o":"m 125 -86 q 107 -83 116 -86 q 81 -43 81 -71 q 85 -26 81 -35 q 197 244 168 157 q 169 257 182 250 q 31 395 73 309 q 0 521 0 462 q 71 661 0 621 q 140 677 100 677 q 168 676 153 677 q 322 460 322 651 q 264 178 319 320 q 163 -60 214 51 q 125 -86 152 -86 m 223 327 q 238 453 238 382 q 216 550 238 509 q 143 591 194 591 q 83 524 83 591 q 112 429 83 481 q 223 327 151 357 z "},"\u0000":{"ha":0,"x_min":0,"x_max":0,"o":""}," ":{"ha":471,"x_min":0,"x_max":0,"o":""},"!":{"ha":172,"x_min":0,"x_max":172,"o":"m 66 170 q 33 184 45 170 q 22 214 22 197 q 86 1109 22 222 q 100 1138 87 1127 q 130 1149 113 1149 q 161 1134 148 1149 q 172 1105 172 1122 l 108 210 q 94 181 106 192 q 66 170 81 170 m 43 -64 q 9 -50 22 -64 q 0 -22 0 -38 l 9 97 q 24 126 12 115 q 52 136 37 136 q 85 121 73 136 q 96 92 96 109 l 85 -26 q 71 -54 83 -44 q 43 -64 58 -64 z "},"\"":{"ha":194,"x_min":0,"x_max":194,"o":"m 41 781 q 11 795 22 783 q 0 824 0 807 l 4 930 q 18 960 5 948 q 47 971 30 971 q 79 958 65 971 q 90 929 90 945 l 85 823 q 72 793 84 804 q 41 781 59 781 m 145 782 q 115 796 127 783 q 104 827 104 808 l 109 931 q 121 960 109 949 q 151 972 134 972 q 182 959 170 972 q 194 928 194 945 l 189 823 q 175 793 188 805 q 145 782 163 782 z "},"#":{"ha":572,"x_min":0,"x_max":572,"o":"m 367 17 q 331 35 343 17 q 323 60 323 46 q 338 140 324 67 l 162 150 l 144 52 q 126 24 140 34 q 102 17 115 17 q 66 35 79 17 q 59 60 59 46 q 76 155 59 65 q 40 157 55 155 q 11 171 22 158 q 0 199 0 183 q 14 231 0 218 q 43 242 26 242 l 92 239 l 123 412 l 73 415 q 43 429 54 416 q 32 458 32 441 q 46 490 32 477 q 75 500 58 500 l 140 497 l 155 581 q 173 608 159 598 q 197 615 184 615 q 233 597 220 615 q 240 572 240 586 q 226 492 240 566 l 401 483 l 420 581 q 437 608 424 598 q 462 615 448 615 q 497 597 485 615 q 505 573 505 586 q 488 478 505 566 l 532 475 q 561 461 550 474 q 572 432 572 449 q 558 401 572 414 q 529 390 546 390 q 472 393 517 390 l 439 220 l 502 217 q 531 203 520 216 q 543 172 543 190 q 529 143 541 154 q 499 132 516 132 l 424 136 l 408 52 q 391 24 405 34 q 367 17 380 17 m 353 225 l 385 398 l 210 408 l 178 235 l 353 225 z "},"$":{"ha":445,"x_min":0,"x_max":445,"o":"m 162 -113 q 135 -100 146 -113 q 127 -79 127 -91 l 132 -39 q 124 -37 128 -37 q 24 39 66 -20 q 0 94 0 74 q 26 134 0 121 q 43 137 35 137 q 82 111 71 137 q 141 48 102 64 l 169 302 q 121 373 142 338 q 83 488 83 434 q 144 598 83 557 q 204 625 171 616 l 217 739 q 229 762 218 753 q 252 770 239 770 q 277 757 268 770 q 285 736 285 748 l 274 632 q 391 595 345 627 q 444 516 433 566 l 445 509 q 436 483 445 495 q 402 465 425 465 q 376 474 389 465 q 359 500 363 482 q 334 530 355 519 q 264 546 307 546 l 243 346 q 336 115 336 213 q 256 -21 336 30 q 200 -42 231 -37 l 196 -82 q 184 -104 194 -96 q 162 -113 174 -113 m 184 437 l 193 528 l 193 528 q 171 486 171 514 q 184 437 171 462 m 210 50 q 257 123 257 75 q 228 212 257 163 l 210 50 z "},"%":{"ha":370,"x_min":0,"x_max":370,"o":"m 65 -124 q 26 -100 38 -124 q 22 -81 22 -92 q 202 482 22 -75 q 108 441 163 441 q 50 458 78 441 q 0 560 0 491 q 34 659 1 618 q 112 699 68 699 q 179 672 145 699 q 231 573 224 632 l 260 663 q 282 688 267 680 q 301 692 291 692 q 315 690 308 692 q 345 650 345 680 q 342 636 345 643 q 196 185 269 411 q 251 201 220 201 q 317 176 286 201 q 366 94 355 144 q 370 64 370 79 q 352 1 370 31 q 277 -51 324 -39 q 247 -55 262 -55 q 188 -38 216 -55 q 143 23 156 -19 l 105 -94 q 65 -124 94 -124 m 109 527 q 125 530 115 527 q 146 561 146 538 q 141 582 146 568 q 125 606 136 596 q 112 612 118 612 q 96 600 102 612 q 86 558 86 583 q 88 543 86 551 q 96 531 90 534 q 109 527 102 527 m 248 31 q 262 35 253 31 q 284 64 284 42 q 279 86 284 73 q 263 110 274 100 q 249 115 256 115 q 232 102 239 115 q 224 63 224 88 q 248 31 224 31 z "},"&":{"ha":456,"x_min":0,"x_max":456,"o":"m 323 -117 q 307 -115 315 -117 q 282 -77 282 -103 q 285 -60 282 -68 q 296 -2 296 -35 q 294 26 296 12 q 258 -1 277 12 q 102 -69 170 -69 q 0 38 5 -69 q 90 244 0 133 q 146 309 119 279 q 147 309 146 309 l 161 326 q 119 490 119 412 q 149 610 119 570 q 227 655 182 655 q 323 600 283 655 q 349 503 349 562 q 260 313 349 416 q 334 172 319 202 q 368 210 353 192 q 385 229 374 218 q 415 242 397 242 q 443 231 430 242 q 456 201 456 219 q 366 87 456 176 q 380 -1 380 43 q 361 -92 380 -48 q 323 -117 350 -117 m 221 397 q 267 505 265 456 q 245 565 267 543 q 229 572 237 572 q 217 564 222 572 q 203 497 203 545 q 221 397 203 446 m 103 12 q 137 22 113 12 q 269 113 193 47 q 202 246 253 148 q 154 191 176 217 q 83 39 83 103 q 103 12 83 12 z "},"'":{"ha":111,"x_min":0,"x_max":111,"o":"m 42 784 q 6 804 19 784 q 0 826 0 814 q 26 938 0 831 q 46 964 31 956 q 68 970 56 970 q 104 950 92 970 q 111 928 111 940 q 84 817 111 922 q 65 790 79 799 q 42 784 54 784 z "},"(":{"ha":292,"x_min":0,"x_max":292,"o":"m 153 -89 q 26 79 62 -89 q 0 363 0 197 q 17 675 0 516 q 97 1044 41 889 q 250 1219 161 1217 q 280 1206 268 1219 q 292 1176 292 1194 q 280 1145 292 1158 q 250 1133 268 1133 q 170 1016 207 1131 q 102 665 125 877 q 86 374 86 517 q 109 97 86 208 q 155 -2 130 -1 l 159 -2 q 188 -12 175 -2 q 202 -45 202 -25 q 192 -74 202 -61 q 153 -89 180 -89 z "},")":{"ha":250,"x_min":0,"x_max":250,"o":"m 57 -87 q 6 -64 20 -87 q 0 -43 0 -55 q 21 -5 0 -18 q 43 1 31 1 l 58 -1 q 103 68 83 -1 q 155 416 138 192 q 164 637 164 539 q 122 1045 164 899 q 59 1137 100 1126 q 31 1155 41 1141 q 22 1181 22 1166 q 41 1215 22 1202 q 65 1223 52 1223 q 142 1175 109 1220 q 237 827 212 1080 q 250 569 250 702 q 224 217 250 390 q 119 -62 192 7 q 57 -87 92 -87 z "},"*":{"ha":317,"x_min":0,"x_max":317,"o":"m 161 709 q 130 721 142 709 q 117 751 118 733 l 116 806 l 79 786 q 58 781 68 781 q 20 805 33 781 q 16 824 16 814 q 39 863 16 850 l 53 869 l 26 881 q 0 920 0 893 q 3 937 0 928 q 42 963 16 963 q 60 960 51 963 l 113 937 l 113 993 q 124 1023 113 1011 q 155 1036 136 1036 q 185 1024 172 1036 q 198 994 197 1013 l 199 944 l 255 972 q 275 977 265 977 q 313 954 300 977 q 317 934 317 943 q 294 896 317 909 l 255 876 l 281 865 q 308 825 308 853 q 304 808 308 817 q 266 783 292 783 q 248 786 257 783 l 202 806 l 203 753 q 191 722 203 734 q 161 709 179 710 z "},"+":{"ha":492,"x_min":0,"x_max":492,"o":"m 239 19 q 209 32 220 20 q 197 63 197 45 l 203 243 l 43 245 q 13 258 24 246 q 0 288 1 271 q 13 319 1 307 q 43 331 25 331 l 205 329 l 210 511 q 224 541 212 529 q 254 553 236 553 q 284 539 273 552 q 296 509 296 527 l 291 328 l 450 326 q 480 313 468 326 q 492 283 492 301 q 479 253 492 265 q 449 241 467 241 l 288 243 l 283 60 q 269 31 281 42 q 239 19 257 19 z "},",":{"ha":111,"x_min":0,"x_max":111,"o":"m 43 -174 q 6 -154 19 -174 q 0 -131 0 -143 q 26 -20 1 -121 q 45 6 31 -3 q 67 12 56 12 q 104 -8 92 12 q 111 -30 111 -18 q 84 -142 111 -35 q 64 -168 79 -159 q 43 -174 55 -174 z "},"-":{"ha":492,"x_min":0,"x_max":492,"o":"m 449 241 l 43 245 q 13 258 24 246 q 0 288 1 271 q 13 319 1 307 q 43 331 25 331 l 450 326 q 480 313 468 326 q 492 283 492 301 q 479 253 492 265 q 449 241 467 241 z "},".":{"ha":96,"x_min":0,"x_max":96,"o":"m 47 -75 q 9 -56 24 -75 q 0 -26 0 -42 q 19 13 0 -2 q 49 22 33 22 q 87 3 73 22 q 96 -26 96 -10 q 77 -65 96 -52 q 47 -75 64 -75 z "},"/":{"ha":304,"x_min":0,"x_max":304,"o":"m 43 -92 q 30 -90 37 -92 q 5 -68 12 -83 q 0 -50 0 -60 q 221 640 0 -43 q 242 665 227 658 q 262 670 252 670 q 300 647 288 670 q 304 628 304 637 q 83 -62 304 621 q 62 -87 77 -79 q 43 -92 53 -92 z "},":":{"ha":97,"x_min":0,"x_max":97,"o":"m 47 365 q 9 384 24 365 q 0 412 0 397 q 20 452 0 438 q 49 462 33 462 q 87 443 73 462 q 97 414 97 430 q 77 374 97 389 q 47 365 64 365 m 49 155 q 9 175 24 155 q 0 203 0 188 q 20 243 0 229 q 47 253 32 253 q 87 233 73 253 q 97 205 97 221 q 77 165 97 180 q 49 155 64 155 z "},";":{"ha":123,"x_min":0,"x_max":123,"o":"m 43 29 q 6 50 19 29 q 0 71 0 60 q 26 183 0 77 q 46 210 31 201 q 68 216 56 216 q 105 195 92 216 q 111 174 111 185 q 85 62 111 168 q 65 35 80 44 q 43 29 55 29 m 74 365 q 36 384 50 365 q 26 412 26 397 q 46 452 26 438 q 76 462 60 462 q 114 443 100 462 q 123 414 123 430 q 104 374 121 387 q 74 365 90 365 z "},"<":{"ha":405,"x_min":0,"x_max":405,"o":"m 366 125 l 358 125 q 306 131 336 125 q 128 186 223 148 q 0 290 0 240 q 114 389 0 338 q 320 467 183 420 q 334 469 328 469 q 374 440 364 469 q 376 426 376 433 q 347 386 376 397 q 103 289 190 332 l 161 265 q 322 215 248 231 q 356 211 345 211 l 363 211 q 391 201 378 211 q 405 168 405 188 q 394 140 405 153 q 366 125 384 127 z "},"=":{"ha":368,"x_min":0,"x_max":368,"o":"m 326 182 l 43 185 q 13 198 24 186 q 0 229 1 210 q 13 259 1 247 q 43 271 26 271 l 326 267 q 356 254 345 267 q 368 224 368 242 q 355 194 368 205 q 326 182 343 182 m 326 330 l 43 334 q 13 347 24 334 q 0 377 1 359 q 13 407 1 395 q 43 420 26 419 l 326 416 q 356 403 345 415 q 368 372 368 391 q 355 342 368 354 q 326 330 343 330 z "},">":{"ha":404,"x_min":0,"x_max":404,"o":"m 47 125 q 9 140 22 125 q 0 168 0 153 q 15 201 0 188 q 42 211 26 211 l 49 211 q 83 215 60 211 q 244 265 157 231 l 301 289 q 58 386 224 329 q 28 426 28 397 q 31 440 28 433 q 71 469 41 469 q 85 467 77 469 q 291 389 222 420 q 404 290 404 338 q 277 186 404 240 q 99 131 182 148 q 47 125 68 125 z "},"?":{"ha":424,"x_min":0,"x_max":424,"o":"m 76 269 q 42 284 55 269 q 33 311 33 296 l 33 316 q 106 507 49 419 q 193 628 146 570 q 295 772 261 712 q 338 925 338 855 q 328 987 338 960 q 289 1044 314 1023 q 208 1074 254 1074 q 85 1006 137 1074 q 51 989 71 989 q 25 997 37 989 q 7 1032 7 1011 q 16 1057 7 1045 q 206 1159 95 1159 q 344 1109 284 1159 q 424 924 424 1042 q 420 865 424 909 q 373 737 416 821 q 287 609 335 669 q 182 469 227 538 q 119 306 132 391 q 103 278 116 288 q 76 269 91 269 m 41 3 q 10 19 22 3 q 0 46 0 31 l 10 165 q 25 194 12 184 q 54 205 38 205 q 85 189 73 205 q 96 162 96 178 l 85 43 q 71 14 83 24 q 41 3 58 3 z "},"@":{"ha":640,"x_min":0,"x_max":640,"o":"m 296 -111 l 290 -111 q 38 56 107 -84 q 0 217 0 132 q 28 376 0 298 q 105 508 56 449 q 222 600 155 566 q 360 631 292 631 q 448 618 404 631 q 604 484 549 587 q 640 319 640 416 l 639 298 q 578 77 627 155 q 509 28 547 28 q 433 118 452 28 q 414 269 420 186 q 365 165 389 213 q 303 84 336 110 q 238 59 270 59 q 164 100 194 60 q 132 217 132 143 q 144 308 132 262 q 214 440 163 384 q 344 504 264 497 q 375 492 362 504 q 389 462 389 480 q 377 432 389 445 q 348 418 366 420 q 271 376 302 414 q 227 286 240 338 q 217 215 217 250 q 241 136 218 136 q 288 197 260 136 q 406 458 366 375 q 443 485 418 485 q 456 482 450 485 q 487 439 487 470 q 498 319 496 379 q 515 140 498 241 q 553 302 546 202 l 553 317 q 527 446 553 395 q 359 546 473 546 q 259 522 310 546 q 166 447 205 496 q 106 340 127 399 q 86 221 86 281 q 87 184 86 218 q 115 95 87 150 q 248 -14 151 19 q 301 -26 273 -22 q 329 -41 319 -28 q 338 -69 338 -54 q 322 -102 338 -90 q 296 -111 311 -111 z "},"A":{"ha":865,"x_min":0,"x_max":850,"o":"m 785 -39 q 772 -39 777 -39 q 661 49 702 -26 q 592 337 606 155 q 584 554 584 441 l 585 625 q 404 528 493 587 l 393 522 q 205 164 286 304 q 45 -31 94 -31 q 29 -28 41 -31 q 7 -9 18 -26 q 0 14 0 2 q 21 52 0 38 q 254 444 78 94 l 256 446 q 170 427 210 427 q 104 444 135 427 q 87 475 87 454 q 92 493 87 484 q 123 511 103 511 q 141 505 132 511 q 172 498 155 498 q 310 555 216 498 q 519 1000 425 790 q 641 1286 606 1194 q 664 1312 648 1304 q 682 1316 673 1316 q 720 1295 708 1316 q 727 1271 727 1284 q 720 1206 727 1256 q 677 719 690 998 l 687 719 q 838 658 765 719 q 850 630 850 647 q 841 608 850 618 q 814 595 829 595 q 791 604 802 595 q 684 646 741 646 l 675 646 q 673 550 673 597 q 734 93 673 211 q 785 50 755 55 l 789 50 q 819 35 808 47 q 829 5 829 22 q 814 -29 829 -16 q 785 -39 802 -39 m 450 640 q 587 703 518 680 q 604 972 593 838 q 450 640 535 817 z "},"B":{"ha":751,"x_min":0,"x_max":721,"o":"m 371 -25 q 255 -1 309 -25 q 188 59 210 18 q 183 79 183 69 q 208 119 183 105 q 227 123 218 123 q 267 98 254 123 q 305 75 277 83 q 370 64 340 64 q 475 90 420 64 q 595 212 553 132 q 633 357 633 283 q 553 520 633 464 q 406 559 500 559 q 295 546 357 559 l 288 545 q 250 565 262 545 q 242 591 242 576 q 243 602 242 593 q 258 624 243 611 q 461 861 382 739 q 537 1067 537 979 q 524 1130 537 1103 q 456 1190 503 1173 q 396 1200 429 1200 q 176 1086 276 1200 q 87 915 119 1021 q 66 888 81 897 q 44 883 56 883 q 5 906 18 883 q 0 928 0 916 q 1 940 0 934 q 109 1145 40 1065 q 395 1289 237 1289 q 488 1273 444 1289 q 604 1168 566 1244 q 626 1067 626 1124 q 617 984 626 1043 q 536 812 608 926 q 408 648 481 728 q 606 593 530 648 q 698 477 670 547 q 721 355 721 419 q 716 289 721 339 q 671 164 712 239 q 515 10 618 64 q 371 -25 439 -25 m 119 -37 q 108 -37 117 -37 q 86 -22 99 -36 q 46 124 54 18 q 43 225 43 171 q 111 962 43 453 q 127 991 114 981 q 155 1001 140 1001 q 191 984 177 1001 q 199 957 199 972 l 199 951 q 131 199 131 465 q 133 117 131 174 q 153 37 134 61 q 164 8 164 24 q 163 -3 164 7 q 149 -26 163 -14 q 119 -37 135 -37 z "},"C":{"ha":783,"x_min":0,"x_max":761,"o":"m 298 -24 l 285 -24 q 70 86 140 -24 q 0 379 0 197 q 84 843 0 599 q 186 1071 127 968 q 458 1298 315 1298 q 595 1232 532 1298 q 607 1201 607 1218 q 606 1191 607 1200 q 592 1169 606 1181 q 562 1157 578 1157 q 551 1158 561 1157 q 529 1172 542 1158 q 459 1208 495 1208 q 370 1167 415 1208 q 260 1022 312 1115 q 169 814 208 929 q 90 371 90 585 q 144 140 90 227 q 292 65 192 65 q 466 135 363 65 q 682 335 571 207 q 716 351 696 351 q 745 340 732 351 q 761 306 761 326 q 750 277 761 290 q 516 62 630 140 q 298 -24 399 -19 z "},"D":{"ha":800,"x_min":0,"x_max":766,"o":"m 186 -21 q 175 -20 185 -21 q 153 -6 165 -20 q 113 134 120 32 q 109 232 109 179 q 177 943 109 457 q 193 971 180 962 q 221 981 206 981 q 257 964 243 981 q 266 939 266 953 l 265 932 q 197 207 197 441 q 199 128 197 182 q 220 50 201 74 q 231 22 231 37 q 230 12 231 21 q 216 -9 229 2 q 186 -21 202 -21 m 379 -27 q 304 -11 344 -27 q 277 28 277 1 q 280 45 277 37 q 321 72 292 72 q 338 68 330 72 q 376 60 357 60 q 472 111 426 60 q 551 237 519 166 q 669 680 640 435 q 677 824 677 754 q 673 920 677 855 q 644 1061 670 985 q 455 1215 587 1215 q 304 1174 379 1215 q 175 1074 231 1135 q 89 907 100 992 q 74 879 87 889 q 45 868 61 868 q 10 883 24 868 q 0 911 0 895 l 0 915 q 116 1139 15 1036 q 277 1256 186 1212 q 462 1301 368 1301 q 618 1248 547 1301 q 730 1076 690 1195 q 766 812 766 964 q 758 671 766 743 q 628 192 728 399 q 379 -27 525 -21 z "},"E":{"ha":748,"x_min":0,"x_max":720,"o":"m 289 -25 q 212 -14 256 -25 q 119 41 168 -2 q 28 184 58 98 q 0 360 0 267 q 33 551 0 459 q 123 700 63 637 q 259 785 178 757 q 175 1076 175 952 q 178 1133 175 1087 q 219 1227 181 1179 q 367 1297 276 1297 q 500 1256 435 1297 q 614 1119 572 1211 q 618 1101 618 1109 q 591 1061 618 1073 q 573 1057 582 1057 q 533 1084 545 1057 q 459 1175 505 1143 q 365 1207 412 1207 q 291 1175 321 1207 q 262 1075 262 1143 q 292 933 262 1018 q 364 779 317 863 q 370 757 370 768 q 318 709 370 718 q 117 520 172 673 q 90 359 90 441 q 110 223 90 288 q 173 115 130 158 q 289 64 229 64 q 316 66 302 64 q 467 138 397 81 q 640 323 551 206 q 675 341 654 341 q 703 332 690 341 q 720 298 720 319 q 711 270 720 283 q 522 68 616 144 q 332 -22 434 -2 q 289 -25 311 -25 z "},"F":{"ha":694,"x_min":0,"x_max":682,"o":"m 74 -28 q 63 -28 73 -28 q 41 -14 54 -28 q 0 234 0 35 q 40 759 3 479 q 129 1284 104 1266 q 155 1293 140 1293 q 197 1263 186 1293 q 227 1259 208 1259 q 359 1278 260 1259 q 539 1301 465 1301 q 661 1268 608 1301 q 682 1230 682 1254 q 674 1206 682 1218 q 637 1187 661 1187 q 612 1194 625 1187 q 537 1211 583 1211 q 375 1190 478 1211 q 232 1171 281 1171 q 189 1174 210 1171 q 130 755 163 1006 q 134 750 132 753 q 168 741 142 741 q 301 760 199 741 q 481 783 409 783 q 604 751 551 783 q 624 714 624 736 q 616 689 624 701 q 579 669 603 669 q 555 676 567 669 q 479 694 525 694 q 317 672 418 694 q 172 653 221 653 q 118 659 142 653 q 82 208 82 368 q 86 116 82 165 q 107 46 90 67 q 119 16 119 33 q 118 5 119 14 q 104 -16 117 -4 q 74 -28 90 -28 z "},"G":{"ha":683,"x_min":0,"x_max":657,"o":"m 507 -125 l 500 -125 q 472 -115 486 -125 q 456 -87 459 -105 q 443 26 450 -35 q 286 -28 369 -28 q 201 -14 245 -28 q 78 82 121 12 q 17 242 34 151 q 0 425 0 334 q 16 643 0 540 q 128 1024 45 847 q 245 1192 176 1123 q 399 1284 314 1261 q 462 1293 429 1293 q 637 1237 544 1293 q 657 1200 657 1223 q 650 1175 657 1187 q 612 1154 637 1154 q 589 1162 600 1154 q 462 1203 521 1203 q 420 1198 440 1203 q 205 981 292 1164 q 92 460 103 754 q 91 421 91 441 q 283 62 91 62 q 433 135 362 62 q 424 323 424 247 q 487 570 424 511 q 545 595 515 595 q 594 576 571 595 q 632 513 618 556 q 645 427 645 477 q 618 279 645 357 q 525 105 587 186 q 545 -75 534 9 l 545 -81 q 535 -109 545 -96 q 507 -125 525 -122 m 514 259 q 555 428 555 347 q 547 488 555 470 q 542 499 543 499 q 534 484 541 499 q 513 323 513 432 q 514 259 513 288 z "},"H":{"ha":833,"x_min":0,"x_max":816,"o":"m 626 -29 l 616 -29 q 593 -14 606 -28 q 551 226 551 33 q 576 596 551 374 q 446 541 514 571 q 213 450 324 485 q 130 -20 154 -4 q 105 -29 119 -29 q 68 -11 81 -29 q 60 16 60 1 q 74 113 60 26 q 121 431 98 265 q 98 430 110 430 q 11 460 45 430 q 0 487 0 471 q 10 511 0 500 q 35 522 20 522 q 60 512 50 522 q 102 499 75 499 q 131 502 115 499 q 181 1064 181 876 q 156 1218 181 1189 q 144 1248 144 1232 l 144 1258 q 159 1281 145 1267 q 189 1293 172 1293 l 199 1293 q 222 1278 209 1292 q 263 1042 263 1230 q 222 526 263 852 q 418 606 315 560 q 585 675 505 646 q 618 932 600 810 q 667 1255 654 1184 q 684 1284 670 1274 q 711 1293 696 1293 q 747 1275 732 1293 q 755 1249 755 1263 q 741 1152 755 1246 q 676 701 705 924 q 728 707 704 707 q 765 703 742 707 q 808 673 789 699 q 816 651 816 663 q 814 640 816 648 q 802 624 813 632 q 780 615 791 615 q 751 630 763 615 q 723 640 743 640 q 667 629 702 640 q 634 206 634 358 q 637 116 634 165 q 659 46 641 67 q 670 17 670 33 l 670 5 q 656 -17 669 -4 q 626 -29 642 -29 z "},"I":{"ha":212,"x_min":0,"x_max":204,"o":"m 74 -29 q 63 -29 73 -29 q 41 -15 54 -28 q 6 93 16 15 q 0 227 0 153 q 8 419 0 313 q 62 899 28 662 q 115 1253 88 1084 q 133 1282 119 1272 q 160 1291 145 1291 q 195 1273 182 1291 q 204 1247 204 1261 l 151 892 q 93 410 115 649 q 82 205 82 291 q 107 45 82 74 q 119 16 119 32 q 118 5 119 14 q 104 -18 118 -4 q 74 -29 91 -29 z "},"J":{"ha":583,"x_min":0,"x_max":563,"o":"m 200 -25 q 62 57 119 -25 q 0 273 0 145 q 5 354 0 296 q 57 514 10 413 q 96 540 69 540 q 116 535 106 540 q 142 495 142 523 q 138 476 142 486 q 90 271 90 372 q 102 178 90 220 q 165 77 119 109 q 202 64 182 64 q 222 67 212 64 q 373 281 319 96 q 440 729 421 446 q 455 996 450 870 q 474 1272 462 1172 q 492 1301 477 1290 q 517 1310 503 1310 q 554 1291 541 1310 q 563 1264 563 1279 l 563 1258 q 544 993 551 1163 q 496 433 532 656 q 391 104 460 222 q 246 -19 336 9 q 200 -25 222 -25 z "},"K":{"ha":737,"x_min":0,"x_max":730,"o":"m 74 -25 q 63 -25 73 -25 q 41 -11 54 -24 q 0 212 0 37 q 43 761 0 428 q 111 1236 68 964 l 115 1261 q 132 1291 118 1280 q 159 1300 144 1300 q 195 1282 182 1300 q 204 1255 204 1270 l 193 1181 q 131 759 153 922 q 237 881 182 821 q 562 1188 421 1084 q 686 1251 646 1251 q 715 1240 702 1251 q 730 1207 730 1227 q 719 1178 730 1191 q 690 1162 709 1164 q 600 1108 663 1158 q 452 976 536 1057 q 146 634 280 809 q 232 547 180 591 q 340 456 283 503 q 574 238 500 328 q 661 58 645 153 l 661 54 q 650 24 661 37 q 616 7 638 7 q 588 17 601 7 q 572 45 574 27 q 513 172 562 109 q 409 280 469 227 q 283 387 348 334 q 105 545 182 467 q 81 199 83 343 q 106 50 81 81 q 118 20 118 36 q 118 9 118 18 q 104 -13 117 -1 q 74 -25 90 -25 z "},"L":{"ha":707,"x_min":0,"x_max":688,"o":"m 277 -26 l 269 -26 q 64 109 140 -26 q 0 435 0 228 q 9 600 0 511 q 72 996 35 813 q 118 1208 99 1126 q 129 1256 125 1237 q 149 1286 134 1276 q 173 1293 160 1293 q 211 1272 197 1293 q 218 1248 218 1261 l 217 1238 q 159 983 188 1118 q 93 585 118 798 q 84 426 84 498 q 130 165 84 258 q 271 62 181 62 q 489 179 369 62 q 607 323 547 237 q 644 342 621 342 q 669 334 657 342 q 688 297 688 319 q 680 272 688 284 q 557 122 619 184 q 277 -26 408 -22 z "},"M":{"ha":1094,"x_min":0,"x_max":1053,"o":"m 74 -29 q 63 -29 73 -29 q 41 -15 54 -28 q 6 93 16 15 q 0 227 0 153 q 36 701 0 401 q 115 1253 63 922 q 133 1282 119 1272 q 160 1291 145 1291 q 195 1273 182 1291 q 204 1247 204 1261 q 197 1200 204 1239 l 197 1197 q 356 1293 273 1293 q 537 1010 500 1293 q 545 854 545 942 q 543 758 545 809 l 543 748 l 547 760 q 670 1086 600 948 q 788 1242 727 1192 q 887 1283 840 1283 q 997 1207 953 1283 q 1053 877 1053 1109 q 1020 433 1053 746 q 994 101 994 183 q 999 29 994 56 q 1000 18 1000 24 q 992 -7 1000 5 q 956 -26 981 -26 q 930 -18 943 -26 q 912 8 917 -10 q 904 101 904 44 q 931 441 904 191 q 963 880 963 732 q 878 1192 963 1192 q 751 1051 824 1192 q 632 734 678 901 q 551 436 590 590 q 515 307 524 323 q 477 283 500 283 q 442 298 456 283 q 432 328 432 310 q 444 587 432 412 q 456 859 456 772 q 450 992 456 934 q 395 1177 435 1126 q 355 1204 375 1203 q 301 1178 331 1204 q 156 890 211 1101 q 95 435 117 728 q 82 205 82 306 q 107 45 82 73 q 119 16 119 32 q 118 5 119 14 q 104 -18 118 -4 q 74 -29 91 -29 z "},"N":{"ha":672,"x_min":0,"x_max":627,"o":"m 76 -25 q 65 -25 75 -25 q 43 -11 56 -24 q 0 235 0 40 q 13 498 0 361 q 64 903 37 735 l 117 1257 q 134 1286 120 1276 q 161 1295 146 1295 q 197 1277 184 1295 q 206 1250 206 1265 l 205 1244 q 159 939 186 1131 q 210 1060 183 1002 q 320 1221 258 1162 q 458 1289 391 1289 q 627 890 627 1289 q 616 655 627 785 q 593 436 604 538 q 564 104 564 194 q 570 34 564 60 q 572 22 572 28 q 564 -3 572 10 q 526 -22 552 -22 q 502 -14 515 -22 q 484 12 489 -7 q 475 104 475 47 q 504 446 475 201 q 527 663 517 558 q 538 889 538 789 q 526 1067 538 992 q 450 1198 505 1198 q 363 1139 410 1198 q 291 1023 321 1088 q 217 841 252 938 q 93 385 115 573 q 81 203 81 283 q 85 117 81 162 q 109 50 90 72 q 120 20 120 36 q 120 9 120 18 q 106 -14 119 0 q 76 -25 92 -25 z "},"O":{"ha":645,"x_min":0,"x_max":610,"o":"m 252 -30 q 124 24 174 -28 q 11 286 37 113 q 0 412 0 352 q 42 728 0 549 q 62 756 47 747 q 85 762 73 762 q 106 758 98 762 q 97 891 97 829 q 121 1068 97 991 q 203 1218 151 1163 q 341 1284 267 1284 q 537 1133 459 1284 q 610 737 610 983 l 610 720 q 533 243 602 442 q 415 48 491 125 q 252 -30 339 -28 m 255 59 q 369 124 317 60 q 449 273 420 189 q 522 754 517 471 q 460 1092 522 963 q 342 1192 412 1192 q 331 1192 336 1192 q 210 1057 254 1180 q 186 892 186 985 q 336 421 186 630 q 344 396 344 409 q 342 381 344 392 q 325 359 340 370 q 299 351 313 351 q 285 352 295 351 q 263 370 275 354 q 122 676 163 509 q 89 409 89 524 q 129 182 89 291 q 255 59 172 66 z "},"P":{"ha":702,"x_min":0,"x_max":690,"o":"m 74 -33 q 63 -33 73 -33 q 41 -19 54 -33 q 0 223 0 28 q 108 1201 0 515 l 115 1249 q 133 1278 118 1267 q 160 1287 145 1287 q 195 1269 182 1287 q 204 1242 204 1257 q 191 1152 204 1237 q 151 888 170 1021 l 146 863 q 350 1184 250 1080 q 535 1286 451 1286 q 635 1241 595 1286 q 690 1067 690 1177 q 685 994 690 1032 q 584 759 668 878 q 171 473 450 572 q 156 471 163 471 q 115 501 125 471 q 112 516 112 509 q 142 558 112 547 q 511 812 395 647 q 603 1074 603 943 q 568 1181 603 1146 q 530 1196 552 1196 q 491 1188 517 1196 q 411 1123 465 1181 q 277 922 351 1059 q 149 648 207 789 q 111 542 122 589 q 92 406 100 494 q 82 203 82 289 q 106 41 82 69 q 118 12 118 28 q 118 1 118 10 q 104 -22 117 -8 q 74 -33 90 -33 z "},"Q":{"ha":637,"x_min":0,"x_max":610,"o":"m 382 -322 q 351 -311 364 -322 q 336 -278 336 -296 q 349 -248 336 -261 q 373 -163 373 -219 q 351 -16 373 -105 q 271 -33 310 -33 q 210 -22 240 -33 q 0 408 0 59 q 42 724 0 545 q 62 752 47 743 q 85 758 73 758 q 120 742 107 758 q 103 914 103 823 q 180 1202 103 1105 q 330 1282 245 1282 q 446 1240 386 1282 q 553 1090 507 1198 q 610 746 610 948 q 533 239 608 456 q 427 43 491 117 q 460 -165 460 -79 q 414 -308 460 -254 q 382 -322 401 -321 m 395 150 q 500 481 465 268 q 521 749 521 612 q 471 1057 521 924 q 331 1192 413 1192 q 242 1137 279 1192 q 193 916 193 1067 q 209 753 193 825 q 335 332 243 596 q 395 150 368 238 m 271 56 q 326 72 298 56 q 250 304 293 181 q 129 703 163 560 q 89 402 89 530 q 229 66 92 134 q 271 56 250 56 z "},"R":{"ha":710,"x_min":0,"x_max":691,"o":"m 573 -24 q 495 25 536 -24 q 404 157 454 75 q 165 484 220 456 q 113 526 113 490 q 123 555 113 541 q 154 574 133 569 q 512 823 396 661 q 603 1084 603 955 q 568 1193 603 1157 q 530 1208 552 1208 q 491 1200 518 1208 q 411 1135 465 1192 q 149 660 294 1008 q 111 553 122 601 q 92 417 100 505 q 82 215 82 300 q 106 53 82 81 q 119 23 119 39 q 118 13 119 22 q 104 -9 118 3 q 74 -22 90 -22 q 63 -21 73 -22 q 41 -7 54 -21 q 0 235 0 40 q 62 906 0 459 q 115 1261 100 1171 q 133 1290 119 1279 q 160 1299 145 1299 q 195 1280 182 1299 q 204 1255 204 1268 q 191 1163 204 1249 q 147 874 160 972 q 351 1196 250 1091 q 535 1298 452 1298 q 635 1253 595 1298 q 691 1077 691 1187 q 584 770 691 922 q 256 518 472 614 q 441 267 326 448 q 576 66 567 70 l 583 67 q 611 57 598 67 q 627 22 627 45 q 617 -6 627 7 q 573 -24 604 -24 z "},"S":{"ha":648,"x_min":0,"x_max":628,"o":"m 285 -28 q 137 3 207 -28 q 37 82 75 31 q 0 195 0 133 q 16 279 0 235 q 39 304 22 297 q 57 309 47 309 q 98 283 86 309 q 102 264 102 274 q 100 249 102 257 q 90 195 90 219 q 109 134 90 159 q 174 84 132 102 q 288 61 225 61 q 437 123 389 61 q 460 199 460 157 q 386 397 460 279 q 244 598 332 484 q 124 766 178 685 q 52 917 71 846 q 41 1005 41 964 q 69 1123 41 1062 q 172 1230 98 1185 q 403 1293 274 1293 q 557 1257 493 1293 q 627 1168 614 1225 l 628 1159 q 619 1133 628 1146 q 583 1116 607 1116 q 557 1124 570 1116 q 540 1151 544 1133 q 500 1187 534 1174 q 400 1204 461 1204 q 315 1194 359 1204 q 144 1070 187 1164 q 130 1001 130 1040 q 138 939 130 972 q 204 807 155 880 q 379 567 250 740 q 464 441 425 504 q 550 194 550 301 q 549 159 550 191 q 509 71 548 126 q 402 -7 468 17 q 285 -28 346 -28 z "},"T":{"ha":817,"x_min":0,"x_max":806,"o":"m 282 -33 l 272 -33 q 249 -18 262 -32 q 214 87 223 11 q 208 219 208 146 q 216 408 208 303 q 270 878 236 646 q 321 1211 292 1030 l 268 1211 q 160 1206 208 1211 q 83 1175 100 1199 q 45 1154 69 1154 q 22 1160 33 1154 q 0 1198 0 1174 q 7 1221 0 1209 q 67 1269 26 1252 q 163 1292 108 1285 q 282 1298 218 1298 q 460 1292 360 1298 q 638 1285 563 1286 q 721 1294 713 1285 q 761 1320 733 1320 q 779 1316 770 1320 q 806 1277 806 1305 q 802 1259 806 1268 q 620 1200 774 1200 q 411 1206 561 1200 q 300 398 332 736 q 290 200 290 283 q 315 41 290 68 q 326 13 326 28 l 326 1 q 312 -20 326 -8 q 282 -33 298 -33 z "},"U":{"ha":661,"x_min":0,"x_max":627,"o":"m 465 -33 q 430 -14 444 -33 q 422 13 422 -2 q 435 102 422 18 q 469 323 452 212 q 418 202 444 260 q 308 42 370 101 q 168 -26 237 -26 q 0 373 0 -26 q 35 826 0 538 q 63 1158 63 1069 q 57 1229 63 1202 q 56 1240 56 1235 q 63 1265 56 1252 q 100 1284 75 1284 q 125 1277 112 1284 q 152 1156 152 1262 q 123 817 152 1060 q 100 600 111 704 q 89 373 89 473 q 101 195 89 271 q 178 64 123 64 q 265 123 218 64 q 336 240 306 174 q 410 421 375 324 q 535 878 512 689 q 547 1059 547 979 q 542 1145 547 1101 q 519 1213 538 1190 q 507 1243 507 1226 q 508 1254 507 1244 q 522 1275 508 1263 q 551 1288 535 1288 q 562 1288 553 1288 q 585 1273 572 1287 q 627 1027 627 1222 q 564 359 627 774 q 511 5 549 260 q 492 -24 507 -14 q 465 -33 481 -33 z "},"V":{"ha":732,"x_min":0,"x_max":728,"o":"m 158 -24 q 18 210 61 -24 q 0 439 0 320 q 9 690 0 547 q 15 814 13 753 q 24 1116 24 1031 q 13 1227 24 1211 q 1 1257 1 1240 q 1 1267 1 1258 q 15 1290 1 1277 q 44 1302 28 1302 l 55 1302 q 77 1289 64 1302 q 111 1120 109 1251 l 111 1066 q 104 811 111 954 q 93 439 93 570 q 101 235 93 335 q 160 62 116 62 q 220 120 187 62 q 422 699 286 234 q 553 1102 489 928 q 654 1289 604 1240 q 684 1301 667 1301 q 694 1301 685 1301 q 717 1287 704 1301 q 728 1257 728 1273 q 728 1246 728 1255 q 714 1223 728 1237 q 636 1073 679 1188 q 508 673 576 906 q 357 215 414 360 q 233 11 298 71 q 158 -24 194 -24 z "},"W":{"ha":1021,"x_min":0,"x_max":1010,"o":"m 691 -28 q 555 105 614 -28 q 462 585 490 260 q 361 258 412 406 q 265 55 318 133 q 142 -24 212 -24 q 24 72 56 -20 q 0 254 0 145 q 85 904 0 451 q 146 1238 141 1215 q 131 1271 131 1252 q 142 1301 131 1288 q 175 1316 157 1316 q 205 1305 192 1316 q 231 1234 231 1287 q 198 1022 231 1174 q 119 576 155 815 q 89 248 89 377 q 99 124 89 180 q 144 64 109 67 q 278 285 204 67 q 359 549 318 407 q 451 844 404 709 q 492 873 463 873 q 509 870 500 873 q 538 827 538 858 q 566 449 545 608 q 637 140 594 242 q 693 62 669 62 q 742 121 714 62 q 859 780 827 309 q 885 1104 873 1004 q 967 1287 907 1287 q 994 1278 981 1287 q 1010 1243 1010 1264 q 1002 1215 1010 1228 q 971 1076 982 1185 q 949 774 962 981 q 823 92 914 281 q 691 -28 764 -28 z "},"X":{"ha":941,"x_min":0,"x_max":935,"o":"m 698 -53 q 682 -50 690 -53 q 656 -26 664 -43 q 652 -9 652 -18 q 656 8 652 -1 q 670 96 670 48 q 662 175 670 121 q 618 321 654 229 q 491 580 567 447 q 353 320 422 444 q 193 74 271 170 q 44 -24 115 -22 q 13 -11 26 -24 q 0 20 1 2 q 14 52 1 39 q 45 65 26 64 q 144 148 85 67 q 273 357 203 229 q 416 629 342 485 l 438 671 q 302 891 368 787 q 174 1101 226 1009 q 112 1253 112 1206 q 122 1279 112 1266 q 157 1295 134 1295 q 184 1285 172 1295 q 201 1257 197 1276 q 257 1134 208 1217 q 377 939 306 1050 q 486 764 430 855 q 786 1223 665 1115 q 890 1272 842 1272 q 920 1260 907 1272 q 935 1229 933 1248 q 922 1197 935 1210 q 891 1183 910 1184 q 825 1143 862 1181 q 540 674 725 1042 q 758 92 758 306 q 739 -24 758 30 q 715 -49 732 -41 q 698 -53 707 -53 z "},"Y":{"ha":642,"x_min":0,"x_max":628,"o":"m 273 -22 q 147 27 205 -22 q 64 157 89 77 q 54 228 54 192 q 56 266 54 238 q 83 336 58 294 q 121 357 97 357 q 144 351 133 357 q 165 313 165 337 q 159 289 165 301 q 142 226 142 259 q 151 176 142 202 q 203 96 168 128 q 274 67 237 67 q 391 186 343 69 q 468 520 443 319 q 511 979 498 762 q 517 1068 511 983 q 435 899 475 987 q 340 709 388 798 q 239 565 292 621 q 125 509 186 510 q 0 694 0 512 q 96 1202 2 882 q 111 1260 106 1240 q 132 1289 116 1279 q 155 1295 142 1295 q 193 1274 180 1295 q 199 1250 199 1263 q 182 1179 199 1242 q 89 698 89 862 q 125 598 89 600 q 273 772 184 600 q 354 937 313 849 q 449 1128 400 1037 q 585 1297 538 1297 q 613 1286 600 1297 q 628 1253 628 1272 q 625 1232 628 1243 q 600 972 614 1174 q 555 509 587 754 q 469 157 528 307 q 273 -22 395 -22 z "},"Z":{"ha":729,"x_min":0,"x_max":713,"o":"m 359 -22 q 19 106 94 -22 q 0 184 0 139 q 7 249 0 203 q 76 388 15 294 q 404 742 164 527 q 621 1065 621 937 q 621 1092 621 1067 q 594 1149 620 1116 q 468 1222 549 1203 q 372 1233 420 1233 q 199 1191 267 1233 q 142 1119 154 1163 q 123 1091 138 1101 q 100 1084 113 1084 q 61 1105 75 1084 q 54 1128 54 1116 q 56 1139 54 1134 q 140 1260 75 1215 q 366 1322 231 1322 q 669 1199 568 1322 q 713 1070 713 1145 q 463 675 713 900 q 92 189 92 342 q 96 159 92 173 q 193 83 117 102 q 343 66 260 66 q 548 84 450 66 q 637 106 612 96 q 667 118 651 118 q 694 109 681 118 q 712 73 712 95 q 674 25 712 41 q 570 -2 643 12 q 359 -22 466 -22 z "},"[":{"ha":319,"x_min":0,"x_max":319,"o":"m 178 -88 q 127 -86 153 -88 q 20 -63 35 -79 q 0 231 0 -43 q 14 615 0 415 q 90 1185 37 974 q 104 1208 93 1199 q 130 1217 115 1217 q 209 1219 172 1219 q 278 1217 248 1218 q 308 1203 296 1215 q 319 1174 319 1191 q 306 1143 319 1155 q 275 1131 293 1131 q 209 1133 243 1133 l 165 1133 q 99 610 121 931 q 86 235 86 416 q 92 4 86 117 q 178 -3 132 -3 l 201 -2 q 231 -14 218 -2 q 244 -45 244 -26 q 233 -74 244 -62 q 203 -87 222 -86 l 178 -88 z "},"\\":{"ha":396,"x_min":0,"x_max":396,"o":"m 353 -96 q 330 -89 342 -96 q 312 -65 317 -82 q 0 1072 0 1067 q 7 1095 0 1082 q 43 1114 18 1114 q 66 1106 54 1114 q 84 1082 79 1099 q 396 -54 396 -49 q 389 -77 396 -64 q 353 -96 379 -96 z "},"]":{"ha":294,"x_min":0,"x_max":294,"o":"m 121 -87 q 80 -86 100 -87 q 50 -72 60 -84 q 39 -44 39 -60 q 53 -12 39 -23 q 84 0 66 0 q 128 -2 105 -2 q 193 2 159 -1 q 208 386 208 186 q 203 608 208 494 q 153 1133 191 930 q 65 1135 114 1135 l 43 1135 q 13 1146 25 1135 q 0 1177 1 1158 q 12 1207 0 1195 q 41 1220 24 1219 q 75 1221 58 1220 q 216 1206 200 1221 q 230 1183 227 1196 q 289 611 275 970 q 294 383 294 494 q 275 -40 294 161 q 263 -67 274 -56 q 237 -79 252 -77 q 121 -87 178 -87 z "},"^":{"ha":342,"x_min":0,"x_max":342,"o":"m 299 779 q 260 805 272 779 q 197 922 231 875 l 182 944 q 79 801 148 916 q 43 780 66 780 q 20 786 31 780 q 0 823 0 799 q 6 845 0 834 q 87 966 54 924 q 182 1033 138 1033 q 266 973 222 1033 q 339 838 307 917 q 342 821 342 830 q 316 782 342 794 q 299 779 308 779 z "},"_":{"ha":583,"x_min":0,"x_max":583,"o":"m 540 -56 l 43 -52 q 13 -40 24 -52 q 0 -9 1 -28 q 13 21 1 9 q 43 33 25 33 l 541 29 q 571 17 559 29 q 583 -14 583 5 q 570 -44 583 -32 q 540 -56 558 -56 z "},"`":{"ha":250,"x_min":0,"x_max":250,"o":"m 208 789 q 188 793 197 789 l 24 875 q 0 912 0 887 q 5 932 0 922 q 43 956 17 956 q 62 951 52 956 l 227 869 q 250 831 250 857 q 245 812 250 822 q 208 789 233 789 z "},"a":{"ha":1026,"x_min":-16,"x_max":1096,"o":"m 113 -27 q 79 -20 95 -27 q 20 35 42 -5 q -16 199 -16 97 q 4 355 -16 272 q 54 489 21 425 q 310 694 141 665 q 359 699 334 699 q 458 686 406 699 q 486 665 476 681 q 492 643 492 655 q 471 604 492 618 q 448 597 460 597 q 437 599 442 597 q 364 608 398 608 q 328 606 345 608 q 200 540 253 592 q 90 334 121 463 q 73 201 73 262 q 77 144 73 172 q 124 60 89 60 q 223 144 163 60 q 418 539 307 264 q 459 567 430 567 q 477 564 468 567 q 505 523 505 552 q 504 514 505 518 q 486 317 486 400 q 519 136 486 200 q 597 68 549 79 q 637 63 616 63 q 717 78 675 63 q 897 187 809 111 q 1015 318 964 246 q 1051 337 1029 337 q 1077 329 1065 337 q 1096 293 1096 315 q 1088 267 1096 279 q 943 110 1027 180 q 746 -7 847 29 q 639 -26 690 -26 q 440 96 504 -26 q 398 278 405 163 q 282 91 336 160 q 113 -27 188 -27 z "},"b":{"ha":800,"x_min":-16,"x_max":865,"o":"m 233 -38 q 201 -31 216 -38 q 150 26 164 -15 q 144 64 144 44 q 187 178 144 117 q 315 262 246 258 l 327 262 q 351 260 339 262 q 372 394 364 309 q 376 490 376 442 q 347 630 376 609 q 338 633 342 633 q 288 593 319 633 q 216 473 254 548 q 81 68 117 275 l 72 9 q 56 -18 69 -8 q 28 -28 43 -28 q -7 -12 7 -28 q -16 17 -16 1 l -14 75 q -3 366 -14 166 q 115 1276 22 803 q 134 1304 119 1295 q 158 1312 145 1312 q 195 1293 182 1312 q 203 1267 203 1281 l 203 1259 q 90 412 116 823 q 212 637 146 551 q 334 711 272 711 q 371 703 353 711 q 467 464 467 659 q 437 234 467 360 l 454 227 q 570 194 522 194 q 592 195 581 194 q 788 323 679 204 q 821 338 802 338 q 851 325 837 338 q 865 294 865 313 q 854 263 865 277 q 720 149 782 184 q 568 104 644 104 q 418 145 502 104 l 410 149 q 233 -38 337 -38 m 237 53 q 251 59 242 53 q 323 173 288 82 q 259 125 293 172 q 231 62 231 87 q 237 53 231 53 z "},"c":{"ha":669,"x_min":-14,"x_max":737,"o":"m 224 -26 q 40 52 104 -26 q -14 232 -14 117 q 52 488 -14 356 q 212 670 115 612 q 303 695 256 695 q 399 645 370 695 q 415 584 415 616 q 414 567 415 576 q 362 498 405 498 q 347 501 355 498 q 317 543 317 513 q 320 559 317 551 q 326 584 326 572 q 322 599 326 592 q 301 606 318 606 q 258 595 280 606 q 132 447 186 554 q 85 313 100 383 q 76 231 76 271 q 79 187 76 209 q 230 65 101 65 q 272 67 240 65 q 355 89 304 70 q 555 208 460 130 q 656 318 614 259 q 693 337 671 337 q 718 329 706 337 q 737 292 737 315 q 730 267 737 279 q 611 139 681 197 q 385 5 505 51 q 224 -26 302 -26 z "},"d":{"ha":1045,"x_min":-19,"x_max":1112,"o":"m 647 -28 q 552 -3 592 -28 q 418 304 436 66 l 417 319 q 400 288 409 303 q 282 98 330 161 q 182 -3 235 34 q 113 -27 148 -27 q 16 34 52 -27 q -19 200 -19 96 q 1 355 -19 273 q 61 512 20 437 q 163 637 102 587 q 323 695 235 695 q 421 670 401 695 q 431 643 430 658 q 505 1052 451 827 q 569 1255 533 1164 q 610 1284 581 1284 q 627 1280 618 1284 q 655 1240 655 1268 q 652 1222 655 1232 q 595 1038 620 1141 q 526 675 548 842 q 503 396 503 514 q 663 65 503 65 q 733 78 694 65 q 933 205 838 115 q 1031 318 989 258 q 1068 337 1046 337 q 1093 329 1081 337 q 1112 292 1112 315 q 1104 267 1112 279 q 1000 146 1059 202 q 762 -7 887 39 q 647 -28 698 -28 m 121 60 q 159 76 136 60 q 321 318 216 116 q 407 503 378 427 q 427 604 420 543 q 429 631 427 617 q 409 604 424 613 q 386 597 399 597 q 375 599 380 597 q 328 605 351 605 q 218 564 269 605 q 135 459 168 522 q 87 334 102 396 q 70 200 70 262 q 74 144 70 171 q 121 60 85 60 z "},"e":{"ha":604,"x_min":-11,"x_max":673,"o":"m 209 -26 q 8 123 60 -26 q -11 249 -11 184 q -3 336 -11 292 q 68 547 20 454 q 195 698 134 670 q 248 711 222 711 q 292 700 271 711 q 341 598 341 673 q 265 437 341 519 q 86 323 198 363 q 78 241 78 283 q 130 90 78 132 q 211 63 162 63 q 370 113 283 63 q 591 318 504 190 q 629 337 606 337 q 654 329 642 337 q 673 292 673 316 q 595 181 673 264 q 414 35 512 92 q 292 -15 355 1 q 209 -26 250 -26 m 117 433 q 201 498 165 460 q 254 606 252 553 q 250 619 254 614 q 245 621 248 621 q 235 618 241 621 q 148 507 198 602 q 117 433 131 473 z "},"f":{"ha":640,"x_min":-81,"x_max":710,"o":"m 77 -842 q -4 -804 32 -842 q -58 -694 -40 -766 q -81 -444 -81 -593 q -80 -370 -81 -408 q -14 271 -67 -62 q 50 619 17 465 q 116 876 90 810 q 157 904 128 904 q 174 901 165 904 q 202 859 202 888 q 199 842 202 850 q 136 600 175 782 q 62 172 93 392 q 85 179 73 179 q 99 177 89 179 q 121 162 110 176 q 169 113 146 129 q 269 83 214 83 q 472 159 364 83 q 629 318 561 221 q 666 337 644 337 q 691 329 679 337 q 710 292 710 315 q 703 267 710 279 q 523 85 626 158 q 319 -2 422 15 q 268 -6 293 -6 q 205 1 236 -6 q 268 -400 268 -190 q 202 -736 268 -602 q 77 -842 145 -842 m 74 -751 q 122 -696 94 -751 q 178 -401 178 -583 q 138 -87 178 -233 q 59 95 107 33 l 52 105 q 7 -441 7 -214 q 28 -672 7 -581 q 74 -751 46 -749 z "},"g":{"ha":898,"x_min":-16,"x_max":967,"o":"m 143 -840 q 47 -770 85 -837 q 11 -598 11 -702 q 26 -458 11 -534 q 294 -62 81 -217 q 363 -14 328 -37 q 395 274 383 143 q 282 91 346 176 q 113 -27 189 -27 q 79 -20 95 -27 q 20 35 42 -5 q -16 199 -16 97 q 4 355 -16 272 q 54 489 21 425 q 310 694 141 665 q 359 699 334 699 q 458 686 406 699 q 486 665 476 681 q 492 643 492 655 q 471 604 492 618 q 448 597 460 597 q 437 599 442 597 q 364 608 399 608 q 328 606 346 608 q 132 446 201 583 q 73 201 73 330 q 77 144 73 172 q 124 60 89 60 q 223 144 163 60 q 352 382 296 253 q 416 533 387 458 q 458 568 425 568 q 475 564 467 568 q 505 522 505 554 l 505 517 q 490 357 495 437 q 460 44 484 254 q 553 96 506 71 q 759 218 659 153 q 890 326 834 267 q 923 339 904 339 q 953 326 939 339 q 967 294 967 313 q 955 264 967 277 q 816 149 894 201 q 597 18 710 79 q 446 -68 521 -23 q 409 -302 430 -189 q 143 -840 313 -837 m 146 -749 q 170 -736 155 -749 q 227 -637 198 -707 q 347 -134 298 -460 q 196 -284 254 -201 q 113 -477 138 -367 q 100 -598 100 -543 q 123 -725 100 -675 q 146 -749 133 -749 z "},"h":{"ha":960,"x_min":-14,"x_max":1033,"o":"m 32 -41 q -4 -24 9 -41 q -14 3 -14 -12 q -12 61 -12 44 q -1 326 -9 180 q 56 852 12 541 q 129 1253 84 1044 q 149 1280 134 1271 q 173 1287 159 1287 q 210 1267 197 1287 q 218 1244 218 1257 q 216 1234 218 1239 q 92 374 119 779 q 323 700 210 700 q 342 697 333 700 q 424 580 404 681 q 432 456 432 519 q 430 393 432 425 l 428 309 q 431 240 428 280 q 487 93 436 140 q 571 63 519 63 q 693 94 627 63 q 893 245 802 146 q 951 318 925 280 q 989 337 966 337 q 1014 329 1002 337 q 1033 292 1033 315 q 961 187 1033 264 q 731 13 857 73 q 572 -26 648 -26 q 343 232 372 -20 q 336 358 336 294 q 338 422 336 389 q 340 487 340 456 q 320 610 340 610 q 294 584 313 610 q 109 135 199 457 q 75 -3 85 46 q 58 -32 71 -22 q 32 -41 47 -41 z "},"i":{"ha":585,"x_min":-14,"x_max":654,"o":"m 199 -38 q 96 -12 142 -38 q 1 116 29 26 q -14 225 -14 163 q 103 670 -14 411 q 144 696 115 696 q 161 693 153 696 q 188 652 188 680 q 184 634 188 643 q 75 228 75 389 q 87 141 75 178 q 199 52 115 52 q 443 174 304 52 q 573 319 507 233 q 610 337 587 337 q 635 328 623 337 q 654 292 654 313 q 644 266 654 278 q 505 111 576 175 q 199 -38 338 -38 m 161 717 l 157 717 q 144 735 153 718 q 129 780 136 753 q 119 842 119 814 q 134 904 119 880 q 180 935 152 935 q 211 919 196 935 q 228 858 227 903 q 288 884 262 884 l 302 884 q 327 866 315 884 q 334 842 334 856 q 327 811 334 831 q 281 764 319 791 q 212 728 248 741 q 161 717 180 717 z "},"j":{"ha":468,"x_min":-387,"x_max":534,"o":"m -256 -840 l -258 -840 q -370 -728 -340 -837 q -387 -594 -387 -663 q -375 -479 -387 -538 q -271 -226 -347 -337 q -37 -14 -186 -108 q 24 647 0 277 q 39 677 26 666 q 70 689 52 689 q 102 673 89 689 q 113 642 113 661 q 60 44 92 311 q 123 79 92 62 q 336 209 237 139 q 454 321 404 258 q 490 337 469 337 q 517 328 504 337 q 534 293 534 314 q 524 265 534 279 q 382 132 463 189 q 167 1 280 61 q 46 -68 106 -33 q -142 -771 -24 -611 q -256 -840 -197 -840 m -252 -749 q -215 -721 -237 -749 q -161 -612 -187 -684 q -53 -134 -99 -442 q -290 -502 -245 -271 q -298 -590 -298 -547 q -284 -703 -298 -648 q -252 -749 -273 -749 m 75 717 q 26 764 63 717 q -18 868 -18 820 q 5 922 -18 905 q 28 930 16 930 q 54 923 37 930 q 88 874 71 916 q 156 926 119 926 q 177 920 168 926 q 197 873 197 906 q 174 807 197 845 q 122 748 151 773 q 75 717 94 723 z "},"k":{"ha":734,"x_min":-16,"x_max":798,"o":"m 29 -34 q -7 -18 6 -34 q -16 9 -16 -5 l -14 65 q -3 332 -12 185 q 53 859 9 547 q 126 1259 81 1051 q 146 1287 131 1278 q 170 1294 157 1294 q 208 1274 195 1294 q 215 1251 215 1263 q 214 1240 215 1246 q 90 381 116 785 q 117 450 102 417 q 347 707 195 627 q 368 712 357 712 q 408 688 393 712 q 412 668 412 678 q 389 628 412 642 q 277 538 322 592 q 196 397 221 473 q 180 298 180 349 q 193 211 180 256 q 339 70 231 70 q 435 90 384 70 q 604 199 522 125 q 717 325 669 256 q 753 344 732 344 q 779 336 767 344 q 798 299 798 321 q 790 274 798 286 q 665 134 737 197 q 467 7 570 49 q 339 -20 401 -20 q 296 -16 317 -20 q 116 174 155 13 q 73 3 85 66 q 55 -25 68 -15 q 29 -34 44 -34 z "},"l":{"ha":618,"x_min":-8,"x_max":681,"o":"m 269 -24 l 261 -24 q 57 111 133 -24 q -7 378 3 210 q -8 431 -8 404 q 2 602 -8 509 q 64 998 27 815 q 111 1210 92 1128 q 122 1258 117 1239 q 141 1287 126 1278 q 165 1294 152 1294 q 203 1274 190 1294 q 210 1250 210 1263 q 197 1186 210 1242 q 151 985 178 1109 q 85 587 111 799 q 77 433 77 503 q 123 166 77 260 q 264 64 174 64 q 481 181 361 64 q 600 325 539 239 q 636 344 614 344 q 661 336 649 344 q 681 300 681 322 q 673 274 681 286 q 549 124 612 186 q 269 -24 400 -20 z "},"m":{"ha":1213,"x_min":-14,"x_max":1285,"o":"m 40 -20 q 4 -9 20 -20 q -12 22 -12 2 l -12 37 q -13 65 -12 52 q -14 100 -14 79 q -12 153 -14 120 q 3 425 -5 328 q 17 455 4 444 q 48 467 31 467 q 84 448 71 467 q 132 583 108 531 q 238 686 179 686 q 296 654 273 686 q 355 320 347 584 q 485 616 412 498 q 610 711 547 711 q 629 708 620 711 q 699 557 699 686 q 689 426 699 496 q 678 292 678 338 q 683 222 678 263 q 709 139 688 180 q 825 70 741 73 q 923 91 873 70 q 1088 195 1008 125 q 1204 325 1154 254 q 1241 344 1219 344 q 1266 336 1254 344 q 1285 298 1285 322 q 1278 274 1285 286 q 1155 136 1225 199 q 956 8 1060 50 q 821 -19 888 -19 q 591 292 591 -12 q 604 467 591 355 q 615 587 615 553 q 604 620 615 620 q 559 568 593 620 q 451 324 502 473 l 438 288 q 356 18 372 107 q 339 -11 353 0 q 312 -20 327 -20 q 277 -3 292 -20 q 268 28 268 9 q 273 140 273 79 q 271 253 273 202 l 271 319 q 253 551 271 447 q 239 595 244 595 q 222 568 233 595 l 213 546 q 108 134 152 411 q 88 12 98 73 q 71 -13 85 -5 q 40 -20 57 -20 z "},"n":{"ha":917,"x_min":-41,"x_max":991,"o":"m 530 -26 q 488 -23 509 -26 q 359 51 401 -6 q 298 291 298 135 q 304 441 298 332 q 310 546 310 499 q 301 616 310 616 q 273 595 292 616 q 189 451 231 546 q 108 233 142 343 q 58 55 67 108 l 51 25 q 7 -24 39 -24 q -31 -7 -16 -24 q -41 22 -41 4 q -12 253 -41 37 q 14 456 3 362 q 31 486 17 475 q 58 496 43 496 q 100 469 87 496 l 108 487 q 300 706 203 706 q 338 699 319 706 q 398 592 395 671 l 399 571 q 392 463 399 526 q 382 295 382 360 q 424 116 382 178 q 532 63 459 63 q 612 78 569 63 q 816 210 718 116 q 909 318 869 260 q 946 337 924 337 q 971 329 959 337 q 991 293 991 315 q 983 267 991 279 q 880 147 938 203 q 640 -7 766 39 q 530 -26 583 -26 z "},"o":{"ha":819,"x_min":-33,"x_max":893,"o":"m 112 -33 q -16 66 25 -33 q -33 174 -33 110 q -16 311 -33 238 q 3 338 -11 329 q 28 346 15 346 l 35 345 l 35 365 q 46 486 35 427 q 134 647 62 578 q 258 701 196 701 q 359 656 317 701 q 411 484 411 601 q 405 406 411 446 q 280 79 375 216 l 279 76 q 357 66 316 66 q 458 80 406 66 q 693 197 585 114 q 812 318 765 252 q 848 337 826 337 q 873 329 861 337 q 893 293 893 315 q 885 267 893 279 q 752 130 832 192 q 481 -7 627 33 q 357 -24 417 -24 q 212 5 277 -24 q 112 -33 161 -33 m 200 121 l 208 130 q 317 420 292 252 q 322 484 322 454 q 316 547 322 517 q 256 611 301 611 q 194 581 228 611 q 134 468 146 534 q 124 365 124 416 q 200 121 124 191 m 113 56 q 134 60 122 56 q 57 194 82 112 l 56 175 q 68 97 56 127 q 113 56 83 56 z "},"p":{"ha":843,"x_min":-131,"x_max":914,"o":"m -83 -831 q -120 -814 -105 -831 q -131 -781 -131 -801 q -116 -608 -131 -764 q 8 435 -73 -192 q 25 465 11 454 q 52 473 37 473 q 87 456 75 473 q 96 429 96 444 q 71 223 96 422 q 261 637 149 488 q 382 711 321 711 q 420 703 401 711 q 516 464 516 658 q 485 234 516 349 l 503 227 q 619 194 570 194 q 641 195 630 194 q 761 252 693 200 q 836 323 796 279 q 869 338 850 338 q 899 326 886 338 q 914 294 914 312 q 903 263 914 277 q 812 178 855 211 q 652 106 724 113 q 617 104 634 104 q 466 145 550 104 l 458 149 q 417 61 440 103 q 349 -15 394 20 q 281 -41 315 -41 q 242 -31 262 -41 q 199 24 211 -14 q 194 60 194 41 q 204 117 194 86 q 291 235 229 191 q 375 262 330 262 q 399 260 387 262 l 408 297 q 420 394 414 325 q 425 492 425 444 q 395 630 425 608 q 387 633 391 633 q 336 593 368 633 q 180 278 243 469 q 100 -12 133 136 q 6 -519 57 -201 q -41 -795 -16 -657 q -83 -831 -48 -831 m 286 53 q 300 59 290 53 q 372 173 334 81 q 308 125 342 173 q 287 87 293 104 q 279 62 279 72 q 286 53 279 53 z "},"q":{"ha":1026,"x_min":-19,"x_max":1099,"o":"m 465 -842 q 384 -804 420 -842 q 330 -694 349 -766 q 304 -430 304 -582 q 362 219 309 -136 q 279 91 324 150 q 109 -27 185 -27 q 76 -20 92 -27 q 16 35 39 -5 q -19 200 -19 96 q 50 489 -19 351 q 307 694 138 665 q 356 699 331 699 q 456 686 403 699 q 482 694 468 694 q 525 675 510 694 q 532 655 532 667 l 531 648 q 450 172 491 467 q 473 179 460 179 q 487 177 477 179 q 509 162 498 176 q 656 83 568 83 q 693 86 674 83 q 860 159 776 100 q 1017 318 949 221 q 1054 337 1031 337 q 1079 329 1067 337 q 1099 293 1099 315 q 1090 267 1099 279 q 911 85 1014 158 q 707 -2 810 15 q 656 -6 681 -6 q 593 1 624 -6 q 656 -393 654 -173 q 590 -736 656 -601 q 465 -842 533 -842 m 121 60 q 220 144 159 60 q 406 517 311 276 q 429 600 420 548 q 361 608 393 608 q 325 606 342 608 q 197 540 250 592 q 87 334 119 464 q 71 199 71 261 q 74 144 71 170 q 121 60 85 60 m 462 -751 q 510 -696 481 -751 q 566 -401 566 -583 q 526 -87 566 -233 q 447 95 495 33 l 440 105 q 397 -372 406 -148 q 395 -441 395 -408 q 416 -672 395 -581 q 462 -751 434 -749 z "},"r":{"ha":729,"x_min":-27,"x_max":799,"o":"m 17 -38 q -16 -22 -2 -38 q -27 9 -27 -9 l 4 440 q 19 470 6 458 q 50 481 32 481 q 89 457 76 481 l 93 468 q 240 694 159 652 q 281 706 261 706 q 297 704 289 706 q 370 557 353 692 q 519 258 403 315 q 576 247 545 247 q 716 321 666 247 q 753 342 730 342 q 778 335 766 342 q 799 297 799 321 q 791 273 799 285 q 572 157 713 157 q 503 168 534 157 q 343 326 401 203 q 280 556 292 441 q 268 602 280 602 q 254 591 262 602 q 111 224 180 494 q 62 0 77 96 q 46 -28 58 -18 q 17 -38 34 -38 z "},"s":{"ha":528,"x_min":-41,"x_max":596,"o":"m 62 -47 q 4 -24 31 -47 q -32 72 -32 12 q -26 113 -32 92 q 45 197 -11 175 q 1 328 23 267 q -41 518 -41 444 q -14 639 -41 593 q 115 715 34 715 q 213 675 168 715 q 264 567 258 636 l 265 561 q 252 529 265 543 q 220 516 239 516 q 189 529 201 516 q 176 562 176 543 q 154 609 172 593 q 114 625 135 625 q 64 595 83 625 q 49 522 49 570 q 73 394 49 469 l 135 210 l 174 209 q 394 239 287 209 q 513 321 475 262 q 552 343 527 343 q 574 337 564 343 q 596 298 596 323 q 590 276 596 287 q 420 154 538 191 q 176 120 300 120 l 156 120 q 161 69 161 93 q 85 -44 161 -20 q 62 -47 74 -47 m 66 43 q 72 65 72 43 q 66 107 70 107 q 60 91 64 107 q 58 71 58 81 q 59 58 58 65 q 66 43 62 43 z "},"t":{"ha":610,"x_min":-242,"x_max":681,"o":"m 269 -31 l 262 -31 q 58 104 133 -31 q -7 430 -7 223 q 49 906 -7 603 q -92 916 -36 916 q -142 913 -116 916 q -171 896 -169 911 q -182 872 -172 882 q -206 863 -193 863 q -232 874 -222 863 q -242 900 -242 884 q -183 974 -237 956 q -83 987 -141 987 q 62 977 -35 987 l 65 991 q 122 1253 92 1122 q 142 1280 126 1271 q 165 1287 153 1287 q 203 1267 190 1287 q 210 1243 210 1256 l 210 1234 q 152 978 181 1116 q 149 967 151 972 q 282 957 242 957 q 327 966 321 957 q 345 987 332 981 q 361 991 352 991 q 393 972 382 991 q 397 957 397 965 q 395 945 397 951 q 348 900 384 912 q 260 888 311 888 q 135 897 213 888 q 86 580 104 744 q 77 420 77 492 q 123 159 77 254 q 264 57 174 57 q 481 174 361 57 q 600 318 540 232 q 637 337 614 337 q 662 329 650 337 q 681 292 681 315 q 673 267 681 279 q 549 117 612 179 q 269 -31 400 -27 z "},"u":{"ha":955,"x_min":-16,"x_max":1025,"o":"m 96 -26 q 28 4 54 -26 q -16 186 -16 55 q -13 258 -16 220 q 28 527 -1 389 q 53 667 41 596 q 71 696 56 686 q 96 705 83 705 q 133 687 120 705 q 142 661 142 675 q 116 515 142 644 q 72 164 72 294 q 98 62 72 66 q 134 96 110 63 q 199 225 168 145 q 283 473 248 348 l 303 547 q 338 668 319 608 q 360 694 345 686 q 380 699 370 699 q 394 696 387 699 q 425 653 425 686 l 425 647 q 415 456 417 579 q 587 68 415 68 q 696 98 636 68 q 943 325 837 170 q 980 344 958 344 q 1006 336 994 344 q 1025 299 1025 321 q 1017 274 1025 286 q 935 172 980 220 q 736 18 842 72 q 587 -22 656 -22 q 364 159 433 -22 q 330 325 338 236 q 206 45 269 134 q 96 -26 158 -26 z "},"v":{"ha":841,"x_min":-8,"x_max":910,"o":"m 109 -27 l 104 -27 q -5 137 8 -18 q -8 210 -8 172 q 13 473 -8 295 q 27 649 27 587 l 27 667 q 38 696 27 684 q 70 711 52 711 q 101 700 87 711 q 116 670 114 689 l 117 649 q 102 464 117 579 q 80 182 80 283 q 81 144 80 163 q 111 62 83 68 q 151 94 125 62 q 229 227 193 149 q 203 429 203 329 q 282 684 203 619 q 336 703 309 703 q 416 650 389 703 q 431 576 431 615 q 410 448 431 516 q 326 220 377 334 q 473 68 368 68 q 581 98 521 68 q 755 234 673 145 q 829 325 795 277 q 865 344 843 344 q 891 336 879 344 q 910 300 910 322 q 902 274 910 286 q 621 18 781 99 q 472 -22 542 -22 q 271 117 342 -22 q 109 -27 187 -27 m 297 389 q 341 574 339 500 q 340 587 341 579 q 339 602 340 595 q 336 613 338 610 q 296 426 296 589 q 297 389 296 405 z "},"w":{"ha":1105,"x_min":-16,"x_max":1176,"o":"m 375 -34 l 371 -34 q 261 131 273 -25 q 178 6 223 45 q 102 -28 139 -28 q 24 19 56 -28 q -16 197 -16 76 q -15 241 -16 218 q 40 633 -2 413 q 50 692 47 669 q 68 721 54 710 q 93 730 79 730 q 130 712 117 730 q 139 685 139 700 q 127 617 139 675 q 73 178 73 317 q 104 68 73 68 q 196 209 140 68 q 277 473 246 347 q 325 509 289 509 q 361 486 351 509 q 368 460 368 474 q 363 415 368 450 q 346 168 346 263 l 347 138 q 377 55 349 61 q 417 87 392 55 q 496 220 453 134 q 469 422 469 322 q 549 677 469 614 q 602 696 574 696 q 682 644 655 696 q 697 572 697 610 q 676 441 697 511 q 591 214 643 323 q 640 113 614 147 q 739 61 677 61 q 848 91 787 61 q 1022 227 940 138 q 1095 318 1062 270 q 1132 337 1109 337 q 1157 329 1145 337 q 1176 292 1176 315 q 1168 267 1176 279 q 887 11 1047 93 q 739 -28 808 -28 q 538 110 609 -28 q 375 -34 452 -34 m 564 382 q 608 568 606 500 q 607 580 608 572 q 605 595 606 588 q 602 606 604 603 q 579 572 587 597 q 563 419 563 516 q 564 382 563 398 z "},"x":{"ha":686,"x_min":-161,"x_max":753,"o":"m -116 -19 q -126 -19 -117 -19 q -149 -5 -136 -18 q -161 25 -161 9 l -161 35 q -147 58 -161 45 q 27 260 -69 133 q -78 666 -48 446 l -79 673 q -69 701 -79 688 q -35 718 -57 718 q -6 708 -19 718 q 10 679 7 698 q 43 508 19 614 q 90 345 60 427 q 300 682 226 537 q 340 706 313 706 q 360 702 351 706 q 385 662 385 688 q 380 642 385 652 q 130 248 292 471 q 334 75 216 75 q 496 141 408 75 q 672 325 599 219 q 709 344 686 344 q 734 336 722 344 q 753 300 753 322 q 745 274 753 286 q 547 68 663 155 q 426 1 490 26 q 327 -18 377 -18 q 172 41 241 -18 q 71 170 117 88 q -116 -19 -79 -19 z "},"y":{"ha":873,"x_min":-14,"x_max":944,"o":"m 120 -840 q 25 -770 62 -837 q -12 -600 -12 -703 q 3 -458 -12 -534 q 271 -62 57 -218 q 340 -14 304 -37 q 361 215 347 30 q 369 350 365 254 q 220 61 296 176 q 96 -25 157 -25 q 37 2 63 -25 q -14 197 -14 53 q 37 533 -14 342 q 90 692 60 619 q 130 720 102 720 q 147 717 138 720 q 176 675 176 705 q 172 659 176 667 q 123 511 145 591 q 75 193 75 333 q 83 111 75 146 q 109 63 92 63 q 242 283 145 63 q 366 581 338 499 q 401 668 383 629 q 439 690 413 690 q 482 664 469 690 q 488 642 488 653 l 487 632 q 473 511 475 572 l 465 382 q 437 44 456 213 q 587 127 489 74 q 867 326 775 229 q 900 339 881 339 q 930 326 917 339 q 944 294 944 313 q 932 264 944 277 q 630 50 829 157 q 423 -68 456 -48 q 287 -671 373 -454 q 253 -741 274 -704 q 120 -840 195 -838 m 123 -749 q 146 -736 132 -749 q 204 -637 176 -707 q 323 -134 275 -460 q 173 -284 231 -201 q 90 -477 115 -367 q 77 -598 77 -543 q 100 -725 77 -675 q 123 -749 110 -749 z "},"z":{"ha":811,"x_min":-95,"x_max":879,"o":"m 65 -839 q -58 -775 -12 -839 q -95 -643 -95 -724 q -42 -431 -95 -534 q 110 -227 19 -312 q 368 -35 201 -142 q 184 273 337 189 q 158 314 158 286 q 172 345 158 330 q 264 461 233 406 q 300 568 300 527 q 269 614 300 614 q 153 498 218 614 q 81 304 106 406 q 60 277 75 286 q 37 271 50 271 q -1 294 12 271 q -7 316 -7 304 q -6 328 -7 321 q 73 535 22 436 q 277 705 168 705 q 335 686 309 705 q 386 585 379 655 q 387 568 387 577 q 343 422 387 504 q 273 322 317 373 q 450 19 409 220 q 632 151 545 81 q 797 327 730 229 q 834 347 811 347 q 859 340 846 347 q 879 302 879 326 q 871 278 879 290 q 688 82 796 168 q 469 -74 584 -1 l 463 -79 q 465 -142 465 -111 q 442 -351 465 -247 q 355 -601 414 -488 q 168 -810 267 -760 q 65 -839 113 -839 m 73 -751 q 276 -559 170 -751 q 355 -333 329 -458 q 375 -142 375 -238 l 375 -136 q 170 -294 264 -208 q 36 -477 85 -373 q -6 -640 -6 -574 q 58 -750 -3 -738 q 73 -751 64 -751 z "},"{":{"ha":292,"x_min":0,"x_max":292,"o":"m 189 -98 q 71 31 85 -98 q 68 98 68 62 q 75 214 68 152 q 82 368 82 304 q 66 491 82 434 q 50 525 60 512 q 15 561 38 541 q 0 594 0 574 q 12 624 0 611 q 16 628 14 627 q 26 642 21 631 q 73 799 60 722 q 89 926 82 862 q 129 1139 103 1073 q 248 1228 163 1224 q 278 1217 266 1228 q 292 1187 291 1205 q 280 1156 292 1168 q 250 1143 269 1143 q 189 1027 205 1141 q 174 916 180 977 q 157 780 168 848 q 98 599 138 669 q 129 561 118 578 q 148 516 140 543 q 168 369 168 446 q 161 219 168 292 q 154 99 154 162 q 157 41 154 68 q 199 -12 160 -12 l 208 -12 q 236 -21 223 -12 q 251 -53 251 -33 q 241 -81 251 -68 q 213 -97 231 -94 q 189 -98 201 -98 z "},"|":{"ha":115,"x_min":0,"x_max":115,"o":"m 41 -64 q 12 -50 23 -62 q 0 -20 0 -38 l 29 922 q 42 952 30 940 q 73 964 55 964 q 103 950 91 963 q 115 920 115 938 l 85 -22 q 72 -52 85 -40 q 41 -64 60 -64 z "},"}":{"ha":292,"x_min":0,"x_max":292,"o":"m 102 -98 q 79 -97 91 -98 q 51 -81 60 -94 q 41 -53 41 -68 q 57 -20 41 -33 q 83 -12 68 -12 l 93 -12 q 135 41 131 -12 q 137 96 137 66 q 130 219 137 165 q 124 374 124 292 q 144 516 124 448 q 163 561 152 543 q 193 599 174 578 q 117 916 140 692 q 104 1027 111 977 q 41 1143 85 1140 q 12 1156 23 1143 q 0 1187 0 1168 q 13 1217 1 1205 q 43 1228 26 1228 q 163 1139 128 1224 q 203 926 189 1073 q 220 799 210 862 q 271 631 231 720 q 272 630 272 631 q 275 628 273 629 q 292 596 291 612 q 277 561 292 575 q 241 525 253 541 q 225 491 232 512 q 210 368 210 434 q 217 214 210 304 q 223 98 223 152 q 220 31 223 62 q 102 -98 207 -98 z "},"~":{"ha":502,"x_min":0,"x_max":502,"o":"m 359 189 q 230 222 312 189 q 134 246 171 246 q 73 220 101 246 q 42 208 59 208 q 12 221 25 208 q 0 250 0 234 q 12 281 0 269 q 125 334 69 334 q 164 331 131 334 q 260 302 198 328 q 359 277 319 277 q 428 307 395 277 q 458 320 441 320 q 489 308 475 320 q 502 278 501 295 q 490 248 502 260 q 402 194 446 203 q 359 189 380 189 z "},"":{"ha":172,"x_min":0,"x_max":172,"o":"m 41 -65 q 10 -50 23 -65 q 0 -23 0 -39 l 63 874 q 78 903 65 892 q 107 914 90 914 q 138 899 125 914 q 149 870 149 887 l 85 -25 q 71 -54 83 -43 q 41 -65 58 -65 m 117 947 q 85 963 99 947 q 76 990 76 975 l 86 1109 q 100 1138 87 1128 q 130 1149 113 1149 q 161 1133 149 1149 q 172 1104 172 1121 l 161 987 q 146 958 159 968 q 117 947 134 947 z "},"":{"ha":585,"x_min":0,"x_max":585,"o":"m 187 -131 q 156 -118 168 -131 q 144 -88 144 -105 l 144 -85 q 14 7 48 -83 q 0 93 0 43 q 66 364 0 210 q 176 559 115 477 l 181 669 q 195 699 182 688 q 224 710 207 710 q 255 697 243 710 q 267 667 267 684 l 266 647 q 328 665 295 665 q 384 642 361 665 q 414 560 414 611 q 397 513 414 526 q 370 505 385 505 q 336 521 349 505 q 328 547 328 532 l 329 563 q 328 574 329 568 q 321 580 326 580 q 260 526 311 580 l 235 23 q 506 296 383 101 q 542 315 519 315 q 565 309 553 315 q 585 273 585 296 q 524 171 585 251 q 231 -70 376 -20 l 230 -90 q 216 -120 229 -109 q 187 -131 204 -131 m 149 -1 l 159 201 l 167 378 q 86 94 86 206 q 149 -1 86 1 z "},"":{"ha":464,"x_min":0,"x_max":464,"o":"m 112 -69 q 91 -64 101 -69 q 66 -30 66 -51 q 73 -5 66 -19 q 127 220 127 100 l 127 242 q 109 243 117 243 q 79 232 88 243 q 43 214 64 214 q 19 221 31 214 q 0 256 0 234 q 7 281 0 269 q 106 330 43 330 l 116 330 q 97 401 109 366 q 82 492 82 450 q 92 557 82 527 q 159 654 113 621 q 260 688 205 688 q 397 622 336 688 q 457 507 440 571 q 459 494 459 500 q 452 471 459 484 q 416 452 442 452 q 375 484 385 452 q 333 566 363 529 q 260 602 300 602 q 209 584 233 602 q 174 532 185 566 q 168 493 168 514 q 179 428 168 464 q 206 312 197 370 l 233 304 q 335 282 306 282 q 366 291 355 282 q 391 299 378 299 q 404 298 394 299 q 426 282 414 296 q 435 256 435 270 q 434 244 435 254 q 418 222 433 234 q 338 197 382 197 q 213 221 288 197 q 187 46 213 130 q 334 73 267 73 q 382 70 353 73 q 445 45 411 66 q 464 9 464 31 q 456 -15 464 -3 q 422 -34 443 -34 q 397 -26 409 -34 q 333 -11 370 -11 q 155 -57 273 -11 q 112 -69 125 -69 z "},"":{"ha":738,"x_min":0,"x_max":738,"o":"m 64 26 q 50 27 60 26 q 28 43 40 28 q 20 68 20 55 q 21 81 20 71 q 36 102 22 91 l 153 193 q 119 274 119 229 q 145 359 119 319 l 17 459 q 0 494 0 473 q 9 519 0 507 q 44 536 22 536 q 69 527 57 536 l 207 420 q 371 467 275 467 q 530 424 470 462 l 669 531 q 695 540 682 540 q 708 539 698 540 q 729 524 718 538 q 738 497 738 511 q 737 485 738 494 q 722 463 736 475 l 593 364 q 616 291 616 329 q 576 201 616 241 l 687 115 q 704 81 704 102 q 695 56 704 68 q 661 39 682 39 q 635 47 647 39 l 498 154 q 350 129 435 131 q 232 146 286 129 l 88 35 q 64 26 77 26 m 372 215 q 500 250 453 220 q 530 292 530 270 q 490 348 530 321 q 363 381 441 381 q 247 343 291 378 q 204 277 205 311 q 242 234 205 252 q 350 215 288 215 l 372 215 z "},"":{"ha":459,"x_min":0,"x_max":459,"o":"m 296 -115 q 264 -100 277 -115 q 254 -70 254 -87 q 264 54 260 -9 l 227 54 q 197 66 210 54 q 184 96 184 79 q 197 126 184 114 q 227 139 210 139 l 271 139 l 273 153 l 224 154 q 194 166 206 154 q 181 197 181 179 q 194 227 181 214 q 224 239 206 239 l 279 239 q 293 432 287 337 q 195 314 239 347 q 122 286 157 286 q 0 549 0 286 q 3 633 0 588 q 18 662 5 651 q 47 672 31 672 q 79 657 66 672 q 89 628 89 646 q 85 545 85 582 q 107 389 85 435 q 122 372 116 372 q 143 382 128 372 q 309 646 213 434 q 347 672 321 672 q 366 668 356 672 q 391 627 391 655 q 373 342 385 504 q 366 239 369 291 l 413 239 q 443 227 431 239 q 456 196 456 214 q 443 166 456 178 q 413 153 431 153 l 359 153 l 357 139 l 416 139 q 447 126 434 139 q 459 96 459 114 q 447 66 459 79 q 416 54 434 54 l 351 54 l 340 -75 q 326 -104 338 -94 q 296 -115 313 -115 z "},"":{"ha":124,"x_min":0,"x_max":124,"o":"m 42 -64 q 11 -50 24 -64 q 0 -20 0 -37 l 20 245 q 34 274 22 263 q 64 285 47 285 q 95 270 82 285 q 105 243 105 258 q 86 -24 105 233 q 72 -54 84 -43 q 42 -64 59 -64 m 62 292 q 31 306 43 292 q 20 336 20 319 l 38 612 q 53 641 40 630 q 82 652 65 652 q 113 637 100 652 q 124 608 124 625 l 105 332 q 91 303 104 314 q 62 292 79 292 z "},"":{"ha":334,"x_min":0,"x_max":334,"o":"m 57 -87 q 16 -56 27 -87 q 14 -43 14 -50 q 45 -3 14 -14 q 71 30 71 5 q 41 115 71 52 q 0 256 0 205 q 28 334 0 298 q 144 386 56 370 l 143 389 q 103 533 103 477 q 119 593 103 567 q 288 664 152 651 l 292 664 q 320 654 308 664 q 334 621 334 642 q 324 593 334 606 q 296 579 314 581 q 193 543 208 571 q 189 521 189 533 q 222 423 189 494 q 262 291 262 338 q 251 240 262 270 q 172 188 241 210 q 159 186 165 186 q 119 217 128 186 q 117 229 117 223 q 147 270 117 260 q 174 300 174 279 l 174 304 q 86 251 86 292 q 119 151 88 214 q 160 18 160 63 q 150 -33 160 -3 q 70 -85 139 -63 q 57 -87 63 -87 z "},"":{"ha":277,"x_min":0,"x_max":277,"o":"m 228 815 q 191 833 205 815 q 180 864 180 847 q 199 901 180 887 q 229 911 212 911 q 267 893 254 911 q 277 863 277 880 q 259 825 277 840 q 228 815 245 815 m 49 811 q 9 829 24 811 q 0 859 0 842 q 18 897 0 882 q 47 907 31 907 q 87 888 73 906 q 96 859 96 876 q 79 821 96 836 q 49 811 65 811 z "},"":{"ha":713,"x_min":0,"x_max":713,"o":"m 356 -61 q 159 -11 241 -61 q 36 127 77 40 q 0 287 0 203 q 40 460 0 379 q 176 606 84 551 q 374 654 257 654 q 579 589 498 654 q 682 450 648 534 q 713 295 713 376 q 680 139 712 214 q 569 3 644 57 q 356 -61 485 -58 m 354 25 q 518 73 452 25 q 602 174 575 113 q 627 299 627 232 q 604 418 627 361 q 528 521 578 479 q 376 568 468 568 q 217 529 284 568 q 117 422 150 490 q 85 289 85 359 q 113 164 85 223 q 208 60 143 100 q 354 25 267 25 m 318 70 l 314 70 q 241 109 267 75 q 206 241 206 156 q 223 357 206 297 q 307 494 249 446 q 390 524 345 524 q 476 494 430 524 q 495 458 495 481 q 488 434 495 446 q 452 416 474 416 q 429 422 440 416 q 387 437 406 437 q 360 427 372 437 q 306 333 324 396 q 292 241 292 285 q 294 208 292 224 q 320 156 300 160 q 375 201 330 156 q 449 260 410 239 q 466 263 458 263 q 505 238 492 263 q 509 220 509 229 q 484 181 509 194 q 435 140 471 176 q 318 70 372 70 z "},"":{"ha":374,"x_min":0,"x_max":374,"o":"m 312 357 q 287 366 299 357 q 271 391 275 374 q 267 444 267 413 q 279 615 267 503 q 180 480 212 518 q 105 432 139 432 q 35 468 60 436 q 0 590 0 511 q 20 704 0 646 q 116 829 48 789 q 180 846 146 846 q 219 842 191 846 q 301 795 248 838 q 306 791 304 793 q 329 798 317 798 q 374 719 374 798 q 367 630 374 686 q 353 445 353 498 q 355 399 353 434 q 347 374 355 387 q 312 357 336 357 m 111 517 q 136 555 114 519 q 252 726 175 618 l 246 729 q 178 760 206 760 q 156 754 166 760 q 100 675 119 732 q 85 590 85 631 q 111 517 85 523 z "},"":{"ha":403,"x_min":0,"x_max":403,"o":"m 359 104 q 286 144 334 104 q 225 203 253 171 q 172 309 172 264 q 226 418 172 355 q 331 527 262 463 q 360 538 345 538 q 370 538 361 538 q 391 525 379 538 q 403 496 403 511 q 402 486 403 494 q 389 464 402 477 q 292 363 324 404 q 260 310 260 327 q 291 258 260 294 q 374 186 338 204 q 401 148 401 175 q 398 131 401 140 q 359 104 387 104 m 184 105 q 110 147 159 105 q 51 205 78 173 q 0 310 0 265 q 54 418 0 356 q 159 527 90 463 q 187 538 172 538 q 198 538 189 538 q 219 525 207 538 q 231 496 231 511 q 230 486 231 494 q 217 464 230 477 q 117 360 136 388 q 87 311 87 327 q 117 260 87 295 q 201 187 164 204 q 226 149 226 174 q 222 130 226 140 q 184 105 210 105 z "},"":{"ha":692,"x_min":0,"x_max":692,"o":"m 642 679 q 612 692 624 680 q 601 720 601 704 q 605 883 601 736 l 43 886 q 13 898 24 886 q 0 928 1 910 q 13 959 1 947 q 43 971 25 970 q 661 966 646 968 q 684 953 675 964 q 692 903 692 942 l 691 882 q 686 720 689 827 q 673 690 685 702 q 642 679 661 679 z "},"":{"ha":713,"x_min":0,"x_max":713,"o":"m 354 -44 q 158 6 239 -44 q 36 144 77 56 q 0 304 0 220 q 40 477 0 396 q 176 622 84 567 q 377 671 258 671 q 580 606 498 671 q 683 467 649 550 q 713 312 713 393 q 680 156 712 231 q 569 20 644 74 q 354 -44 486 -41 m 354 41 q 468 62 416 41 q 454 60 461 60 q 336 177 422 60 l 329 98 q 314 70 327 80 q 286 60 302 60 q 254 75 267 60 q 244 105 244 87 q 256 252 251 180 q 243 281 244 263 q 259 316 243 303 q 262 373 261 347 q 239 411 239 388 q 248 435 239 424 q 264 456 256 447 l 264 494 q 276 523 264 509 q 305 536 287 536 q 342 517 329 536 q 405 532 375 532 q 422 531 414 532 q 520 460 491 519 q 534 406 534 434 q 386 252 534 295 q 486 131 431 193 q 497 102 497 118 q 496 92 497 101 q 483 71 496 83 q 469 62 477 65 q 602 191 565 104 q 627 312 627 248 q 604 435 627 376 q 528 537 578 496 q 374 585 468 585 q 217 546 283 585 q 117 438 150 507 q 85 305 85 376 q 113 180 85 239 q 208 77 143 116 q 354 41 267 41 m 346 331 q 448 406 448 353 q 444 423 448 414 q 404 447 431 447 q 349 421 381 447 q 346 331 349 382 z "},"":{"ha":476,"x_min":0,"x_max":476,"o":"m 433 883 l 43 886 q 12 898 24 886 q 0 928 0 910 q 12 959 0 947 q 43 971 24 970 l 433 968 q 464 956 452 968 q 476 926 476 944 q 464 896 476 907 q 433 883 452 884 z "},"":{"ha":231,"x_min":0,"x_max":231,"o":"m 109 787 q 50 803 78 787 q 0 905 0 840 q 19 983 0 948 q 111 1041 52 1041 q 178 1016 146 1041 q 225 942 212 987 q 231 905 231 923 q 213 842 231 873 q 140 791 186 804 q 109 787 124 787 m 108 872 q 119 874 113 872 q 145 905 145 883 q 141 923 145 913 q 111 955 129 955 q 90 930 96 955 q 86 904 86 914 q 87 888 86 897 q 95 876 89 880 q 108 872 101 872 z "},"":{"ha":498,"x_min":0,"x_max":498,"o":"m 245 155 q 215 168 227 155 q 203 199 203 180 l 209 379 l 49 381 q 19 394 31 382 q 6 425 7 406 q 19 454 7 442 q 50 467 31 467 l 211 465 l 216 647 q 230 677 218 665 q 260 688 242 688 q 291 675 279 688 q 302 644 302 663 l 297 464 l 456 462 q 486 449 474 461 q 498 419 498 437 q 486 389 498 401 q 455 376 473 377 l 294 378 l 289 196 q 275 166 288 178 q 245 155 263 155 m 449 61 l 43 66 q 13 79 24 66 q 0 109 1 91 q 13 139 1 127 q 43 151 25 151 l 450 146 q 480 134 468 146 q 492 104 492 122 q 479 74 492 85 q 449 61 467 62 z "},"":{"ha":260,"x_min":0,"x_max":260,"o":"m 184 564 q 41 569 76 564 q 0 614 0 578 q 11 646 0 629 q 50 692 20 659 q 135 806 100 745 q 145 844 145 829 q 142 858 145 852 q 124 867 136 867 q 87 843 105 867 q 51 825 74 825 q 28 831 39 825 q 9 867 9 845 q 16 891 9 880 q 123 953 60 953 q 216 900 184 953 q 231 842 231 876 q 212 769 231 808 q 126 650 175 702 l 150 649 q 210 650 205 649 q 217 650 214 650 q 244 641 231 650 q 260 608 260 629 q 251 581 260 593 q 224 565 241 568 q 184 564 216 564 z "},"":{"ha":278,"x_min":-1,"x_max":277,"o":"m 141 557 q 99 561 130 557 q 16 603 68 564 q -1 637 -1 616 q 7 663 -1 651 q 41 680 22 680 q 68 671 55 680 q 141 643 106 643 q 184 659 167 643 q 192 672 192 665 q 117 709 191 690 q 81 746 81 718 q 115 807 81 773 q 164 869 162 856 q 145 873 155 872 q 111 859 123 873 q 78 845 98 845 q 51 854 64 845 q 36 888 36 868 q 45 915 36 902 q 146 959 83 959 q 243 902 217 959 q 250 873 250 888 q 199 773 250 827 q 277 670 277 734 q 258 613 277 640 q 205 570 239 586 q 141 557 177 557 z "},"":{"ha":250,"x_min":0,"x_max":250,"o":"m 41 802 q 4 826 16 802 q 0 845 0 836 q 23 884 0 871 l 188 966 q 207 970 197 970 q 245 946 233 970 q 250 926 250 937 q 226 888 250 901 l 62 807 q 41 802 52 802 z "},"":{"ha":368,"x_min":0,"x_max":368,"o":"m 42 -93 q 12 -82 24 -92 q 0 -56 0 -71 l 26 663 q 39 688 26 678 q 70 699 52 699 q 100 687 88 697 q 111 661 111 677 l 103 421 q 149 307 115 342 q 188 288 169 288 q 226 307 206 288 q 281 425 261 341 q 298 587 298 489 q 296 648 298 616 q 306 670 296 661 q 330 680 315 679 q 356 671 345 680 q 367 650 366 663 q 368 589 368 618 q 345 392 368 477 q 280 266 322 307 q 189 225 237 225 q 97 264 137 225 l 85 -58 q 72 -83 85 -73 q 42 -93 60 -93 z "},"":{"ha":665,"x_min":0,"x_max":665,"o":"m 472 -93 q 442 -80 454 -92 q 431 -49 431 -67 q 455 781 444 366 l 307 783 q 281 -52 294 366 q 268 -81 280 -70 q 237 -93 256 -93 q 208 -80 219 -92 q 196 -51 196 -68 l 214 572 q 159 564 185 564 q 65 598 113 564 q 3 698 17 631 q 0 724 0 711 q 210 867 0 857 q 312 868 260 868 q 654 850 635 868 q 665 819 665 838 q 652 789 665 801 q 622 777 640 777 q 541 779 581 778 l 516 -52 q 503 -81 515 -70 q 472 -93 490 -93 m 165 651 q 208 664 186 651 q 217 669 212 667 l 220 782 l 212 782 q 86 720 86 776 q 87 712 86 715 q 130 660 93 678 q 165 651 147 651 z "},"":{"ha":96,"x_min":0,"x_max":96,"o":"m 48 256 q 9 274 24 256 q 0 304 0 287 q 18 342 0 328 q 48 352 31 352 q 87 334 73 351 q 96 304 96 321 q 79 266 96 279 q 48 256 65 256 z "},"":{"ha":231,"x_min":0,"x_max":231,"o":"m 104 -374 q 45 -347 73 -374 q 9 -288 21 -323 q 0 -231 0 -259 q 16 -159 0 -194 q 143 -72 51 -88 l 144 -9 q 158 21 146 9 q 189 33 170 33 q 219 19 207 32 q 231 -12 231 7 l 226 -165 q 212 -195 224 -183 q 182 -207 200 -207 q 152 -193 163 -205 q 140 -161 140 -181 q 86 -232 86 -178 q 91 -259 86 -246 q 99 -280 95 -273 q 108 -288 104 -288 q 131 -267 112 -287 q 189 -231 163 -231 q 220 -255 209 -231 q 224 -274 224 -264 q 221 -293 224 -281 q 199 -314 218 -305 q 176 -334 188 -320 q 104 -374 144 -374 z "},"":{"ha":106,"x_min":0,"x_max":106,"o":"m 43 529 q 12 542 24 529 q 0 572 0 555 l 20 939 q 34 968 21 957 q 65 979 47 979 q 94 965 83 978 q 106 934 106 952 q 85 569 95 751 q 72 540 84 551 q 43 529 60 529 z "},"":{"ha":237,"x_min":0,"x_max":237,"o":"m 123 543 l 116 543 q 25 609 63 543 q 0 728 0 656 q 4 770 1 749 q 43 884 15 840 q 138 949 82 945 q 217 890 192 949 q 237 772 237 839 q 206 611 237 680 q 123 543 174 546 m 117 629 l 118 629 q 145 705 133 640 q 152 770 152 743 q 143 847 152 820 q 132 861 138 861 q 98 799 115 861 q 86 727 86 753 q 102 648 86 678 q 117 629 111 629 z "},"":{"ha":403,"x_min":0,"x_max":403,"o":"m 45 104 q 5 131 17 104 q 2 148 2 140 q 28 186 2 175 q 112 258 64 204 q 143 310 143 294 q 112 363 143 327 q 14 464 79 404 q 0 496 0 477 q 11 524 0 511 q 43 538 24 538 q 72 527 59 538 q 177 418 141 463 q 231 309 231 355 q 178 203 231 264 q 118 144 150 171 q 45 104 69 104 m 220 105 q 181 130 193 105 q 177 149 177 140 q 202 187 177 174 q 286 260 239 204 q 316 311 316 295 q 286 360 316 327 q 186 464 268 388 q 172 496 172 477 q 185 525 172 511 q 216 538 197 538 q 244 527 231 538 q 349 418 313 463 q 403 310 403 356 q 352 205 403 265 q 294 147 325 173 q 220 105 244 105 z "},"":{"ha":516,"x_min":0,"x_max":516,"o":"m 52 510 q 22 523 34 510 q 9 555 9 536 l 30 939 q 44 968 31 957 q 75 979 56 979 q 104 965 93 978 q 115 936 115 953 l 96 551 q 82 521 94 532 q 52 510 69 510 m 454 264 q 423 277 435 264 q 411 309 411 290 l 417 430 q 267 437 296 430 q 231 461 241 441 q 225 481 225 471 q 250 532 225 501 l 265 553 q 349 679 327 630 q 389 705 361 705 q 405 701 397 705 q 429 674 424 692 l 430 697 q 444 727 431 715 q 473 738 456 738 q 504 725 492 738 q 516 693 516 711 l 497 304 q 484 275 496 286 q 454 264 471 264 m 421 515 l 428 646 l 427 645 q 346 517 392 572 q 421 515 383 515 m 42 334 q 20 342 31 334 q 0 378 0 355 q 7 401 0 389 l 328 892 q 364 911 341 911 q 387 904 376 911 q 407 868 407 890 q 400 845 407 856 l 79 354 q 42 334 65 334 z "},"":{"ha":505,"x_min":0,"x_max":505,"o":"m 440 302 l 370 302 q 286 307 326 302 q 250 330 262 311 q 244 353 244 341 q 255 385 244 369 q 289 424 279 416 q 337 481 311 449 q 390 581 390 546 q 386 596 390 590 q 369 606 380 606 q 332 581 350 606 q 297 562 319 562 q 273 570 284 562 q 254 605 254 583 q 261 629 254 618 q 368 691 304 691 q 460 638 429 691 q 475 580 475 613 q 456 507 475 547 q 371 388 420 440 q 416 387 389 387 q 438 387 425 387 q 455 388 450 387 q 462 389 459 389 q 489 379 476 389 q 505 346 505 367 q 496 319 505 332 q 469 303 486 306 q 440 302 460 302 m 42 334 q 20 342 31 334 q 0 378 0 355 q 7 401 0 389 l 328 892 q 363 911 342 911 q 387 904 376 911 q 406 868 406 891 q 399 845 406 856 l 79 354 q 42 334 65 334 m 52 510 q 21 523 33 510 q 9 555 9 536 l 30 939 q 44 968 31 957 q 75 979 56 979 q 104 965 93 978 q 115 936 115 953 l 95 551 q 81 521 94 532 q 52 510 69 510 z "},"":{"ha":658,"x_min":0,"x_max":658,"o":"m 184 334 q 161 342 172 334 q 142 378 142 355 q 149 401 142 389 l 470 892 q 506 911 483 911 q 530 904 518 911 q 549 868 549 891 q 542 845 549 856 l 221 354 q 184 334 207 334 m 596 264 q 565 277 577 264 q 553 307 553 290 l 559 430 q 408 437 442 430 q 373 460 384 441 q 368 481 368 469 q 391 532 368 502 q 491 679 469 629 q 530 705 503 705 q 547 701 539 705 q 571 674 566 692 l 572 697 q 586 727 574 715 q 615 738 598 738 q 647 724 634 738 q 658 695 658 712 l 648 481 l 648 475 q 646 463 648 469 l 639 304 q 625 275 637 286 q 596 264 613 264 m 564 515 l 570 645 q 488 517 534 572 q 564 515 526 515 m 141 563 q 100 566 130 563 q 16 608 69 570 q 0 642 0 622 q 8 669 0 656 q 42 686 22 686 q 68 677 56 686 q 142 648 106 648 q 171 654 159 648 q 193 676 193 665 q 130 711 193 696 l 116 714 q 81 751 81 723 q 115 812 81 779 q 151 854 133 831 q 165 875 164 871 q 146 878 159 878 q 112 866 123 878 q 79 850 99 850 q 52 861 64 850 q 37 894 37 873 q 46 921 37 908 q 148 964 84 964 q 170 962 159 964 q 245 907 226 953 q 251 880 251 895 q 200 779 251 836 q 278 677 278 741 q 259 619 278 646 q 206 576 241 592 q 141 563 177 563 z "},"":{"ha":424,"x_min":0,"x_max":424,"o":"m 216 17 q 80 67 140 17 q 16 159 38 102 q 0 253 0 201 q 4 311 0 268 q 51 439 8 355 q 137 567 89 508 q 241 708 209 658 q 305 871 292 785 q 321 899 308 888 q 348 908 333 908 q 382 892 368 908 q 391 866 391 881 l 391 861 q 318 669 375 758 q 231 549 278 607 q 129 404 164 466 q 85 252 85 321 q 96 189 85 216 q 135 133 110 154 q 216 103 170 103 q 339 171 287 103 q 374 188 353 188 q 399 179 387 188 q 416 144 416 165 q 408 119 416 132 q 216 17 328 17 m 371 972 q 338 987 351 972 q 328 1015 328 999 l 338 1134 q 353 1162 340 1152 q 380 1173 365 1173 q 414 1158 401 1173 q 424 1131 424 1146 l 414 1011 q 399 982 412 993 q 371 972 387 972 z "},"":{"ha":850,"x_min":0,"x_max":850,"o":"m 739 1316 q 719 1320 728 1316 l 555 1402 q 531 1440 531 1415 q 536 1459 531 1450 q 574 1483 548 1483 q 593 1479 583 1483 l 758 1397 q 781 1359 781 1385 q 777 1340 781 1350 q 739 1316 764 1316 m 785 -39 q 772 -39 777 -39 q 661 49 702 -26 q 592 337 606 155 q 584 554 584 441 l 585 625 q 404 528 493 587 l 393 522 q 205 164 286 304 q 45 -31 94 -31 q 29 -28 41 -31 q 7 -9 18 -26 q 0 14 0 2 q 21 52 0 38 q 254 444 78 94 l 256 446 q 170 427 210 427 q 104 444 135 427 q 87 475 87 454 q 92 493 87 484 q 123 511 103 511 q 141 505 132 511 q 172 498 155 498 q 310 555 216 498 q 519 1000 425 790 q 641 1286 606 1194 q 664 1312 648 1304 q 682 1316 673 1316 q 720 1295 708 1316 q 727 1271 727 1284 q 720 1206 727 1256 q 677 719 690 998 l 687 719 q 838 658 765 719 q 850 630 850 647 q 841 608 850 618 q 814 595 829 595 q 791 604 802 595 q 684 646 741 646 l 675 646 q 673 550 673 597 q 734 93 673 211 q 785 50 755 55 l 789 50 q 819 35 808 47 q 829 5 829 22 q 814 -29 829 -16 q 785 -39 802 -39 m 450 640 q 587 703 518 680 q 604 972 593 838 q 450 640 535 817 z "},"":{"ha":850,"x_min":0,"x_max":850,"o":"m 626 1316 q 587 1340 600 1316 q 583 1359 583 1350 q 606 1397 583 1385 l 771 1479 q 790 1483 781 1483 q 828 1459 816 1483 q 833 1440 833 1450 q 809 1402 833 1415 l 645 1320 q 626 1316 635 1316 m 785 -39 q 772 -39 777 -39 q 661 49 702 -26 q 592 337 606 155 q 584 554 584 441 l 585 625 q 404 528 493 587 l 393 522 q 205 164 286 304 q 45 -31 94 -31 q 29 -28 41 -31 q 7 -9 18 -26 q 0 14 0 2 q 21 52 0 38 q 254 444 78 94 l 256 446 q 170 427 210 427 q 104 444 135 427 q 87 475 87 454 q 92 493 87 484 q 123 511 103 511 q 141 505 132 511 q 172 498 155 498 q 310 555 216 498 q 519 1000 425 790 q 641 1286 606 1194 q 664 1312 648 1304 q 682 1316 673 1316 q 720 1295 708 1316 q 727 1271 727 1284 q 720 1206 727 1256 q 677 719 690 998 l 687 719 q 838 658 765 719 q 850 630 850 647 q 841 608 850 618 q 814 595 829 595 q 791 604 802 595 q 684 646 741 646 l 675 646 q 673 550 673 597 q 734 93 673 211 q 785 50 755 55 l 789 50 q 819 35 808 47 q 829 5 829 22 q 814 -29 829 -16 q 785 -39 802 -39 m 450 640 q 587 703 518 680 q 604 972 593 838 q 450 640 535 817 z "},"":{"ha":850,"x_min":0,"x_max":850,"o":"m 795 1273 q 755 1299 768 1273 q 693 1417 726 1369 l 677 1438 q 575 1295 644 1410 q 538 1274 562 1274 q 516 1280 527 1274 q 496 1318 496 1293 q 502 1339 496 1329 q 583 1460 549 1418 q 678 1527 633 1527 q 762 1468 718 1527 q 835 1333 802 1411 q 838 1316 838 1324 q 812 1276 838 1289 q 795 1273 804 1273 m 785 -39 q 772 -39 777 -39 q 661 49 702 -26 q 592 337 606 155 q 584 554 584 441 l 585 625 q 404 528 493 587 l 393 522 q 205 164 286 304 q 45 -31 94 -31 q 29 -28 41 -31 q 7 -9 18 -26 q 0 14 0 2 q 21 52 0 38 q 254 444 78 94 l 256 446 q 170 427 210 427 q 104 444 135 427 q 87 475 87 454 q 92 493 87 484 q 123 511 103 511 q 141 505 132 511 q 172 498 155 498 q 310 555 216 498 q 519 1000 425 790 q 641 1286 606 1194 q 664 1312 648 1304 q 682 1316 673 1316 q 720 1295 708 1316 q 727 1271 727 1284 q 720 1206 727 1256 q 677 719 690 998 l 687 719 q 838 658 765 719 q 850 630 850 647 q 841 608 850 618 q 814 595 829 595 q 791 604 802 595 q 684 646 741 646 l 675 646 q 673 550 673 597 q 734 93 673 211 q 785 50 755 55 l 789 50 q 819 35 808 47 q 829 5 829 22 q 814 -29 829 -16 q 785 -39 802 -39 m 450 640 q 587 703 518 680 q 604 972 593 838 q 450 640 535 817 z "},"":{"ha":991,"x_min":0,"x_max":991,"o":"m 848 1297 q 719 1330 801 1297 q 623 1354 660 1354 q 562 1329 590 1354 q 531 1316 548 1316 q 500 1329 514 1316 q 489 1358 489 1342 q 501 1390 489 1377 q 614 1442 558 1442 q 653 1439 620 1442 q 749 1410 687 1436 q 848 1385 808 1385 q 917 1415 884 1385 q 947 1428 930 1428 q 978 1416 964 1428 q 991 1386 990 1403 q 979 1356 991 1369 q 891 1302 935 1312 q 848 1297 869 1297 m 785 -39 q 772 -39 777 -39 q 661 49 702 -26 q 592 337 606 155 q 584 554 584 441 l 585 625 q 404 528 493 587 l 393 522 q 205 164 286 304 q 45 -31 94 -31 q 29 -28 41 -31 q 7 -9 18 -26 q 0 14 0 2 q 21 52 0 38 q 254 444 78 94 l 256 446 q 170 427 210 427 q 104 444 135 427 q 87 475 87 454 q 92 493 87 484 q 123 511 103 511 q 141 505 132 511 q 172 498 155 498 q 310 555 216 498 q 519 1000 425 790 q 641 1286 606 1194 q 664 1312 648 1304 q 682 1316 673 1316 q 720 1295 708 1316 q 727 1271 727 1284 q 720 1206 727 1256 q 677 719 690 998 l 687 719 q 838 658 765 719 q 850 630 850 647 q 841 608 850 618 q 814 595 829 595 q 791 604 802 595 q 684 646 741 646 l 675 646 q 673 550 673 597 q 734 93 673 211 q 785 50 755 55 l 789 50 q 819 35 808 47 q 829 5 829 22 q 814 -29 829 -16 q 785 -39 802 -39 m 450 640 q 587 703 518 680 q 604 972 593 838 q 450 640 535 817 z "},"":{"ha":850,"x_min":0,"x_max":850,"o":"m 774 1310 q 737 1328 752 1310 q 727 1358 727 1341 q 745 1396 727 1381 q 775 1406 758 1406 q 814 1388 801 1405 q 824 1358 824 1375 q 806 1320 824 1334 q 774 1310 792 1310 m 595 1305 q 556 1323 571 1305 q 547 1353 547 1337 q 564 1392 547 1377 q 594 1401 578 1401 q 633 1383 620 1400 q 643 1354 643 1370 q 625 1315 643 1330 q 595 1305 612 1305 m 785 -39 q 772 -39 777 -39 q 661 49 702 -26 q 592 337 606 155 q 584 554 584 441 l 585 625 q 404 528 493 587 l 393 522 q 205 164 286 304 q 45 -31 94 -31 q 29 -28 41 -31 q 7 -9 18 -26 q 0 14 0 2 q 21 52 0 38 q 254 444 78 94 l 256 446 q 170 427 210 427 q 104 444 135 427 q 87 475 87 454 q 92 493 87 484 q 123 511 103 511 q 141 505 132 511 q 172 498 155 498 q 310 555 216 498 q 519 1000 425 790 q 641 1286 606 1194 q 664 1312 648 1304 q 682 1316 673 1316 q 720 1295 708 1316 q 727 1271 727 1284 q 720 1206 727 1256 q 677 719 690 998 l 687 719 q 838 658 765 719 q 850 630 850 647 q 841 608 850 618 q 814 595 829 595 q 791 604 802 595 q 684 646 741 646 l 675 646 q 673 550 673 597 q 734 93 673 211 q 785 50 755 55 l 789 50 q 819 35 808 47 q 829 5 829 22 q 814 -29 829 -16 q 785 -39 802 -39 m 450 640 q 587 703 518 680 q 604 972 593 838 q 450 640 535 817 z "},"":{"ha":850,"x_min":0,"x_max":850,"o":"m 696 1336 q 637 1352 666 1336 q 588 1455 588 1389 q 607 1533 588 1497 q 699 1590 640 1590 q 766 1565 734 1590 q 813 1491 800 1536 q 819 1455 819 1472 q 801 1392 819 1422 q 728 1340 774 1353 q 696 1336 712 1336 m 696 1421 q 707 1423 701 1421 q 733 1454 733 1432 q 729 1472 733 1463 q 699 1504 717 1504 q 677 1479 684 1504 q 674 1453 674 1463 q 675 1437 674 1446 q 683 1425 677 1429 q 696 1421 689 1421 m 785 -39 q 772 -39 777 -39 q 661 49 702 -26 q 592 337 606 155 q 584 554 584 441 l 585 625 q 404 528 493 587 l 393 522 q 205 164 286 304 q 45 -31 94 -31 q 29 -28 41 -31 q 7 -9 18 -26 q 0 14 0 2 q 21 52 0 38 q 254 444 78 94 l 256 446 q 170 427 210 427 q 104 444 135 427 q 87 475 87 454 q 92 493 87 484 q 123 511 103 511 q 141 505 132 511 q 172 498 155 498 q 310 555 216 498 q 519 1000 425 790 q 641 1286 606 1194 q 664 1312 648 1304 q 682 1316 673 1316 q 720 1295 708 1316 q 727 1271 727 1284 q 720 1206 727 1256 q 677 719 690 998 l 687 719 q 838 658 765 719 q 850 630 850 647 q 841 608 850 618 q 814 595 829 595 q 791 604 802 595 q 684 646 741 646 l 675 646 q 673 550 673 597 q 734 93 673 211 q 785 50 755 55 l 789 50 q 819 35 808 47 q 829 5 829 22 q 814 -29 829 -16 q 785 -39 802 -39 m 450 640 q 587 703 518 680 q 604 972 593 838 q 450 640 535 817 z "},"":{"ha":1527,"x_min":0,"x_max":1527,"o":"m 785 -39 q 772 -39 777 -39 q 661 49 702 -26 q 592 337 606 155 q 584 554 584 441 l 585 625 q 404 528 493 587 l 393 522 q 205 164 286 304 q 45 -31 94 -31 q 29 -28 41 -31 q 7 -9 18 -26 q 0 14 0 2 q 21 52 0 38 q 254 444 78 94 l 256 446 q 170 427 210 427 q 104 444 135 427 q 87 475 87 454 q 92 493 87 484 q 123 511 103 511 q 141 505 132 511 q 172 498 155 498 q 310 555 216 498 q 519 1000 425 790 q 641 1286 606 1194 q 664 1312 648 1304 q 682 1316 673 1316 q 720 1295 708 1316 q 727 1271 727 1284 q 720 1206 727 1256 q 677 719 690 998 l 687 719 q 838 658 765 719 q 850 630 850 647 q 841 608 850 618 q 814 595 829 595 q 791 604 802 595 q 684 646 741 646 l 675 646 q 673 550 673 597 q 734 93 673 211 q 785 50 755 55 l 789 50 q 819 35 808 47 q 829 5 829 22 q 814 -29 829 -16 q 785 -39 802 -39 m 450 640 q 587 703 518 680 q 604 972 593 838 q 450 640 535 817 m 1095 -25 q 1018 -14 1062 -25 q 925 41 975 -2 q 835 184 865 98 q 806 360 806 267 q 839 551 806 459 q 930 700 869 637 q 1065 785 985 757 q 981 1076 981 952 q 984 1133 981 1087 q 1025 1227 987 1179 q 1173 1297 1082 1297 q 1306 1256 1241 1297 q 1421 1119 1379 1211 q 1425 1101 1425 1109 q 1398 1061 1425 1073 q 1379 1057 1388 1057 q 1339 1084 1351 1057 q 1265 1175 1312 1143 q 1171 1207 1219 1207 q 1098 1175 1127 1207 q 1068 1075 1068 1143 q 1098 933 1068 1018 q 1171 779 1123 863 q 1177 757 1177 768 q 1124 709 1177 718 q 924 520 979 673 q 896 359 896 441 q 916 223 896 288 q 979 115 936 158 q 1095 64 1035 64 q 1122 66 1109 64 q 1273 138 1203 81 q 1447 323 1358 206 q 1481 341 1460 341 q 1509 332 1496 341 q 1527 298 1527 319 q 1518 270 1527 283 q 1328 68 1423 144 q 1138 -22 1240 -2 q 1095 -25 1117 -25 z "},"":{"ha":1326,"x_min":0,"x_max":1326,"o":"m 895 -25 q 818 -14 861 -25 q 724 41 774 -2 q 634 184 664 98 q 606 360 606 267 q 638 551 606 459 q 729 700 669 637 q 865 785 784 757 q 781 1076 781 952 q 784 1133 781 1087 q 825 1227 787 1179 q 972 1297 882 1297 q 1105 1256 1040 1297 q 1220 1119 1178 1211 q 1224 1101 1224 1109 q 1197 1061 1224 1073 q 1179 1057 1187 1057 q 1139 1084 1150 1057 q 1064 1175 1111 1143 q 970 1207 1018 1207 q 897 1175 926 1207 q 867 1075 867 1143 q 897 933 867 1018 q 970 779 922 863 q 976 757 976 768 q 924 709 976 718 q 723 520 778 673 q 695 359 695 441 q 715 223 695 288 q 779 115 735 158 q 895 64 834 64 q 922 66 908 64 q 1072 138 1002 81 q 1246 323 1157 206 q 1280 341 1259 341 q 1308 332 1295 341 q 1326 298 1326 319 q 1317 270 1326 283 q 1127 68 1222 144 q 937 -22 1040 -2 q 895 -25 916 -25 m 252 -30 q 124 24 174 -28 q 11 286 37 113 q 0 412 0 352 q 42 728 0 549 q 62 756 47 747 q 85 762 73 762 q 106 758 98 762 q 97 891 97 829 q 121 1068 97 991 q 203 1218 151 1163 q 341 1284 267 1284 q 537 1133 459 1284 q 610 737 610 983 l 610 720 q 533 243 602 442 q 415 48 491 125 q 252 -30 339 -28 m 255 59 q 369 124 317 60 q 449 273 420 189 q 522 754 517 471 q 460 1092 522 963 q 342 1192 412 1192 q 331 1192 336 1192 q 210 1057 254 1180 q 186 892 186 985 q 336 421 186 630 q 344 396 344 409 q 342 381 344 392 q 325 359 340 370 q 299 351 313 351 q 285 352 295 351 q 263 370 275 354 q 122 676 163 509 q 89 409 89 524 q 129 182 89 291 q 255 59 172 66 z "},"":{"ha":761,"x_min":0,"x_max":761,"o":"m 219 -17 q 71 87 123 3 q 0 379 0 197 q 84 843 0 599 q 186 1071 127 968 q 458 1298 315 1298 q 595 1232 532 1298 q 607 1201 607 1218 q 606 1191 607 1200 q 592 1169 606 1181 q 562 1157 578 1157 q 551 1158 561 1157 q 529 1172 542 1158 q 459 1208 495 1208 q 370 1167 415 1208 q 260 1022 312 1115 q 169 814 208 929 q 90 371 90 585 q 144 140 90 227 q 292 65 192 65 q 466 135 363 65 q 682 335 571 207 q 716 351 696 351 q 745 340 732 351 q 761 306 761 326 q 750 277 761 290 q 516 62 630 140 q 304 -23 403 -16 l 300 -165 q 287 -195 299 -183 q 256 -207 275 -207 q 227 -193 238 -205 q 215 -161 215 -181 q 161 -232 161 -178 q 165 -259 161 -246 q 174 -280 170 -273 q 182 -288 178 -288 q 205 -267 186 -287 q 263 -231 238 -231 q 295 -255 283 -231 q 299 -274 299 -264 q 296 -293 299 -281 q 274 -314 292 -305 q 250 -334 262 -320 q 179 -374 218 -374 q 120 -347 148 -374 q 84 -288 96 -323 q 75 -231 75 -259 q 91 -159 75 -194 q 218 -72 125 -88 l 219 -17 z "},"":{"ha":720,"x_min":0,"x_max":720,"o":"m 458 1316 q 438 1320 448 1316 l 274 1402 q 250 1440 250 1415 q 255 1459 250 1450 q 293 1483 267 1483 q 312 1479 302 1483 l 477 1397 q 500 1359 500 1385 q 496 1340 500 1350 q 458 1316 484 1316 m 289 -25 q 212 -14 256 -25 q 119 41 168 -2 q 28 184 58 98 q 0 360 0 267 q 33 551 0 459 q 123 700 63 637 q 259 785 178 757 q 175 1076 175 952 q 178 1133 175 1087 q 219 1227 181 1179 q 367 1297 276 1297 q 500 1256 435 1297 q 614 1119 572 1211 q 618 1101 618 1109 q 591 1061 618 1073 q 573 1057 582 1057 q 533 1084 545 1057 q 459 1175 505 1143 q 365 1207 412 1207 q 291 1175 321 1207 q 262 1075 262 1143 q 292 933 262 1018 q 364 779 317 863 q 370 757 370 768 q 318 709 370 718 q 117 520 172 673 q 90 359 90 441 q 110 223 90 288 q 173 115 130 158 q 289 64 229 64 q 316 66 302 64 q 467 138 397 81 q 640 323 551 206 q 675 341 654 341 q 703 332 690 341 q 720 298 720 319 q 711 270 720 283 q 522 68 616 144 q 332 -22 434 -2 q 289 -25 311 -25 z "},"":{"ha":720,"x_min":0,"x_max":720,"o":"m 287 1316 q 248 1340 260 1316 q 244 1359 244 1350 q 267 1397 244 1385 l 432 1479 q 451 1483 441 1483 q 489 1459 477 1483 q 494 1440 494 1450 q 470 1402 494 1415 l 306 1320 q 287 1316 296 1316 m 289 -25 q 212 -14 256 -25 q 119 41 168 -2 q 28 184 58 98 q 0 360 0 267 q 33 551 0 459 q 123 700 63 637 q 259 785 178 757 q 175 1076 175 952 q 178 1133 175 1087 q 219 1227 181 1179 q 367 1297 276 1297 q 500 1256 435 1297 q 614 1119 572 1211 q 618 1101 618 1109 q 591 1061 618 1073 q 573 1057 582 1057 q 533 1084 545 1057 q 459 1175 505 1143 q 365 1207 412 1207 q 291 1175 321 1207 q 262 1075 262 1143 q 292 933 262 1018 q 364 779 317 863 q 370 757 370 768 q 318 709 370 718 q 117 520 172 673 q 90 359 90 441 q 110 223 90 288 q 173 115 130 158 q 289 64 229 64 q 316 66 302 64 q 467 138 397 81 q 640 323 551 206 q 675 341 654 341 q 703 332 690 341 q 720 298 720 319 q 711 270 720 283 q 522 68 616 144 q 332 -22 434 -2 q 289 -25 311 -25 z "},"":{"ha":720,"x_min":0,"x_max":720,"o":"m 525 1294 q 486 1320 498 1294 q 423 1438 456 1390 l 408 1459 q 305 1316 374 1431 q 269 1295 292 1295 q 246 1301 257 1295 q 226 1339 226 1314 q 232 1360 226 1350 q 313 1481 279 1439 q 408 1548 363 1548 q 492 1489 448 1548 q 565 1354 532 1432 q 568 1337 568 1345 q 542 1297 568 1310 q 525 1294 534 1294 m 289 -25 q 212 -14 256 -25 q 119 41 168 -2 q 28 184 58 98 q 0 360 0 267 q 33 551 0 459 q 123 700 63 637 q 259 785 178 757 q 175 1076 175 952 q 178 1133 175 1087 q 219 1227 181 1179 q 367 1297 276 1297 q 500 1256 435 1297 q 614 1119 572 1211 q 618 1101 618 1109 q 591 1061 618 1073 q 573 1057 582 1057 q 533 1084 545 1057 q 459 1175 505 1143 q 365 1207 412 1207 q 291 1175 321 1207 q 262 1075 262 1143 q 292 933 262 1018 q 364 779 317 863 q 370 757 370 768 q 318 709 370 718 q 117 520 172 673 q 90 359 90 441 q 110 223 90 288 q 173 115 130 158 q 289 64 229 64 q 316 66 302 64 q 467 138 397 81 q 640 323 551 206 q 675 341 654 341 q 703 332 690 341 q 720 298 720 319 q 711 270 720 283 q 522 68 616 144 q 332 -22 434 -2 q 289 -25 311 -25 z "},"":{"ha":720,"x_min":0,"x_max":720,"o":"m 446 1310 q 409 1328 424 1310 q 399 1358 399 1341 q 417 1396 399 1381 q 447 1406 430 1406 q 486 1388 473 1405 q 496 1358 496 1375 q 477 1320 496 1334 q 446 1310 464 1310 m 267 1305 q 228 1323 243 1305 q 218 1353 218 1337 q 236 1392 218 1377 q 266 1401 250 1401 q 305 1383 292 1400 q 315 1354 315 1370 q 297 1315 315 1330 q 267 1305 283 1305 m 289 -25 q 212 -14 256 -25 q 119 41 168 -2 q 28 184 58 98 q 0 360 0 267 q 33 551 0 459 q 123 700 63 637 q 259 785 178 757 q 175 1076 175 952 q 178 1133 175 1087 q 219 1227 181 1179 q 367 1297 276 1297 q 500 1256 435 1297 q 614 1119 572 1211 q 618 1101 618 1109 q 591 1061 618 1073 q 573 1057 582 1057 q 533 1084 545 1057 q 459 1175 505 1143 q 365 1207 412 1207 q 291 1175 321 1207 q 262 1075 262 1143 q 292 933 262 1018 q 364 779 317 863 q 370 757 370 768 q 318 709 370 718 q 117 520 172 673 q 90 359 90 441 q 110 223 90 288 q 173 115 130 158 q 289 64 229 64 q 316 66 302 64 q 467 138 397 81 q 640 323 551 206 q 675 341 654 341 q 703 332 690 341 q 720 298 720 319 q 711 270 720 283 q 522 68 616 144 q 332 -22 434 -2 q 289 -25 311 -25 z "},"":{"ha":294,"x_min":0,"x_max":294,"o":"m 245 1310 q 208 1328 222 1310 q 197 1358 197 1341 q 216 1396 197 1381 q 245 1406 229 1406 q 284 1388 271 1405 q 294 1358 294 1375 q 276 1320 294 1334 q 245 1310 262 1310 m 66 1305 q 26 1323 41 1305 q 17 1353 17 1337 q 35 1392 17 1377 q 64 1401 48 1401 q 104 1383 90 1400 q 113 1354 113 1370 q 96 1315 113 1330 q 66 1305 82 1305 m 74 -29 q 63 -29 73 -29 q 41 -15 54 -28 q 6 93 16 15 q 0 227 0 153 q 8 419 0 313 q 62 899 28 662 q 115 1253 88 1084 q 133 1282 119 1272 q 160 1291 145 1291 q 195 1273 182 1291 q 204 1247 204 1261 l 151 892 q 93 410 115 649 q 82 205 82 291 q 107 45 82 74 q 119 16 119 32 q 118 5 119 14 q 104 -18 118 -4 q 74 -29 91 -29 z "},"":{"ha":294,"x_min":0,"x_max":294,"o":"m 245 1310 q 208 1328 222 1310 q 197 1358 197 1341 q 216 1396 197 1381 q 245 1406 229 1406 q 284 1388 271 1405 q 294 1358 294 1375 q 276 1320 294 1334 q 245 1310 262 1310 m 66 1305 q 26 1323 41 1305 q 17 1353 17 1337 q 35 1392 17 1377 q 64 1401 48 1401 q 104 1383 90 1400 q 113 1354 113 1370 q 96 1315 113 1330 q 66 1305 82 1305 m 74 -29 q 63 -29 73 -29 q 41 -15 54 -28 q 6 93 16 15 q 0 227 0 153 q 8 419 0 313 q 62 899 28 662 q 115 1253 88 1084 q 133 1282 119 1272 q 160 1291 145 1291 q 195 1273 182 1291 q 204 1247 204 1261 l 151 892 q 93 410 115 649 q 82 205 82 291 q 107 45 82 74 q 119 16 119 32 q 118 5 119 14 q 104 -18 118 -4 q 74 -29 91 -29 z "},"":{"ha":300,"x_min":0,"x_max":300,"o":"m 250 1310 q 213 1328 228 1310 q 203 1358 203 1341 q 221 1396 203 1381 q 251 1406 234 1406 q 290 1388 277 1405 q 300 1358 300 1375 q 281 1320 300 1334 q 250 1310 268 1310 m 71 1305 q 32 1323 47 1305 q 22 1353 22 1337 q 40 1392 22 1377 q 70 1401 54 1401 q 109 1383 96 1400 q 119 1354 119 1370 q 101 1315 119 1330 q 71 1305 87 1305 m 74 -29 q 63 -29 73 -29 q 41 -15 54 -28 q 6 93 16 15 q 0 227 0 153 q 8 419 0 313 q 62 899 28 662 q 115 1253 88 1084 q 133 1282 119 1272 q 160 1291 145 1291 q 195 1273 182 1291 q 204 1247 204 1261 l 151 892 q 93 410 115 649 q 82 205 82 291 q 107 45 82 74 q 119 16 119 32 q 118 5 119 14 q 104 -18 118 -4 q 74 -29 91 -29 z "},"":{"ha":305,"x_min":0,"x_max":305,"o":"m 256 1310 q 218 1328 233 1310 q 208 1358 208 1341 q 227 1396 208 1381 q 256 1406 239 1406 q 295 1388 282 1405 q 305 1358 305 1375 q 287 1320 305 1334 q 256 1310 273 1310 m 77 1305 q 37 1323 52 1305 q 28 1353 28 1337 q 45 1392 28 1377 q 75 1401 59 1401 q 115 1383 101 1400 q 124 1354 124 1370 q 106 1315 124 1330 q 77 1305 93 1305 m 74 -29 q 63 -29 73 -29 q 41 -15 54 -28 q 6 93 16 15 q 0 227 0 153 q 8 419 0 313 q 62 899 28 662 q 115 1253 88 1084 q 133 1282 119 1272 q 160 1291 145 1291 q 195 1273 182 1291 q 204 1247 204 1261 l 151 892 q 93 410 115 649 q 82 205 82 291 q 107 45 82 74 q 119 16 119 32 q 118 5 119 14 q 104 -18 118 -4 q 74 -29 91 -29 z "},"":{"ha":857,"x_min":0,"x_max":857,"o":"m 470 -27 q 395 -11 435 -27 q 368 28 368 1 q 371 45 368 37 q 412 72 382 72 q 429 68 420 72 q 467 60 448 60 q 563 111 517 60 q 642 237 610 166 q 760 680 731 435 q 768 824 768 754 q 764 920 768 855 q 734 1061 761 985 q 546 1215 678 1215 q 395 1174 470 1215 q 266 1074 321 1135 q 180 907 191 992 q 165 879 178 889 q 136 868 152 868 q 101 883 115 868 q 91 911 91 895 l 91 915 q 207 1139 106 1036 q 368 1256 277 1212 q 553 1301 458 1301 q 709 1248 638 1301 q 821 1076 781 1195 q 857 812 857 964 q 849 671 857 743 q 719 192 819 399 q 470 -27 616 -21 m 294 376 q 288 207 288 279 q 290 128 288 182 q 311 50 292 74 q 321 22 321 37 q 321 12 321 21 q 307 -9 320 2 q 277 -21 293 -21 q 266 -20 276 -21 q 243 -6 256 -20 q 203 134 211 32 q 200 232 200 179 q 205 376 200 294 l 43 378 q 13 391 24 379 q 0 421 1 404 q 13 452 1 439 q 43 464 25 464 l 212 462 q 268 943 228 658 q 284 971 271 962 q 312 981 297 981 q 348 964 334 981 q 357 939 357 953 l 356 932 q 301 461 318 656 l 450 459 q 480 446 468 458 q 492 416 492 434 q 479 386 492 398 q 449 374 467 374 l 294 376 z "},"":{"ha":768,"x_min":0,"x_max":768,"o":"m 76 -25 q 65 -25 75 -25 q 43 -11 56 -24 q 0 235 0 40 q 13 498 0 361 q 64 903 37 735 l 117 1257 q 134 1286 120 1276 q 161 1295 146 1295 q 197 1277 184 1295 q 206 1250 206 1265 l 205 1244 q 159 939 186 1131 q 210 1060 183 1002 q 320 1221 258 1162 q 458 1289 391 1289 q 627 890 627 1289 q 616 655 627 785 q 593 436 604 538 q 564 104 564 194 q 570 34 564 60 q 572 22 572 28 q 564 -3 572 10 q 526 -22 552 -22 q 502 -14 515 -22 q 484 12 489 -7 q 475 104 475 47 q 504 446 475 201 q 527 663 517 558 q 538 889 538 789 q 526 1067 538 992 q 450 1198 505 1198 q 363 1139 410 1198 q 291 1023 321 1088 q 217 841 252 938 q 93 385 115 573 q 81 203 81 283 q 85 117 81 162 q 109 50 90 72 q 120 20 120 36 q 120 9 120 18 q 106 -14 119 0 q 76 -25 92 -25 m 625 1278 q 496 1311 578 1278 q 400 1335 437 1335 q 338 1310 367 1335 q 308 1297 325 1297 q 277 1310 291 1297 q 266 1339 266 1323 q 278 1371 266 1358 q 391 1423 335 1423 q 430 1420 397 1423 q 526 1391 464 1417 q 625 1366 585 1366 q 694 1396 661 1366 q 724 1409 707 1409 q 755 1397 741 1409 q 768 1367 767 1384 q 755 1337 768 1350 q 668 1283 711 1293 q 625 1278 646 1278 z "},"":{"ha":610,"x_min":0,"x_max":610,"o":"m 401 1316 q 381 1320 391 1316 l 217 1402 q 193 1440 193 1415 q 198 1459 193 1450 q 236 1483 210 1483 q 255 1479 245 1483 l 420 1397 q 443 1359 443 1385 q 439 1340 443 1350 q 401 1316 427 1316 m 252 -30 q 124 24 174 -28 q 11 286 37 113 q 0 412 0 352 q 42 728 0 549 q 62 756 47 747 q 85 762 73 762 q 106 758 98 762 q 97 891 97 829 q 121 1068 97 991 q 203 1218 151 1163 q 341 1284 267 1284 q 537 1133 459 1284 q 610 737 610 983 l 610 720 q 533 243 602 442 q 415 48 491 125 q 252 -30 339 -28 m 255 59 q 369 124 317 60 q 449 273 420 189 q 522 754 517 471 q 460 1092 522 963 q 342 1192 412 1192 q 331 1192 336 1192 q 210 1057 254 1180 q 186 892 186 985 q 336 421 186 630 q 344 396 344 409 q 342 381 344 392 q 325 359 340 370 q 299 351 313 351 q 285 352 295 351 q 263 370 275 354 q 122 676 163 509 q 89 409 89 524 q 129 182 89 291 q 255 59 172 66 z "},"":{"ha":610,"x_min":0,"x_max":610,"o":"m 297 1316 q 258 1340 271 1316 q 254 1359 254 1350 q 277 1397 254 1385 l 442 1479 q 461 1483 452 1483 q 499 1459 487 1483 q 504 1440 504 1450 q 480 1402 504 1415 l 316 1320 q 297 1316 307 1316 m 252 -30 q 124 24 174 -28 q 11 286 37 113 q 0 412 0 352 q 42 728 0 549 q 62 756 47 747 q 85 762 73 762 q 106 758 98 762 q 97 891 97 829 q 121 1068 97 991 q 203 1218 151 1163 q 341 1284 267 1284 q 537 1133 459 1284 q 610 737 610 983 l 610 720 q 533 243 602 442 q 415 48 491 125 q 252 -30 339 -28 m 255 59 q 369 124 317 60 q 449 273 420 189 q 522 754 517 471 q 460 1092 522 963 q 342 1192 412 1192 q 331 1192 336 1192 q 210 1057 254 1180 q 186 892 186 985 q 336 421 186 630 q 344 396 344 409 q 342 381 344 392 q 325 359 340 370 q 299 351 313 351 q 285 352 295 351 q 263 370 275 354 q 122 676 163 509 q 89 409 89 524 q 129 182 89 291 q 255 59 172 66 z "},"":{"ha":610,"x_min":0,"x_max":610,"o":"m 468 1273 q 429 1299 441 1273 q 366 1417 399 1369 l 351 1438 q 248 1295 317 1410 q 212 1274 235 1274 q 189 1280 200 1274 q 169 1318 169 1293 q 175 1339 169 1329 q 256 1460 222 1418 q 351 1527 307 1527 q 435 1468 391 1527 q 508 1333 475 1411 q 511 1316 511 1324 q 485 1276 511 1289 q 468 1273 477 1273 m 252 -30 q 124 24 174 -28 q 11 286 37 113 q 0 412 0 352 q 42 728 0 549 q 62 756 47 747 q 85 762 73 762 q 106 758 98 762 q 97 891 97 829 q 121 1068 97 991 q 203 1218 151 1163 q 341 1284 267 1284 q 537 1133 459 1284 q 610 737 610 983 l 610 720 q 533 243 602 442 q 415 48 491 125 q 252 -30 339 -28 m 255 59 q 369 124 317 60 q 449 273 420 189 q 522 754 517 471 q 460 1092 522 963 q 342 1192 412 1192 q 331 1192 336 1192 q 210 1057 254 1180 q 186 892 186 985 q 336 421 186 630 q 344 396 344 409 q 342 381 344 392 q 325 359 340 370 q 299 351 313 351 q 285 352 295 351 q 263 370 275 354 q 122 676 163 509 q 89 409 89 524 q 129 182 89 291 q 255 59 172 66 z "},"":{"ha":663,"x_min":0,"x_max":663,"o":"m 520 1297 q 391 1330 473 1297 q 296 1354 332 1354 q 234 1329 262 1354 q 203 1316 220 1316 q 173 1329 186 1316 q 161 1358 161 1342 q 174 1390 161 1377 q 287 1442 231 1442 q 326 1439 292 1442 q 421 1410 359 1436 q 521 1385 480 1385 q 589 1415 557 1385 q 620 1428 602 1428 q 650 1416 637 1428 q 663 1386 663 1403 q 651 1356 663 1369 q 564 1302 607 1312 q 520 1297 542 1297 m 252 -30 q 124 24 174 -28 q 11 286 37 113 q 0 412 0 352 q 42 728 0 549 q 62 756 47 747 q 85 762 73 762 q 106 758 98 762 q 97 891 97 829 q 121 1068 97 991 q 203 1218 151 1163 q 341 1284 267 1284 q 537 1133 459 1284 q 610 737 610 983 l 610 720 q 533 243 602 442 q 415 48 491 125 q 252 -30 339 -28 m 255 59 q 369 124 317 60 q 449 273 420 189 q 522 754 517 471 q 460 1092 522 963 q 342 1192 412 1192 q 331 1192 336 1192 q 210 1057 254 1180 q 186 892 186 985 q 336 421 186 630 q 344 396 344 409 q 342 381 344 392 q 325 359 340 370 q 299 351 313 351 q 285 352 295 351 q 263 370 275 354 q 122 676 163 509 q 89 409 89 524 q 129 182 89 291 q 255 59 172 66 z "},"":{"ha":610,"x_min":0,"x_max":610,"o":"m 444 1310 q 406 1328 421 1310 q 396 1358 396 1341 q 414 1396 396 1381 q 444 1406 427 1406 q 483 1388 470 1405 q 493 1358 493 1375 q 475 1320 493 1334 q 444 1310 461 1310 m 264 1305 q 225 1323 240 1305 q 216 1353 216 1337 q 233 1392 216 1377 q 263 1401 247 1401 q 302 1383 289 1400 q 312 1354 312 1370 q 294 1315 312 1330 q 264 1305 281 1305 m 252 -30 q 124 24 174 -28 q 11 286 37 113 q 0 412 0 352 q 42 728 0 549 q 62 756 47 747 q 85 762 73 762 q 106 758 98 762 q 97 891 97 829 q 121 1068 97 991 q 203 1218 151 1163 q 341 1284 267 1284 q 537 1133 459 1284 q 610 737 610 983 l 610 720 q 533 243 602 442 q 415 48 491 125 q 252 -30 339 -28 m 255 59 q 369 124 317 60 q 449 273 420 189 q 522 754 517 471 q 460 1092 522 963 q 342 1192 412 1192 q 331 1192 336 1192 q 210 1057 254 1180 q 186 892 186 985 q 336 421 186 630 q 344 396 344 409 q 342 381 344 392 q 325 359 340 370 q 299 351 313 351 q 285 352 295 351 q 263 370 275 354 q 122 676 163 509 q 89 409 89 524 q 129 182 89 291 q 255 59 172 66 z "},"":{"ha":633,"x_min":0,"x_max":633,"o":"m 364 538 q 633 -13 633 -7 q 599 -56 633 -49 l 591 -56 q 552 -33 565 -56 q 317 442 417 240 q 81 -33 216 240 q 43 -56 68 -56 l 35 -56 q 0 -13 0 -49 q 269 538 0 -7 q 31 1023 31 1021 q 30 1031 30 1027 q 64 1074 30 1066 l 71 1074 q 111 1050 98 1074 q 317 635 227 817 q 522 1050 407 817 q 562 1074 536 1074 l 569 1074 q 604 1031 604 1066 q 603 1023 604 1027 q 364 538 602 1021 z "},"":{"ha":884,"x_min":0,"x_max":884,"o":"m 321 495 q 256 676 279 581 q 222 409 222 524 l 222 390 q 321 495 267 438 m 742 819 q 744 737 744 779 l 744 720 q 667 243 736 442 q 549 48 625 125 q 385 -30 473 -28 q 258 24 308 -28 q 162 201 193 90 q 74 107 119 155 q 47 94 61 94 l 43 94 q 22 98 31 94 q 0 136 0 111 q 5 157 0 148 q 142 304 5 158 q 134 412 134 360 q 176 728 134 549 q 196 756 180 747 q 219 762 207 762 q 240 758 231 762 q 231 891 231 829 q 255 1068 231 991 q 337 1218 284 1163 q 475 1284 400 1284 q 671 1133 593 1284 q 730 931 712 1048 q 810 1016 769 972 q 837 1029 823 1029 q 861 1025 851 1029 q 884 991 884 1013 q 880 967 884 977 q 742 819 879 966 m 235 279 q 262 182 245 230 q 389 59 306 66 q 502 124 450 60 q 583 273 554 189 q 654 726 648 460 q 428 484 561 626 q 469 421 447 452 q 477 396 477 409 q 476 381 477 392 q 458 359 474 370 q 433 351 446 351 q 418 352 429 351 q 397 370 408 354 q 365 417 380 393 q 235 279 304 352 m 387 565 q 652 848 502 688 q 594 1092 641 994 q 476 1192 545 1192 q 465 1192 470 1192 q 344 1057 388 1180 q 319 892 319 985 q 387 565 319 717 z "},"":{"ha":627,"x_min":0,"x_max":627,"o":"m 338 1316 q 319 1320 328 1316 l 155 1402 q 131 1440 131 1415 q 136 1459 131 1450 q 174 1483 148 1483 q 193 1479 183 1483 l 357 1397 q 380 1359 380 1385 q 376 1340 380 1350 q 338 1316 364 1316 m 465 -33 q 430 -14 444 -33 q 422 13 422 -2 q 435 102 422 18 q 469 323 452 212 q 418 202 444 260 q 308 42 370 101 q 168 -26 237 -26 q 0 373 0 -26 q 35 826 0 538 q 63 1158 63 1069 q 57 1229 63 1202 q 56 1240 56 1235 q 63 1265 56 1252 q 100 1284 75 1284 q 125 1277 112 1284 q 152 1156 152 1262 q 123 817 152 1060 q 100 600 111 704 q 89 373 89 473 q 101 195 89 271 q 178 64 123 64 q 265 123 218 64 q 336 240 306 174 q 410 421 375 324 q 535 878 512 689 q 547 1059 547 979 q 542 1145 547 1101 q 519 1213 538 1190 q 507 1243 507 1226 q 508 1254 507 1244 q 522 1275 508 1263 q 551 1288 535 1288 q 562 1288 553 1288 q 585 1273 572 1287 q 627 1027 627 1222 q 564 359 627 774 q 511 5 549 260 q 492 -24 507 -14 q 465 -33 481 -33 z "},"":{"ha":627,"x_min":0,"x_max":627,"o":"m 304 1316 q 266 1340 278 1316 q 262 1359 262 1350 q 285 1397 262 1385 l 450 1479 q 469 1483 459 1483 q 507 1459 494 1483 q 511 1440 511 1450 q 488 1402 511 1415 l 323 1320 q 304 1316 314 1316 m 465 -33 q 430 -14 444 -33 q 422 13 422 -2 q 435 102 422 18 q 469 323 452 212 q 418 202 444 260 q 308 42 370 101 q 168 -26 237 -26 q 0 373 0 -26 q 35 826 0 538 q 63 1158 63 1069 q 57 1229 63 1202 q 56 1240 56 1235 q 63 1265 56 1252 q 100 1284 75 1284 q 125 1277 112 1284 q 152 1156 152 1262 q 123 817 152 1060 q 100 600 111 704 q 89 373 89 473 q 101 195 89 271 q 178 64 123 64 q 265 123 218 64 q 336 240 306 174 q 410 421 375 324 q 535 878 512 689 q 547 1059 547 979 q 542 1145 547 1101 q 519 1213 538 1190 q 507 1243 507 1226 q 508 1254 507 1244 q 522 1275 508 1263 q 551 1288 535 1288 q 562 1288 553 1288 q 585 1273 572 1287 q 627 1027 627 1222 q 564 359 627 774 q 511 5 549 260 q 492 -24 507 -14 q 465 -33 481 -33 z "},"":{"ha":627,"x_min":0,"x_max":627,"o":"m 460 1273 q 420 1299 433 1273 q 358 1417 391 1369 l 342 1438 q 240 1295 309 1410 q 203 1274 227 1274 q 181 1280 192 1274 q 161 1318 161 1293 q 167 1339 161 1329 q 248 1460 214 1418 q 343 1527 298 1527 q 427 1468 382 1527 q 500 1333 467 1411 q 503 1316 503 1324 q 477 1276 503 1289 q 460 1273 469 1273 m 465 -33 q 430 -14 444 -33 q 422 13 422 -2 q 435 102 422 18 q 469 323 452 212 q 418 202 444 260 q 308 42 370 101 q 168 -26 237 -26 q 0 373 0 -26 q 35 826 0 538 q 63 1158 63 1069 q 57 1229 63 1202 q 56 1240 56 1235 q 63 1265 56 1252 q 100 1284 75 1284 q 125 1277 112 1284 q 152 1156 152 1262 q 123 817 152 1060 q 100 600 111 704 q 89 373 89 473 q 101 195 89 271 q 178 64 123 64 q 265 123 218 64 q 336 240 306 174 q 410 421 375 324 q 535 878 512 689 q 547 1059 547 979 q 542 1145 547 1101 q 519 1213 538 1190 q 507 1243 507 1226 q 508 1254 507 1244 q 522 1275 508 1263 q 551 1288 535 1288 q 562 1288 553 1288 q 585 1273 572 1287 q 627 1027 627 1222 q 564 359 627 774 q 511 5 549 260 q 492 -24 507 -14 q 465 -33 481 -33 z "},"":{"ha":627,"x_min":0,"x_max":627,"o":"m 414 1310 q 376 1328 391 1310 q 366 1358 366 1341 q 385 1396 366 1381 q 414 1406 397 1406 q 453 1388 440 1405 q 463 1358 463 1375 q 445 1320 463 1334 q 414 1310 431 1310 m 235 1305 q 195 1323 210 1305 q 186 1353 186 1337 q 203 1392 186 1377 q 233 1401 217 1401 q 273 1383 259 1400 q 282 1354 282 1370 q 264 1315 282 1330 q 235 1305 251 1305 m 465 -33 q 430 -14 444 -33 q 422 13 422 -2 q 435 102 422 18 q 469 323 452 212 q 418 202 444 260 q 308 42 370 101 q 168 -26 237 -26 q 0 373 0 -26 q 35 826 0 538 q 63 1158 63 1069 q 57 1229 63 1202 q 56 1240 56 1235 q 63 1265 56 1252 q 100 1284 75 1284 q 125 1277 112 1284 q 152 1156 152 1262 q 123 817 152 1060 q 100 600 111 704 q 89 373 89 473 q 101 195 89 271 q 178 64 123 64 q 265 123 218 64 q 336 240 306 174 q 410 421 375 324 q 535 878 512 689 q 547 1059 547 979 q 542 1145 547 1101 q 519 1213 538 1190 q 507 1243 507 1226 q 508 1254 507 1244 q 522 1275 508 1263 q 551 1288 535 1288 q 562 1288 553 1288 q 585 1273 572 1287 q 627 1027 627 1222 q 564 359 627 774 q 511 5 549 260 q 492 -24 507 -14 q 465 -33 481 -33 z "},"":{"ha":602,"x_min":0,"x_max":602,"o":"m 333 1316 q 294 1340 307 1316 q 290 1359 290 1350 q 313 1397 290 1385 l 478 1479 q 497 1483 488 1483 q 535 1459 523 1483 q 540 1440 540 1450 q 516 1402 540 1415 l 352 1320 q 333 1316 342 1316 m 262 -75 q 142 -43 203 -75 q 75 13 101 -21 q 46 95 46 50 q 77 164 46 134 q 106 176 90 176 q 116 175 107 176 q 138 162 125 175 q 149 133 149 149 q 149 123 149 132 q 135 102 149 114 q 132 93 132 98 q 179 35 136 58 q 264 11 221 11 q 293 15 280 11 q 481 840 446 73 l 494 1026 q 420 871 457 951 q 292 616 357 728 q 117 469 204 471 q 0 659 0 474 q 16 835 0 736 q 75 1115 33 942 q 60 1148 60 1127 q 67 1171 60 1160 q 107 1235 94 1212 q 145 1259 120 1259 q 165 1254 155 1259 q 188 1215 188 1241 q 172 1144 188 1208 q 85 659 85 807 q 118 555 85 557 q 168 585 141 555 q 343 907 229 653 q 423 1076 382 994 q 526 1245 473 1176 q 559 1261 540 1261 q 586 1251 574 1261 q 602 1218 602 1237 l 602 1208 q 570 886 583 1109 l 567 829 q 517 332 552 536 q 319 -67 456 -15 q 262 -75 291 -75 z "},"":{"ha":602,"x_min":0,"x_max":602,"o":"m 451 1310 q 414 1328 429 1310 q 404 1358 404 1341 q 422 1396 404 1381 q 452 1406 435 1406 q 490 1388 477 1405 q 500 1358 500 1375 q 482 1320 500 1334 q 451 1310 469 1310 m 272 1305 q 233 1323 248 1305 q 223 1353 223 1337 q 241 1392 223 1377 q 271 1401 254 1401 q 310 1383 296 1400 q 319 1354 319 1370 q 302 1315 319 1330 q 272 1305 288 1305 m 262 -75 q 142 -43 203 -75 q 75 13 101 -21 q 46 95 46 50 q 77 164 46 134 q 106 176 90 176 q 116 175 107 176 q 138 162 125 175 q 149 133 149 149 q 149 123 149 132 q 135 102 149 114 q 132 93 132 98 q 179 35 136 58 q 264 11 221 11 q 293 15 280 11 q 481 840 446 73 l 494 1026 q 420 871 457 951 q 292 616 357 728 q 117 469 204 471 q 0 659 0 474 q 16 835 0 736 q 75 1115 33 942 q 60 1148 60 1127 q 67 1171 60 1160 q 107 1235 94 1212 q 145 1259 120 1259 q 165 1254 155 1259 q 188 1215 188 1241 q 172 1144 188 1208 q 85 659 85 807 q 118 555 85 557 q 168 585 141 555 q 343 907 229 653 q 423 1076 382 994 q 526 1245 473 1176 q 559 1261 540 1261 q 586 1251 574 1261 q 602 1218 602 1237 l 602 1208 q 570 886 583 1109 l 567 829 q 517 332 552 536 q 319 -67 456 -15 q 262 -75 291 -75 z "},"":{"ha":340,"x_min":0,"x_max":340,"o":"m 41 -93 q 12 -80 23 -92 q 0 -49 0 -67 q 20 633 9 292 q 34 664 21 652 q 64 675 46 675 q 94 662 83 674 q 106 631 106 650 l 102 498 q 177 509 143 509 q 223 504 193 509 q 283 473 253 498 q 340 340 340 421 q 287 182 340 254 q 203 115 254 137 q 130 99 170 99 q 90 102 111 99 l 85 -52 q 72 -81 84 -70 q 41 -93 60 -93 m 127 185 q 219 234 182 185 q 255 340 255 282 q 229 407 255 383 q 178 423 212 423 q 99 408 146 423 l 93 190 q 127 185 111 185 z "},"":{"ha":391,"x_min":0,"x_max":391,"o":"m 41 -93 q 12 -80 23 -92 q 0 -49 0 -67 q 10 197 5 142 q 34 443 13 314 q 101 616 52 545 q 226 686 155 686 q 335 635 284 686 q 391 490 391 572 q 389 461 391 476 q 309 313 380 385 q 374 176 374 256 q 363 115 374 145 q 310 31 346 64 q 213 -11 266 -11 q 94 73 140 -11 l 90 81 q 85 -52 87 18 q 72 -81 85 -70 q 41 -93 60 -93 m 216 75 q 252 94 234 77 q 282 142 272 113 q 288 175 288 158 q 283 206 288 186 q 224 269 277 238 q 194 306 195 288 q 204 334 194 320 q 236 364 210 341 q 251 377 245 372 q 304 490 304 429 q 272 576 304 538 q 224 600 248 600 q 170 565 196 600 q 118 429 134 513 q 96 193 101 336 l 92 109 q 111 131 97 123 q 132 136 121 136 q 170 113 157 136 q 212 75 191 75 l 216 75 z "},"":{"ha":1112,"x_min":0,"x_max":1112,"o":"m 436 715 q 416 720 426 715 l 252 802 q 229 839 229 814 q 233 859 229 849 q 271 882 245 882 q 290 878 281 882 l 455 796 q 478 758 478 784 q 474 739 478 749 q 436 715 462 715 m 129 -27 q 96 -20 111 -27 q 36 35 58 -5 q 0 199 0 97 q 20 355 0 272 q 70 489 37 425 q 326 694 157 665 q 375 699 350 699 q 474 686 422 699 q 502 665 492 681 q 509 643 509 655 q 487 604 509 618 q 464 597 476 597 q 453 599 458 597 q 380 608 414 608 q 345 606 361 608 q 216 540 269 592 q 106 334 138 463 q 90 201 90 262 q 94 144 90 172 q 140 60 105 60 q 239 144 179 60 q 435 539 323 264 q 475 567 446 567 q 493 564 484 567 q 521 523 521 552 q 520 514 521 518 q 502 317 502 400 q 536 136 502 200 q 614 68 566 79 q 654 63 633 63 q 733 78 691 63 q 913 187 825 111 q 1031 318 981 246 q 1067 337 1045 337 q 1093 329 1081 337 q 1112 293 1112 315 q 1104 267 1112 279 q 960 110 1043 180 q 762 -7 863 29 q 655 -26 707 -26 q 456 96 520 -26 q 414 278 421 163 q 298 91 353 160 q 129 -27 204 -27 z "},"":{"ha":1112,"x_min":0,"x_max":1112,"o":"m 324 698 q 286 722 298 698 q 281 741 281 731 q 304 779 281 766 l 469 861 q 488 865 479 865 q 526 841 514 865 q 531 821 531 831 q 507 784 531 796 l 343 702 q 324 698 334 698 m 129 -27 q 96 -20 111 -27 q 36 35 58 -5 q 0 199 0 97 q 20 355 0 272 q 70 489 37 425 q 326 694 157 665 q 375 699 350 699 q 474 686 422 699 q 502 665 492 681 q 509 643 509 655 q 487 604 509 618 q 464 597 476 597 q 453 599 458 597 q 380 608 414 608 q 345 606 361 608 q 216 540 269 592 q 106 334 138 463 q 90 201 90 262 q 94 144 90 172 q 140 60 105 60 q 239 144 179 60 q 435 539 323 264 q 475 567 446 567 q 493 564 484 567 q 521 523 521 552 q 520 514 521 518 q 502 317 502 400 q 536 136 502 200 q 614 68 566 79 q 654 63 633 63 q 733 78 691 63 q 913 187 825 111 q 1031 318 981 246 q 1067 337 1045 337 q 1093 329 1081 337 q 1112 293 1112 315 q 1104 267 1112 279 q 960 110 1043 180 q 762 -7 863 29 q 655 -26 707 -26 q 456 96 520 -26 q 414 278 421 163 q 298 91 353 160 q 129 -27 204 -27 z "},"":{"ha":1112,"x_min":0,"x_max":1112,"o":"m 496 707 q 457 734 469 707 q 395 851 428 804 l 379 873 q 277 730 345 844 q 240 709 264 709 q 218 715 229 709 q 197 752 197 728 q 203 774 197 763 q 284 895 251 852 q 380 962 335 962 q 463 902 419 962 q 536 767 504 846 q 540 750 540 759 q 513 711 540 723 q 496 707 505 707 m 129 -27 q 96 -20 111 -27 q 36 35 58 -5 q 0 199 0 97 q 20 355 0 272 q 70 489 37 425 q 326 694 157 665 q 375 699 350 699 q 474 686 422 699 q 502 665 492 681 q 509 643 509 655 q 487 604 509 618 q 464 597 476 597 q 453 599 458 597 q 380 608 414 608 q 345 606 361 608 q 216 540 269 592 q 106 334 138 463 q 90 201 90 262 q 94 144 90 172 q 140 60 105 60 q 239 144 179 60 q 435 539 323 264 q 475 567 446 567 q 493 564 484 567 q 521 523 521 552 q 520 514 521 518 q 502 317 502 400 q 536 136 502 200 q 614 68 566 79 q 654 63 633 63 q 733 78 691 63 q 913 187 825 111 q 1031 318 981 246 q 1067 337 1045 337 q 1093 329 1081 337 q 1112 293 1112 315 q 1104 267 1112 279 q 960 110 1043 180 q 762 -7 863 29 q 655 -26 707 -26 q 456 96 520 -26 q 414 278 421 163 q 298 91 353 160 q 129 -27 204 -27 z "},"":{"ha":1112,"x_min":0,"x_max":1112,"o":"m 473 723 q 344 755 426 723 q 248 780 285 780 q 186 754 215 780 q 156 742 173 742 q 125 755 139 742 q 114 783 114 768 q 126 815 114 802 q 239 868 183 868 q 278 865 245 868 q 374 836 312 862 q 473 810 433 810 q 542 841 509 810 q 572 854 555 854 q 603 842 589 854 q 616 812 615 829 q 604 781 616 794 q 516 728 559 737 q 473 723 494 723 m 129 -27 q 96 -20 111 -27 q 36 35 58 -5 q 0 199 0 97 q 20 355 0 272 q 70 489 37 425 q 326 694 157 665 q 375 699 350 699 q 474 686 422 699 q 502 665 492 681 q 509 643 509 655 q 487 604 509 618 q 464 597 476 597 q 453 599 458 597 q 380 608 414 608 q 345 606 361 608 q 216 540 269 592 q 106 334 138 463 q 90 201 90 262 q 94 144 90 172 q 140 60 105 60 q 239 144 179 60 q 435 539 323 264 q 475 567 446 567 q 493 564 484 567 q 521 523 521 552 q 520 514 521 518 q 502 317 502 400 q 536 136 502 200 q 614 68 566 79 q 654 63 633 63 q 733 78 691 63 q 913 187 825 111 q 1031 318 981 246 q 1067 337 1045 337 q 1093 329 1081 337 q 1112 293 1112 315 q 1104 267 1112 279 q 960 110 1043 180 q 762 -7 863 29 q 655 -26 707 -26 q 456 96 520 -26 q 414 278 421 163 q 298 91 353 160 q 129 -27 204 -27 z "},"":{"ha":1112,"x_min":0,"x_max":1112,"o":"m 425 713 q 388 731 403 713 q 378 762 378 745 q 396 799 378 785 q 426 809 409 809 q 465 791 452 808 q 475 761 475 778 q 456 723 475 737 q 425 713 443 713 m 246 709 q 207 726 222 709 q 197 756 197 740 q 215 795 197 780 q 245 804 229 804 q 284 786 271 804 q 294 757 294 773 q 276 718 294 733 q 246 709 262 709 m 129 -27 q 96 -20 111 -27 q 36 35 58 -5 q 0 199 0 97 q 20 355 0 272 q 70 489 37 425 q 326 694 157 665 q 375 699 350 699 q 474 686 422 699 q 502 665 492 681 q 509 643 509 655 q 487 604 509 618 q 464 597 476 597 q 453 599 458 597 q 380 608 414 608 q 345 606 361 608 q 216 540 269 592 q 106 334 138 463 q 90 201 90 262 q 94 144 90 172 q 140 60 105 60 q 239 144 179 60 q 435 539 323 264 q 475 567 446 567 q 493 564 484 567 q 521 523 521 552 q 520 514 521 518 q 502 317 502 400 q 536 136 502 200 q 614 68 566 79 q 654 63 633 63 q 733 78 691 63 q 913 187 825 111 q 1031 318 981 246 q 1067 337 1045 337 q 1093 329 1081 337 q 1112 293 1112 315 q 1104 267 1112 279 q 960 110 1043 180 q 762 -7 863 29 q 655 -26 707 -26 q 456 96 520 -26 q 414 278 421 163 q 298 91 353 160 q 129 -27 204 -27 z "},"":{"ha":1112,"x_min":0,"x_max":1112,"o":"m 323 727 q 264 743 293 727 q 215 846 215 780 q 234 924 215 888 q 326 981 267 981 q 393 956 361 981 q 440 882 427 927 q 446 846 446 863 q 428 783 446 813 q 355 731 401 744 q 323 727 339 727 m 323 812 q 334 814 328 812 q 360 845 360 823 q 356 863 360 854 q 326 895 344 895 q 304 870 311 895 q 301 844 301 854 q 302 828 301 837 q 310 816 304 820 q 323 812 316 812 m 129 -27 q 96 -20 111 -27 q 36 35 58 -5 q 0 199 0 97 q 20 355 0 272 q 70 489 37 425 q 326 694 157 665 q 375 699 350 699 q 474 686 422 699 q 502 665 492 681 q 509 643 509 655 q 487 604 509 618 q 464 597 476 597 q 453 599 458 597 q 380 608 414 608 q 345 606 361 608 q 216 540 269 592 q 106 334 138 463 q 90 201 90 262 q 94 144 90 172 q 140 60 105 60 q 239 144 179 60 q 435 539 323 264 q 475 567 446 567 q 493 564 484 567 q 521 523 521 552 q 520 514 521 518 q 502 317 502 400 q 536 136 502 200 q 614 68 566 79 q 654 63 633 63 q 733 78 691 63 q 913 187 825 111 q 1031 318 981 246 q 1067 337 1045 337 q 1093 329 1081 337 q 1112 293 1112 315 q 1104 267 1112 279 q 960 110 1043 180 q 762 -7 863 29 q 655 -26 707 -26 q 456 96 520 -26 q 414 278 421 163 q 298 91 353 160 q 129 -27 204 -27 z "},"":{"ha":1718,"x_min":0,"x_max":1718,"o":"m 1162 437 q 1246 501 1211 463 q 1299 609 1297 557 q 1295 623 1299 618 q 1291 625 1293 625 q 1281 622 1286 625 q 1194 510 1244 606 q 1162 437 1177 476 m 1040 186 q 960 110 1003 146 q 762 -7 863 29 q 655 -26 707 -26 q 456 96 520 -26 q 414 278 421 163 q 298 91 353 160 q 129 -27 204 -27 q 96 -20 111 -27 q 36 35 58 -5 q 0 199 0 97 q 20 355 0 272 q 70 489 37 425 q 326 694 157 665 q 375 699 350 699 q 474 686 422 699 q 502 665 492 681 q 509 643 509 655 q 487 604 509 618 q 464 597 476 597 q 453 599 458 597 q 380 608 414 608 q 345 606 361 608 q 216 540 269 592 q 106 334 138 463 q 90 201 90 262 q 94 144 90 172 q 140 60 105 60 q 239 144 179 60 q 435 539 323 264 q 475 567 446 567 q 493 564 484 567 q 521 523 521 552 q 520 514 521 518 q 502 317 502 400 q 536 136 502 200 q 614 68 566 79 q 654 63 633 63 q 733 78 691 63 q 913 187 825 111 q 1031 318 981 246 q 1041 328 1036 324 q 1043 340 1042 334 q 1114 550 1066 458 q 1241 701 1179 673 q 1293 715 1268 715 q 1338 703 1316 715 q 1387 602 1387 677 q 1311 440 1387 522 q 1132 326 1244 366 q 1124 245 1124 287 q 1176 93 1124 135 q 1257 66 1208 66 q 1415 116 1329 66 q 1637 321 1550 193 q 1674 340 1652 340 q 1699 332 1687 340 q 1718 295 1718 319 q 1641 184 1718 267 q 1459 38 1558 95 q 1338 -12 1401 5 q 1255 -23 1295 -23 q 1054 127 1105 -23 q 1040 186 1044 156 z "},"":{"ha":1523,"x_min":0,"x_max":1523,"o":"m 233 121 l 240 130 q 349 420 324 252 q 355 484 355 454 q 349 547 355 517 q 289 611 334 611 q 227 581 260 611 q 166 468 178 534 q 157 365 157 416 q 233 121 157 191 m 967 433 q 1051 498 1016 460 q 1104 606 1102 553 q 1100 619 1104 614 q 1095 621 1098 621 q 1086 618 1091 621 q 998 507 1048 602 q 967 433 981 473 m 145 56 q 166 60 155 56 q 90 194 115 112 l 89 175 q 101 97 89 127 q 145 56 115 56 m 845 182 q 785 130 817 155 q 513 -7 659 33 q 390 -24 450 -24 q 245 5 309 -24 q 144 -33 194 -33 q 17 66 58 -33 q 0 174 0 110 q 17 311 0 238 q 36 338 22 329 q 61 346 47 346 l 68 345 l 68 365 q 79 486 68 427 q 167 647 94 578 q 291 701 229 701 q 392 656 350 701 q 444 484 444 601 q 437 406 444 446 q 313 79 408 216 l 311 76 q 389 66 349 66 q 491 80 438 66 q 726 197 618 114 q 844 318 798 252 l 845 319 l 848 336 q 919 547 871 454 q 1046 698 984 670 q 1098 711 1073 711 q 1143 700 1121 711 q 1192 598 1192 673 q 1116 437 1192 519 q 937 323 1048 363 q 928 241 928 283 q 981 90 928 132 q 1061 63 1013 63 q 1220 113 1134 63 q 1442 318 1354 190 q 1479 337 1457 337 q 1504 329 1492 337 q 1523 292 1523 316 q 1446 181 1523 264 q 1264 35 1362 92 q 1143 -15 1206 1 q 1059 -26 1100 -26 q 859 123 910 -26 q 845 182 850 152 z "},"":{"ha":751,"x_min":0,"x_max":751,"o":"m 168 -18 q 54 52 98 -1 q 0 232 0 117 q 66 488 0 356 q 225 670 129 612 q 317 695 270 695 q 412 645 384 695 q 429 584 429 616 q 427 567 429 576 q 376 498 418 498 q 360 501 368 498 q 331 543 331 513 q 334 559 331 551 q 340 584 340 572 q 336 599 340 592 q 315 606 332 606 q 271 595 294 606 q 145 447 199 554 q 98 313 113 383 q 90 231 90 271 q 92 187 90 209 q 243 65 115 65 q 286 67 254 65 q 368 89 317 70 q 568 208 474 130 q 670 318 628 259 q 707 337 684 337 q 732 329 720 337 q 751 292 751 315 q 743 267 751 279 q 625 139 694 197 q 399 5 519 51 q 253 -26 324 -22 l 249 -165 q 235 -195 248 -183 q 205 -207 223 -207 q 175 -193 186 -205 q 163 -161 163 -181 q 109 -232 109 -178 q 114 -259 109 -246 q 122 -280 118 -273 q 131 -288 127 -288 q 154 -267 135 -287 q 212 -231 186 -231 q 243 -255 232 -231 q 248 -274 248 -264 q 244 -293 248 -281 q 222 -314 241 -305 q 199 -334 211 -320 q 127 -374 167 -374 q 68 -347 96 -374 q 33 -288 44 -323 q 23 -231 23 -259 q 39 -159 23 -194 q 166 -72 74 -88 l 168 -18 z "},"":{"ha":684,"x_min":0,"x_max":684,"o":"m 354 715 q 334 720 344 715 l 170 802 q 146 839 146 814 q 151 859 146 849 q 189 882 163 882 q 208 878 199 882 l 373 796 q 396 758 396 784 q 392 739 396 749 q 354 715 380 715 m 220 -26 q 19 123 71 -26 q 0 249 0 184 q 8 336 0 292 q 79 547 31 454 q 206 698 144 670 q 258 711 233 711 q 303 700 281 711 q 352 598 352 673 q 276 437 352 519 q 97 323 209 363 q 89 241 89 283 q 141 90 89 132 q 222 63 173 63 q 380 113 294 63 q 602 318 515 190 q 640 337 617 337 q 665 329 652 337 q 684 292 684 316 q 606 181 684 264 q 425 35 523 92 q 303 -15 366 1 q 220 -26 260 -26 m 127 433 q 212 498 176 460 q 264 606 262 553 q 260 619 264 614 q 256 621 258 621 q 246 618 252 621 q 159 507 209 602 q 127 433 142 473 z "},"":{"ha":684,"x_min":0,"x_max":684,"o":"m 155 698 q 116 722 128 698 q 112 741 112 731 q 135 779 112 766 l 300 861 q 319 865 309 865 q 357 841 345 865 q 361 821 361 831 q 338 784 361 796 l 174 702 q 155 698 164 698 m 220 -26 q 19 123 71 -26 q 0 249 0 184 q 8 336 0 292 q 79 547 31 454 q 206 698 144 670 q 258 711 233 711 q 303 700 281 711 q 352 598 352 673 q 276 437 352 519 q 97 323 209 363 q 89 241 89 283 q 141 90 89 132 q 222 63 173 63 q 380 113 294 63 q 602 318 515 190 q 640 337 617 337 q 665 329 652 337 q 684 292 684 316 q 606 181 684 264 q 425 35 523 92 q 303 -15 366 1 q 220 -26 260 -26 m 127 433 q 212 498 176 460 q 264 606 262 553 q 260 619 264 614 q 256 621 258 621 q 246 618 252 621 q 159 507 209 602 q 127 433 142 473 z "},"":{"ha":684,"x_min":0,"x_max":684,"o":"m 382 694 q 343 721 355 694 q 281 838 314 791 l 265 860 q 163 717 231 831 q 126 696 150 696 q 104 702 115 696 q 83 739 83 715 q 90 761 83 750 q 170 882 137 840 q 266 949 221 949 q 349 889 305 949 q 422 754 390 833 q 426 737 426 746 q 399 698 426 710 q 382 694 391 694 m 220 -26 q 19 123 71 -26 q 0 249 0 184 q 8 336 0 292 q 79 547 31 454 q 206 698 144 670 q 258 711 233 711 q 303 700 281 711 q 352 598 352 673 q 276 437 352 519 q 97 323 209 363 q 89 241 89 283 q 141 90 89 132 q 222 63 173 63 q 380 113 294 63 q 602 318 515 190 q 640 337 617 337 q 665 329 652 337 q 684 292 684 316 q 606 181 684 264 q 425 35 523 92 q 303 -15 366 1 q 220 -26 260 -26 m 127 433 q 212 498 176 460 q 264 606 262 553 q 260 619 264 614 q 256 621 258 621 q 246 618 252 621 q 159 507 209 602 q 127 433 142 473 z "},"":{"ha":684,"x_min":0,"x_max":684,"o":"m 338 713 q 301 731 316 713 q 291 762 291 745 q 309 799 291 785 q 339 809 322 809 q 378 791 365 808 q 388 761 388 778 q 370 723 388 737 q 338 713 356 713 m 159 709 q 120 726 135 709 q 111 756 111 740 q 128 795 111 780 q 158 804 142 804 q 197 786 184 804 q 207 757 207 773 q 189 718 207 733 q 159 709 176 709 m 220 -26 q 19 123 71 -26 q 0 249 0 184 q 8 336 0 292 q 79 547 31 454 q 206 698 144 670 q 258 711 233 711 q 303 700 281 711 q 352 598 352 673 q 276 437 352 519 q 97 323 209 363 q 89 241 89 283 q 141 90 89 132 q 222 63 173 63 q 380 113 294 63 q 602 318 515 190 q 640 337 617 337 q 665 329 652 337 q 684 292 684 316 q 606 181 684 264 q 425 35 523 92 q 303 -15 366 1 q 220 -26 260 -26 m 127 433 q 212 498 176 460 q 264 606 262 553 q 260 619 264 614 q 256 621 258 621 q 246 618 252 621 q 159 507 209 602 q 127 433 142 473 z "},"":{"ha":667,"x_min":0,"x_max":667,"o":"m 229 715 q 209 720 218 715 l 45 802 q 21 839 21 814 q 26 859 21 849 q 64 882 38 882 q 83 878 73 882 l 248 796 q 271 758 271 784 q 267 739 271 749 q 229 715 254 715 m 213 -38 q 110 -12 156 -38 q 15 116 43 26 q 0 225 0 163 q 117 670 0 411 q 157 696 129 696 q 175 693 166 696 q 201 652 201 680 q 198 634 201 643 q 88 228 88 389 q 100 141 88 178 q 212 52 129 52 q 456 174 318 52 q 587 319 521 233 q 623 337 601 337 q 649 328 637 337 q 667 292 667 313 q 658 266 667 278 q 519 111 589 175 q 213 -38 351 -38 z "},"":{"ha":667,"x_min":0,"x_max":667,"o":"m 165 698 q 127 722 139 698 q 123 741 123 731 q 146 779 123 766 l 311 861 q 330 865 320 865 q 368 841 355 865 q 372 821 372 831 q 349 784 372 796 l 184 702 q 165 698 175 698 m 213 -38 q 110 -12 156 -38 q 15 116 43 26 q 0 225 0 163 q 117 670 0 411 q 157 696 129 696 q 175 693 166 696 q 201 652 201 680 q 198 634 201 643 q 88 228 88 389 q 100 141 88 178 q 212 52 129 52 q 456 174 318 52 q 587 319 521 233 q 623 337 601 337 q 649 328 637 337 q 667 292 667 313 q 658 266 667 278 q 519 111 589 175 q 213 -38 351 -38 z "},"":{"ha":673,"x_min":0,"x_max":673,"o":"m 299 648 q 260 674 272 648 q 197 791 231 744 l 182 813 q 79 670 148 785 q 43 649 66 649 q 20 655 31 649 q 0 692 0 668 q 6 714 0 703 q 87 835 54 793 q 182 902 138 902 q 266 842 222 902 q 339 707 307 786 q 342 690 342 699 q 316 651 342 663 q 299 648 308 648 m 218 -38 q 115 -12 161 -38 q 20 116 48 26 q 5 225 5 163 q 122 670 5 411 q 163 696 134 696 q 180 693 172 696 q 207 652 207 680 q 203 634 207 643 q 94 228 94 389 q 106 141 94 178 q 218 52 134 52 q 462 174 323 52 q 592 319 526 233 q 629 337 606 337 q 654 328 642 337 q 673 292 673 313 q 663 266 673 278 q 524 111 595 175 q 218 -38 357 -38 z "},"":{"ha":667,"x_min":0,"x_max":667,"o":"m 249 713 q 212 731 227 713 q 201 762 201 745 q 220 799 201 785 q 250 809 233 809 q 288 791 275 808 q 298 761 298 778 q 280 723 298 737 q 249 713 267 713 m 70 709 q 31 726 45 709 q 21 756 21 740 q 39 795 21 780 q 68 804 52 804 q 108 786 94 804 q 117 757 117 773 q 100 718 117 733 q 70 709 86 709 m 213 -38 q 110 -12 156 -38 q 15 116 43 26 q 0 225 0 163 q 117 670 0 411 q 157 696 129 696 q 175 693 166 696 q 201 652 201 680 q 198 634 201 643 q 88 228 88 389 q 100 141 88 178 q 212 52 129 52 q 456 174 318 52 q 587 319 521 233 q 623 337 601 337 q 649 328 637 337 q 667 292 667 313 q 658 266 667 278 q 519 111 589 175 q 213 -38 351 -38 z "},"":{"ha":342,"x_min":0,"x_max":342,"o":"m 148 -84 q 64 -54 105 -84 q 0 81 5 -7 l 0 84 q 75 257 0 182 q 194 337 122 307 q 155 437 176 387 l 72 391 q 51 385 61 385 q 14 407 27 385 q 8 429 8 418 q 30 465 8 453 l 121 517 l 77 616 q 74 633 74 625 q 100 672 74 661 q 118 675 109 675 q 157 650 144 675 q 193 566 174 608 l 196 559 l 279 606 q 299 611 289 611 q 337 589 323 611 q 342 568 342 578 q 321 530 342 544 l 231 480 q 320 142 320 275 q 286 1 320 54 q 186 -78 249 -59 q 148 -84 167 -84 m 149 3 q 212 45 187 3 q 235 142 235 79 q 219 254 235 191 q 130 191 167 231 q 86 83 87 145 q 115 15 88 39 q 149 3 132 3 z "},"":{"ha":1031,"x_min":0,"x_max":1031,"o":"m 524 679 q 395 711 477 679 q 300 736 336 736 q 238 710 267 736 q 208 698 224 698 q 177 711 191 698 q 165 739 165 724 q 178 771 165 758 q 291 824 235 824 q 330 821 296 824 q 425 791 363 818 q 525 766 484 766 q 593 797 561 766 q 624 810 606 810 q 654 798 641 810 q 667 768 667 785 q 655 737 667 750 q 568 684 611 693 q 524 679 546 679 m 571 -26 q 528 -23 549 -26 q 400 51 441 -6 q 339 291 339 135 q 345 441 339 332 q 351 546 351 499 q 342 616 351 616 q 314 595 333 616 q 230 451 271 546 q 149 233 183 343 q 98 55 108 108 l 92 25 q 47 -24 80 -24 q 10 -7 25 -24 q 0 22 0 4 q 29 253 0 37 q 55 456 43 362 q 72 486 58 475 q 99 496 83 496 q 140 469 128 496 l 149 487 q 340 706 243 706 q 378 699 359 706 q 439 592 435 671 l 439 571 q 433 463 439 526 q 422 295 422 360 q 465 116 422 178 q 573 63 500 63 q 652 78 610 63 q 857 210 759 116 q 950 318 909 260 q 987 337 964 337 q 1012 329 1000 337 q 1031 293 1031 315 q 1023 267 1031 279 q 920 147 979 203 q 681 -7 807 39 q 571 -26 624 -26 z "},"":{"ha":926,"x_min":0,"x_max":926,"o":"m 363 715 q 344 720 353 715 l 180 802 q 156 839 156 814 q 161 859 156 849 q 199 882 173 882 q 218 878 208 882 l 382 796 q 406 758 406 784 q 401 739 406 749 q 363 715 389 715 m 144 -33 q 17 66 58 -33 q 0 174 0 110 q 17 311 0 238 q 36 338 22 329 q 61 346 47 346 l 68 345 l 68 365 q 79 486 68 427 q 167 647 94 578 q 291 701 229 701 q 392 656 350 701 q 444 484 444 601 q 437 406 444 446 q 313 79 408 216 l 311 76 q 389 66 349 66 q 491 80 438 66 q 726 197 618 114 q 844 318 798 252 q 881 337 859 337 q 906 329 894 337 q 926 293 926 315 q 918 267 926 279 q 785 130 865 192 q 513 -7 659 33 q 390 -24 450 -24 q 245 5 309 -24 q 144 -33 194 -33 m 233 121 l 240 130 q 349 420 324 252 q 355 484 355 454 q 349 547 355 517 q 289 611 334 611 q 227 581 260 611 q 166 468 178 534 q 157 365 157 416 q 233 121 157 191 m 145 56 q 166 60 155 56 q 90 194 115 112 l 89 175 q 101 97 89 127 q 145 56 115 56 z "},"":{"ha":926,"x_min":0,"x_max":926,"o":"m 209 698 q 170 722 182 698 q 166 741 166 731 q 189 779 166 766 l 354 861 q 373 865 363 865 q 411 841 399 865 q 416 821 416 831 q 392 784 416 796 l 228 702 q 209 698 218 698 m 144 -33 q 17 66 58 -33 q 0 174 0 110 q 17 311 0 238 q 36 338 22 329 q 61 346 47 346 l 68 345 l 68 365 q 79 486 68 427 q 167 647 94 578 q 291 701 229 701 q 392 656 350 701 q 444 484 444 601 q 437 406 444 446 q 313 79 408 216 l 311 76 q 389 66 349 66 q 491 80 438 66 q 726 197 618 114 q 844 318 798 252 q 881 337 859 337 q 906 329 894 337 q 926 293 926 315 q 918 267 926 279 q 785 130 865 192 q 513 -7 659 33 q 390 -24 450 -24 q 245 5 309 -24 q 144 -33 194 -33 m 233 121 l 240 130 q 349 420 324 252 q 355 484 355 454 q 349 547 355 517 q 289 611 334 611 q 227 581 260 611 q 166 468 178 534 q 157 365 157 416 q 233 121 157 191 m 145 56 q 166 60 155 56 q 90 194 115 112 l 89 175 q 101 97 89 127 q 145 56 115 56 z "},"":{"ha":926,"x_min":0,"x_max":926,"o":"m 418 707 q 378 734 391 707 q 316 851 349 804 l 300 873 q 198 730 267 844 q 161 709 185 709 q 139 715 150 709 q 119 752 119 728 q 125 774 119 763 q 205 895 172 852 q 301 962 256 962 q 385 902 340 962 q 458 767 425 846 q 461 750 461 759 q 435 711 461 723 q 418 707 427 707 m 144 -33 q 17 66 58 -33 q 0 174 0 110 q 17 311 0 238 q 36 338 22 329 q 61 346 47 346 l 68 345 l 68 365 q 79 486 68 427 q 167 647 94 578 q 291 701 229 701 q 392 656 350 701 q 444 484 444 601 q 437 406 444 446 q 313 79 408 216 l 311 76 q 389 66 349 66 q 491 80 438 66 q 726 197 618 114 q 844 318 798 252 q 881 337 859 337 q 906 329 894 337 q 926 293 926 315 q 918 267 926 279 q 785 130 865 192 q 513 -7 659 33 q 390 -24 450 -24 q 245 5 309 -24 q 144 -33 194 -33 m 233 121 l 240 130 q 349 420 324 252 q 355 484 355 454 q 349 547 355 517 q 289 611 334 611 q 227 581 260 611 q 166 468 178 534 q 157 365 157 416 q 233 121 157 191 m 145 56 q 166 60 155 56 q 90 194 115 112 l 89 175 q 101 97 89 127 q 145 56 115 56 z "},"":{"ha":926,"x_min":0,"x_max":926,"o":"m 448 723 q 319 755 401 723 q 224 780 260 780 q 162 754 191 780 q 132 742 149 742 q 101 755 115 742 q 90 783 90 768 q 102 815 90 802 q 215 868 159 868 q 254 865 220 868 q 349 836 288 862 q 449 810 408 810 q 517 841 485 810 q 548 854 530 854 q 578 842 565 854 q 591 812 591 829 q 579 781 591 794 q 492 728 535 737 q 448 723 470 723 m 144 -33 q 17 66 58 -33 q 0 174 0 110 q 17 311 0 238 q 36 338 22 329 q 61 346 47 346 l 68 345 l 68 365 q 79 486 68 427 q 167 647 94 578 q 291 701 229 701 q 392 656 350 701 q 444 484 444 601 q 437 406 444 446 q 313 79 408 216 l 311 76 q 389 66 349 66 q 491 80 438 66 q 726 197 618 114 q 844 318 798 252 q 881 337 859 337 q 906 329 894 337 q 926 293 926 315 q 918 267 926 279 q 785 130 865 192 q 513 -7 659 33 q 390 -24 450 -24 q 245 5 309 -24 q 144 -33 194 -33 m 233 121 l 240 130 q 349 420 324 252 q 355 484 355 454 q 349 547 355 517 q 289 611 334 611 q 227 581 260 611 q 166 468 178 534 q 157 365 157 416 q 233 121 157 191 m 145 56 q 166 60 155 56 q 90 194 115 112 l 89 175 q 101 97 89 127 q 145 56 115 56 z "},"":{"ha":926,"x_min":0,"x_max":926,"o":"m 389 713 q 352 731 367 713 q 342 762 342 745 q 360 799 342 785 q 390 809 373 809 q 429 791 416 808 q 439 761 439 778 q 420 723 439 737 q 389 713 407 713 m 210 709 q 171 726 186 709 q 161 756 161 740 q 179 795 161 780 q 209 804 193 804 q 248 786 235 804 q 258 757 258 773 q 240 718 258 733 q 210 709 227 709 m 144 -33 q 17 66 58 -33 q 0 174 0 110 q 17 311 0 238 q 36 338 22 329 q 61 346 47 346 l 68 345 l 68 365 q 79 486 68 427 q 167 647 94 578 q 291 701 229 701 q 392 656 350 701 q 444 484 444 601 q 437 406 444 446 q 313 79 408 216 l 311 76 q 389 66 349 66 q 491 80 438 66 q 726 197 618 114 q 844 318 798 252 q 881 337 859 337 q 906 329 894 337 q 926 293 926 315 q 918 267 926 279 q 785 130 865 192 q 513 -7 659 33 q 390 -24 450 -24 q 245 5 309 -24 q 144 -33 194 -33 m 233 121 l 240 130 q 349 420 324 252 q 355 484 355 454 q 349 547 355 517 q 289 611 334 611 q 227 581 260 611 q 166 468 178 534 q 157 365 157 416 q 233 121 157 191 m 145 56 q 166 60 155 56 q 90 194 115 112 l 89 175 q 101 97 89 127 q 145 56 115 56 z "},"":{"ha":439,"x_min":0,"x_max":439,"o":"m 397 217 l 42 220 q 12 233 24 221 q 0 264 0 245 q 12 294 0 282 q 43 306 24 306 l 397 302 q 427 290 415 302 q 439 259 439 277 q 427 229 439 241 q 397 217 414 217 m 214 338 l 207 338 q 174 356 186 340 q 165 385 165 369 q 182 424 165 409 q 212 433 196 433 q 252 416 237 433 q 261 386 261 402 q 243 347 261 362 q 214 338 230 338 m 213 103 q 174 121 189 103 q 165 151 165 134 q 182 189 165 174 q 213 199 196 199 q 252 181 237 199 q 261 151 261 168 q 243 113 261 127 q 213 103 230 103 z "},"":{"ha":1001,"x_min":0,"x_max":1001,"o":"m 174 167 q 165 194 169 180 l 164 175 q 165 154 164 164 q 174 167 170 161 m 241 258 q 429 515 355 416 q 424 547 427 532 q 364 611 409 611 q 302 581 336 611 q 241 468 254 534 q 232 365 232 416 q 241 258 232 305 m 517 523 q 519 484 519 505 q 513 406 519 446 q 388 79 483 216 l 387 76 q 465 66 424 66 q 566 80 513 66 q 801 197 693 114 q 920 318 873 252 q 956 337 934 337 q 981 329 969 337 q 1001 293 1001 315 q 993 267 1001 279 q 860 130 940 192 q 589 -7 734 33 q 465 -24 525 -24 q 320 5 385 -24 q 220 -33 269 -33 q 136 -1 170 -33 q 55 -111 56 -109 q 32 -119 44 -119 q 7 -105 18 -119 q 0 -83 0 -96 q 6 -64 0 -74 q 96 58 53 0 q 92 66 94 62 q 75 174 75 110 q 92 311 75 238 q 111 338 97 329 q 136 346 123 346 l 143 345 l 143 365 q 154 486 143 427 q 242 647 170 578 q 366 701 304 701 q 467 656 425 701 q 497 610 486 636 q 555 688 555 688 q 578 696 566 696 q 603 683 592 696 q 610 661 610 673 q 604 642 610 652 q 517 523 559 580 m 189 73 q 220 56 201 56 q 241 60 230 56 q 209 100 224 78 q 189 73 199 85 m 266 178 q 308 121 283 144 l 315 130 q 419 389 391 240 q 266 178 332 269 z "},"":{"ha":1041,"x_min":0,"x_max":1041,"o":"m 281 715 q 262 720 271 715 l 98 802 q 74 839 74 814 q 79 859 74 849 q 117 882 91 882 q 136 878 126 882 l 300 796 q 323 758 323 784 q 319 739 323 749 q 281 715 307 715 m 112 -33 q 45 -3 71 -33 q 0 179 0 48 q 3 252 0 214 q 44 520 15 382 q 69 661 58 589 q 87 690 73 680 q 113 699 99 699 q 149 680 136 699 q 158 654 158 668 q 132 509 158 637 q 88 157 88 288 q 114 56 88 60 q 151 90 126 56 q 216 218 184 138 q 299 467 264 341 l 319 540 q 354 661 335 602 q 376 687 361 679 q 396 692 386 692 q 410 690 403 692 q 441 646 441 680 l 441 640 q 431 450 433 572 q 604 61 431 61 q 713 91 652 61 q 960 318 853 163 q 996 337 975 337 q 1022 329 1010 337 q 1041 292 1041 315 q 1033 267 1041 279 q 951 165 996 214 q 752 11 858 65 q 603 -28 673 -28 q 380 152 449 -28 q 347 318 355 229 q 222 38 285 127 q 112 -33 174 -33 z "},"":{"ha":1041,"x_min":0,"x_max":1041,"o":"m 264 698 q 225 722 237 698 q 221 741 221 731 q 244 779 221 766 l 409 861 q 428 865 418 865 q 466 841 454 865 q 471 821 471 831 q 447 784 471 796 l 283 702 q 264 698 273 698 m 112 -33 q 45 -3 71 -33 q 0 179 0 48 q 3 252 0 214 q 44 520 15 382 q 69 661 58 589 q 87 690 73 680 q 113 699 99 699 q 149 680 136 699 q 158 654 158 668 q 132 509 158 637 q 88 157 88 288 q 114 56 88 60 q 151 90 126 56 q 216 218 184 138 q 299 467 264 341 l 319 540 q 354 661 335 602 q 376 687 361 679 q 396 692 386 692 q 410 690 403 692 q 441 646 441 680 l 441 640 q 431 450 433 572 q 604 61 431 61 q 713 91 652 61 q 960 318 853 163 q 996 337 975 337 q 1022 329 1010 337 q 1041 292 1041 315 q 1033 267 1041 279 q 951 165 996 214 q 752 11 858 65 q 603 -28 673 -28 q 380 152 449 -28 q 347 318 355 229 q 222 38 285 127 q 112 -33 174 -33 z "},"":{"ha":1041,"x_min":0,"x_max":1041,"o":"m 412 707 q 372 734 385 707 q 310 851 343 804 l 294 873 q 192 730 260 844 q 155 709 179 709 q 133 715 144 709 q 113 752 113 728 q 119 774 113 763 q 199 895 166 852 q 295 962 250 962 q 378 902 334 962 q 452 767 419 846 q 455 750 455 759 q 429 711 455 723 q 412 707 420 707 m 112 -33 q 45 -3 71 -33 q 0 179 0 48 q 3 252 0 214 q 44 520 15 382 q 69 661 58 589 q 87 690 73 680 q 113 699 99 699 q 149 680 136 699 q 158 654 158 668 q 132 509 158 637 q 88 157 88 288 q 114 56 88 60 q 151 90 126 56 q 216 218 184 138 q 299 467 264 341 l 319 540 q 354 661 335 602 q 376 687 361 679 q 396 692 386 692 q 410 690 403 692 q 441 646 441 680 l 441 640 q 431 450 433 572 q 604 61 431 61 q 713 91 652 61 q 960 318 853 163 q 996 337 975 337 q 1022 329 1010 337 q 1041 292 1041 315 q 1033 267 1041 279 q 951 165 996 214 q 752 11 858 65 q 603 -28 673 -28 q 380 152 449 -28 q 347 318 355 229 q 222 38 285 127 q 112 -33 174 -33 z "},"":{"ha":1041,"x_min":0,"x_max":1041,"o":"m 357 713 q 319 731 334 713 q 309 762 309 745 q 328 799 309 785 q 357 809 340 809 q 396 791 383 808 q 406 761 406 778 q 388 723 406 737 q 357 713 374 713 m 178 709 q 138 726 153 709 q 129 756 129 740 q 146 795 129 780 q 176 804 160 804 q 216 786 202 804 q 225 757 225 773 q 208 718 225 733 q 178 709 194 709 m 112 -33 q 45 -3 71 -33 q 0 179 0 48 q 3 252 0 214 q 44 520 15 382 q 69 661 58 589 q 87 690 73 680 q 113 699 99 699 q 149 680 136 699 q 158 654 158 668 q 132 509 158 637 q 88 157 88 288 q 114 56 88 60 q 151 90 126 56 q 216 218 184 138 q 299 467 264 341 l 319 540 q 354 661 335 602 q 376 687 361 679 q 396 692 386 692 q 410 690 403 692 q 441 646 441 680 l 441 640 q 431 450 433 572 q 604 61 431 61 q 713 91 652 61 q 960 318 853 163 q 996 337 975 337 q 1022 329 1010 337 q 1041 292 1041 315 q 1033 267 1041 279 q 951 165 996 214 q 752 11 858 65 q 603 -28 673 -28 q 380 152 449 -28 q 347 318 355 229 q 222 38 285 127 q 112 -33 174 -33 z "},"":{"ha":958,"x_min":0,"x_max":958,"o":"m 310 698 q 271 722 283 698 q 267 741 267 731 q 290 779 267 766 l 455 861 q 474 865 465 865 q 512 841 500 865 q 517 821 517 831 q 493 784 517 796 l 329 702 q 310 698 319 698 m 134 -840 q 39 -770 76 -837 q 1 -600 1 -703 q 17 -458 1 -534 q 284 -62 71 -218 q 354 -14 318 -37 q 375 215 360 30 q 382 350 378 254 q 233 61 310 176 q 109 -25 170 -25 q 50 2 77 -25 q 0 197 0 53 q 51 533 0 342 q 103 692 73 619 q 144 720 115 720 q 161 717 152 720 q 189 675 189 705 q 186 659 189 667 q 137 511 159 591 q 89 193 89 333 q 96 111 89 146 q 122 63 106 63 q 256 283 159 63 q 380 581 351 499 q 415 668 397 629 q 453 690 427 690 q 496 664 482 690 q 501 642 501 653 l 500 632 q 486 511 488 572 l 479 382 q 451 44 469 213 q 601 127 503 74 q 880 326 789 229 q 913 339 895 339 q 944 326 930 339 q 958 294 958 313 q 945 264 958 277 q 644 50 842 157 q 437 -68 470 -48 q 300 -671 387 -454 q 267 -741 288 -704 q 134 -840 209 -838 m 136 -749 q 160 -736 146 -749 q 218 -637 189 -707 q 337 -134 288 -460 q 187 -284 245 -201 q 104 -477 129 -367 q 90 -598 90 -543 q 113 -725 90 -675 q 136 -749 123 -749 z "},"":{"ha":340,"x_min":0,"x_max":340,"o":"m 41 -93 q 12 -80 23 -92 q 0 -49 0 -67 q 20 633 9 292 q 34 664 21 652 q 64 675 46 675 q 94 662 83 674 q 106 631 106 650 l 102 498 q 177 509 143 509 q 223 504 193 509 q 283 473 253 498 q 340 340 340 421 q 287 182 340 254 q 203 115 254 137 q 130 99 170 99 q 90 102 111 99 l 85 -52 q 72 -81 84 -70 q 41 -93 60 -93 m 127 185 q 219 234 182 185 q 255 340 255 282 q 229 407 255 383 q 178 423 212 423 q 99 408 146 423 l 93 190 q 127 185 111 185 z "},"":{"ha":958,"x_min":0,"x_max":958,"o":"m 404 713 q 367 731 382 713 q 357 762 357 745 q 375 799 357 785 q 405 809 388 809 q 444 791 431 808 q 454 761 454 778 q 435 723 454 737 q 404 713 422 713 m 225 709 q 186 726 201 709 q 176 756 176 740 q 194 795 176 780 q 224 804 208 804 q 263 786 250 804 q 273 757 273 773 q 255 718 273 733 q 225 709 241 709 m 134 -840 q 39 -770 76 -837 q 1 -600 1 -703 q 17 -458 1 -534 q 284 -62 71 -218 q 354 -14 318 -37 q 375 215 360 30 q 382 350 378 254 q 233 61 310 176 q 109 -25 170 -25 q 50 2 77 -25 q 0 197 0 53 q 51 533 0 342 q 103 692 73 619 q 144 720 115 720 q 161 717 152 720 q 189 675 189 705 q 186 659 189 667 q 137 511 159 591 q 89 193 89 333 q 96 111 89 146 q 122 63 106 63 q 256 283 159 63 q 380 581 351 499 q 415 668 397 629 q 453 690 427 690 q 496 664 482 690 q 501 642 501 653 l 500 632 q 486 511 488 572 l 479 382 q 451 44 469 213 q 601 127 503 74 q 880 326 789 229 q 913 339 895 339 q 944 326 930 339 q 958 294 958 313 q 945 264 958 277 q 644 50 842 157 q 437 -68 470 -48 q 300 -671 387 -454 q 267 -741 288 -704 q 134 -840 209 -838 m 136 -749 q 160 -736 146 -749 q 218 -637 189 -707 q 337 -134 288 -460 q 187 -284 245 -201 q 104 -477 129 -367 q 90 -598 90 -543 q 113 -725 90 -675 q 136 -749 123 -749 z "},"":{"ha":115,"x_min":0,"x_max":115,"o":"m 41 -64 q 12 -50 23 -62 q 0 -20 0 -38 l 29 922 q 42 952 30 940 q 73 964 55 964 q 103 950 91 963 q 115 920 115 938 l 85 -22 q 72 -52 85 -40 q 41 -64 60 -64 z "},"":{"ha":342,"x_min":0,"x_max":342,"o":"m 299 793 q 260 819 271 793 q 197 936 231 889 l 182 958 q 79 814 144 924 q 43 793 66 793 q 20 800 32 793 q 0 837 0 813 q 6 859 0 848 q 87 980 54 938 q 183 1046 138 1046 q 266 987 222 1046 q 339 852 307 930 q 342 836 342 844 q 316 796 342 808 q 299 793 308 793 z "},"":{"ha":342,"x_min":0,"x_max":343,"o":"m 183 793 q 87 860 138 793 q 6 981 54 901 q 0 1003 0 991 q 21 1040 0 1026 q 43 1046 32 1046 q 80 1025 67 1046 q 182 881 149 909 q 198 903 186 888 q 260 1021 231 950 q 300 1047 273 1047 q 317 1044 308 1047 q 343 1004 343 1031 q 340 987 343 996 q 267 852 307 909 q 183 793 222 793 z "},"":{"ha":396,"x_min":0,"x_max":396,"o":"m 353 846 l 43 848 q 12 861 24 848 q 0 891 0 873 q 12 921 0 909 q 43 933 24 933 l 353 932 q 384 919 372 931 q 396 889 395 907 q 383 859 395 871 q 353 846 371 847 z "},"":{"ha":326,"x_min":0,"x_max":326,"o":"m 159 795 l 151 795 q 4 913 59 799 q 0 932 0 922 q 25 970 0 958 q 43 974 35 974 q 82 949 70 974 q 126 891 102 907 q 157 881 142 881 q 186 888 172 881 q 248 944 220 903 q 283 962 261 962 q 307 955 296 962 q 326 920 326 942 q 319 896 326 907 q 222 810 277 836 q 159 795 191 795 z "},"":{"ha":96,"x_min":0,"x_max":96,"o":"m 47 840 q 9 858 24 840 q 0 888 0 871 q 18 926 0 912 q 48 936 31 936 q 87 918 73 935 q 96 888 96 905 q 79 850 96 865 q 47 840 64 840 z "},"":{"ha":231,"x_min":0,"x_max":231,"o":"m 108 749 q 50 765 78 749 q 0 868 0 800 q 19 946 0 910 q 111 1003 53 1003 q 178 978 146 1003 q 227 897 216 946 q 231 867 231 882 q 213 804 231 834 q 138 753 185 765 q 108 749 123 749 m 108 834 q 124 838 114 834 q 145 867 145 846 q 140 889 145 875 q 124 912 135 903 q 111 918 117 918 q 94 904 101 918 q 86 863 86 890 q 87 852 86 860 q 96 838 87 844 q 108 834 101 834 z "},"":{"ha":178,"x_min":0,"x_max":178,"o":"m 124 -227 q 100 -220 112 -227 q 15 -123 41 -178 q 0 -60 0 -92 q 117 95 0 39 q 136 99 127 99 q 174 74 162 99 q 178 56 178 65 q 153 17 178 30 q 96 -26 111 -3 q 85 -58 85 -43 q 92 -87 85 -73 q 149 -149 109 -121 q 168 -184 168 -163 q 160 -208 168 -197 q 124 -227 147 -227 z "},"":{"ha":502,"x_min":0,"x_max":502,"o":"m 359 797 q 231 829 313 797 q 135 854 170 854 q 73 828 102 854 q 43 816 60 816 q 12 829 26 816 q 0 859 0 842 q 13 889 0 876 q 127 943 70 943 q 165 940 132 943 q 260 909 199 937 q 360 884 319 884 q 429 915 396 884 q 458 928 441 928 q 489 915 475 928 q 502 884 502 903 q 490 855 502 868 q 403 802 446 811 q 359 797 381 797 z "},"":{"ha":195,"x_min":0,"x_max":195,"o":"m 41 795 q 12 809 23 797 q 0 840 0 822 l 5 944 q 19 974 6 962 q 50 985 31 985 q 79 972 67 984 q 90 943 90 960 l 86 837 q 72 807 85 819 q 41 795 60 795 m 145 796 q 116 810 127 798 q 104 839 104 822 l 109 945 q 122 975 110 963 q 153 986 135 986 q 183 972 172 985 q 195 941 195 960 l 190 838 q 176 808 189 819 q 145 796 163 796 z "},"":{"ha":440,"x_min":0,"x_max":440,"o":"m 397 217 l 43 220 q 13 233 24 221 q 0 264 1 245 q 13 294 1 282 q 43 306 25 306 l 397 302 q 428 290 416 302 q 440 259 439 277 q 427 229 439 241 q 397 217 415 217 z "},"":{"ha":692,"x_min":0,"x_max":692,"o":"m 648 217 l 43 220 q 13 233 24 221 q 0 264 1 245 q 13 294 1 281 q 43 306 25 306 l 649 303 q 679 290 667 302 q 692 260 691 278 q 679 230 691 241 q 648 217 667 218 z "},"":{"ha":90,"x_min":0,"x_max":90,"o":"m 41 796 q 12 810 23 798 q 0 841 0 823 l 5 945 q 18 975 5 963 q 49 986 31 986 q 79 972 67 985 q 90 941 90 960 l 85 838 q 72 808 84 819 q 41 796 59 796 z "},"":{"ha":90,"x_min":0,"x_max":90,"o":"m 41 796 q 12 810 23 798 q 0 841 0 823 l 5 945 q 19 975 6 963 q 50 986 31 986 q 79 972 67 985 q 90 943 90 960 l 86 838 q 72 808 85 819 q 41 796 60 796 z "},"":{"ha":90,"x_min":0,"x_max":90,"o":"m 43 -172 q 12 -160 23 -172 q 0 -130 0 -147 l 4 -24 q 18 6 5 -5 q 47 17 30 17 q 78 4 66 17 q 90 -25 90 -8 l 85 -132 q 72 -161 84 -149 q 43 -172 60 -172 z "},"":{"ha":194,"x_min":0,"x_max":194,"o":"m 41 795 q 12 809 23 797 q 0 838 0 821 l 4 944 q 18 974 5 962 q 49 985 31 985 q 79 971 67 984 q 90 941 90 959 l 85 837 q 72 807 84 819 q 41 795 59 795 m 145 796 q 115 810 127 798 q 104 841 104 823 l 109 945 q 122 975 109 963 q 153 986 134 986 q 182 972 171 985 q 194 941 194 960 l 189 838 q 176 808 189 819 q 145 796 163 796 z "},"":{"ha":195,"x_min":0,"x_max":195,"o":"m 41 795 q 12 809 23 797 q 0 840 0 822 l 5 944 q 19 974 6 962 q 50 985 31 985 q 79 972 67 984 q 90 943 90 960 l 86 837 q 72 807 85 819 q 41 795 60 795 m 145 796 q 116 810 127 798 q 104 839 104 822 l 109 945 q 122 975 110 963 q 153 986 135 986 q 183 972 172 985 q 195 941 195 960 l 190 838 q 176 808 189 819 q 145 796 163 796 z "},"":{"ha":193,"x_min":0,"x_max":193,"o":"m 43 -172 q 12 -160 24 -172 q 0 -130 0 -147 l 4 -24 q 18 6 5 -5 q 47 17 30 17 q 78 4 66 17 q 90 -27 90 -9 l 85 -132 q 72 -161 84 -149 q 43 -172 60 -172 m 145 -172 q 113 -159 126 -172 q 102 -130 102 -147 l 106 -24 q 120 6 108 -5 q 149 17 132 17 q 181 4 169 17 q 193 -27 193 -9 l 188 -132 q 174 -161 186 -149 q 145 -172 162 -172 z "},"":{"ha":529,"x_min":0,"x_max":529,"o":"m 247 -93 q 217 -80 229 -92 q 205 -49 205 -67 l 218 397 l 42 399 q 12 411 24 399 q 0 441 0 423 q 12 472 0 460 q 43 484 24 484 l 221 483 l 227 671 q 240 701 228 689 q 271 713 252 713 q 301 699 289 711 q 313 669 313 686 l 307 482 l 486 480 q 516 467 505 479 q 529 437 528 455 q 516 407 528 419 q 486 395 504 395 l 304 396 l 291 -52 q 277 -81 290 -70 q 247 -93 265 -93 z "},"":{"ha":529,"x_min":0,"x_max":529,"o":"m 247 -93 q 217 -80 229 -92 q 205 -49 205 -67 l 210 112 l 43 114 q 13 126 24 114 q 0 157 1 138 q 13 187 1 175 q 43 199 25 199 l 213 198 l 219 397 l 43 399 q 13 411 24 399 q 0 441 1 423 q 13 472 1 460 q 43 484 25 484 l 221 483 l 227 671 q 240 701 228 689 q 271 713 253 713 q 301 699 289 711 q 313 669 313 686 l 307 482 l 487 480 q 517 467 505 479 q 529 437 529 455 q 517 407 529 419 q 486 395 505 395 l 304 396 l 298 197 l 487 195 q 517 182 505 195 q 529 153 529 170 q 517 122 529 134 q 486 110 505 110 l 296 111 l 291 -52 q 278 -81 290 -70 q 247 -93 265 -93 z "},"":{"ha":283,"x_min":0,"x_max":283,"o":"m 143 146 q 94 155 119 146 q 23 213 46 174 q 0 296 0 252 q 33 398 0 356 q 142 452 77 452 q 208 434 178 452 q 269 364 248 409 q 283 296 283 332 q 233 182 283 228 q 143 146 193 146 z "},"":{"ha":334,"x_min":0,"x_max":334,"o":"m 49 94 q 10 113 24 94 q 0 142 0 125 q 18 180 0 165 q 48 191 31 191 q 86 174 73 190 q 97 142 97 159 q 79 104 97 118 q 49 94 66 94 m 172 94 q 133 113 146 94 q 123 142 123 125 q 141 180 123 166 q 171 191 154 191 q 210 172 195 190 q 220 142 220 159 q 201 104 220 119 q 172 94 189 94 m 286 94 q 248 113 262 94 q 237 144 237 126 q 256 180 237 165 q 286 191 269 191 q 323 174 311 190 q 334 142 334 159 q 316 104 334 118 q 286 94 303 94 z "},"":{"ha":230,"x_min":0,"x_max":230,"o":"m 186 88 q 113 128 161 88 q 52 187 80 154 q 0 293 0 248 q 53 401 0 340 q 158 511 89 446 q 187 522 172 522 q 197 522 189 522 q 218 508 206 522 q 230 479 230 495 q 230 469 230 478 q 216 448 229 460 q 117 345 133 370 q 87 294 87 311 q 118 242 87 277 q 201 170 165 186 q 229 131 229 159 q 225 114 229 123 q 186 88 213 88 z "},"":{"ha":230,"x_min":0,"x_max":230,"o":"m 45 88 q 5 114 18 88 q 2 131 2 123 q 28 170 2 159 q 112 242 64 186 q 143 294 143 278 q 113 345 143 311 q 14 448 97 370 q 0 479 0 461 q 11 508 0 495 q 43 522 24 522 q 72 511 59 522 q 177 401 141 446 q 230 293 230 340 q 178 187 230 248 q 118 128 150 154 q 45 88 68 88 z "},"":{"ha":467,"x_min":0,"x_max":467,"o":"m 43 -81 q 24 -77 34 -81 q 0 -37 0 -64 q 4 -20 0 -28 l 386 768 q 425 793 398 793 q 443 789 434 793 q 467 750 467 776 q 463 731 467 741 l 81 -57 q 43 -81 69 -81 z "},"":{"ha":662,"x_min":0,"x_max":662,"o":"m 201 -98 q 171 -84 182 -96 q 159 -54 159 -72 l 161 5 l 43 6 q 13 19 24 7 q 0 49 1 31 q 13 79 1 67 q 43 92 25 91 l 163 90 l 169 271 q 143 285 153 273 q 133 313 133 297 q 144 342 134 330 q 171 355 155 353 l 179 613 q 145 626 157 613 q 133 656 133 638 q 146 686 134 674 q 176 699 158 699 l 197 699 q 224 708 208 708 q 251 698 240 707 l 620 695 q 650 682 637 694 q 662 652 662 670 q 649 622 661 633 q 619 610 637 610 l 264 612 l 257 355 l 620 352 q 650 339 637 351 q 662 309 662 327 q 649 279 661 291 q 619 267 637 267 l 254 269 l 249 90 l 369 89 q 399 76 387 88 q 411 45 411 64 q 398 15 410 27 q 368 3 386 3 l 246 4 l 245 -56 q 231 -86 243 -74 q 201 -98 219 -98 z "},"":{"ha":465,"x_min":0,"x_max":465,"o":"m 111 -60 q 92 -54 102 -60 q 67 -20 67 -41 q 74 5 67 -9 q 128 230 128 108 l 127 252 q 74 264 99 264 q 46 260 60 264 q 35 258 40 258 q 2 280 11 258 q 0 292 0 286 q 75 333 0 333 q 119 326 97 333 q 113 357 117 342 q 73 364 92 364 q 46 361 58 364 q 34 359 40 359 q 2 380 11 359 q 0 393 0 387 q 24 425 0 416 q 71 433 47 433 q 92 432 81 433 q 83 501 83 469 q 93 566 83 536 q 186 680 120 646 q 261 697 222 697 q 399 631 339 697 q 458 517 438 587 q 460 505 460 511 q 429 464 460 473 q 416 462 422 462 q 393 469 406 462 q 376 493 381 476 q 334 575 360 545 q 260 611 300 611 q 224 603 242 611 q 175 541 189 585 q 169 502 169 523 q 180 437 169 473 q 190 403 185 420 q 264 385 235 385 q 304 395 286 385 q 321 400 313 400 q 351 383 342 400 q 357 366 357 375 q 340 336 357 347 q 268 316 304 316 q 206 326 237 316 q 210 296 209 311 q 267 285 243 285 q 304 295 286 285 q 321 300 313 300 q 351 283 341 300 q 357 265 357 274 q 340 236 357 246 q 267 216 304 216 q 214 222 240 216 q 188 56 214 139 q 340 83 257 80 q 446 54 397 83 q 465 18 465 40 q 457 -5 465 6 q 421 -24 444 -24 q 397 -17 409 -24 q 336 -1 372 -1 q 156 -47 270 -1 q 111 -60 126 -60 z "},"":{"ha":1634,"x_min":0,"x_max":1634,"o":"m 72 -75 q 61 -74 71 -75 q 39 -60 51 -73 q 0 177 0 -12 q 14 456 1 302 q 87 1078 38 747 q 60 1118 60 1090 q 64 1135 60 1126 q 113 1257 100 1217 q 135 1282 119 1274 q 154 1286 144 1286 q 168 1284 161 1286 q 197 1244 195 1273 q 195 1227 197 1236 q 131 767 161 998 q 299 1074 204 928 q 429 1219 361 1166 q 532 1258 480 1258 q 563 1255 547 1258 q 654 1177 624 1236 q 694 992 694 1097 q 612 715 694 844 q 146 428 473 496 l 138 427 q 114 434 126 427 q 97 458 102 441 q 79 152 79 271 q 104 -4 79 30 q 115 -33 115 -18 q 114 -43 115 -35 q 100 -63 113 -52 q 72 -75 87 -75 m 113 505 q 130 512 121 510 q 304 567 228 532 q 540 761 461 638 q 608 989 608 867 q 587 1122 608 1064 q 531 1173 567 1173 q 370 1025 469 1173 q 208 728 279 885 q 113 505 140 581 m 941 -90 q 829 35 861 -90 q 814 203 814 100 q 888 906 819 473 l 730 892 q 708 901 718 892 q 697 926 697 909 q 713 955 697 945 q 757 972 718 958 q 797 985 791 985 q 826 969 816 985 l 899 976 q 937 1199 928 1147 q 954 1227 940 1217 q 978 1236 964 1236 q 1014 1218 1002 1236 q 1023 1193 1023 1206 l 988 984 q 1218 1005 1214 1005 q 1241 996 1230 1005 q 1251 970 1251 987 q 1243 948 1251 958 q 1221 937 1235 939 q 977 914 1136 928 q 899 205 899 440 q 912 54 899 111 q 947 -4 926 -4 q 1004 37 965 -4 q 1178 299 1090 127 q 1216 323 1191 323 q 1236 318 1225 323 q 1259 280 1259 305 q 1177 122 1259 258 q 1065 -24 1126 40 q 941 -90 999 -90 m 1320 -90 l 1309 -90 q 1230 -77 1268 -90 q 1149 -26 1177 -58 q 1126 24 1126 0 q 1132 50 1126 31 q 1302 165 1144 94 l 1324 176 l 1312 214 q 1285 290 1310 218 q 1249 473 1249 398 q 1251 504 1249 488 q 1381 680 1261 624 q 1399 684 1390 684 q 1438 659 1425 684 q 1442 641 1442 650 q 1417 602 1442 615 q 1358 557 1377 584 q 1335 473 1335 524 q 1343 404 1335 443 q 1402 216 1352 357 q 1560 326 1505 269 q 1592 339 1573 339 q 1621 327 1608 339 q 1634 296 1634 314 q 1623 267 1634 279 q 1428 133 1555 196 q 1443 41 1443 83 q 1441 4 1443 33 q 1402 -58 1439 -24 q 1320 -90 1366 -88 m 1310 -4 q 1358 44 1358 -4 q 1350 94 1358 64 q 1242 43 1248 45 q 1217 26 1217 32 q 1252 5 1218 15 q 1310 -4 1286 -4 z "},"":{"ha":545,"x_min":0,"x_max":545,"o":"m 295 -89 q 252 -85 272 -89 q 132 0 170 -67 q 100 161 100 56 q 106 259 100 208 q 74 264 90 264 q 46 260 59 264 q 34 258 40 258 q 2 280 11 258 q 0 292 0 286 q 75 333 0 333 q 119 326 97 333 l 125 353 q 73 364 98 364 q 46 361 59 364 q 33 359 39 359 q 2 380 11 359 q 0 393 0 387 q 23 425 0 416 q 71 433 47 433 q 146 418 108 433 q 244 581 182 516 q 391 645 307 645 q 526 598 454 645 q 545 562 545 584 q 537 538 545 550 q 502 519 524 519 q 478 527 490 519 q 391 559 429 559 q 304 519 343 559 q 228 391 257 470 q 262 385 245 385 q 304 395 285 385 q 321 400 313 400 q 351 383 342 400 q 357 366 357 375 q 340 336 357 347 q 268 316 304 316 q 207 325 237 316 q 201 298 203 312 q 264 284 239 284 q 304 295 286 284 q 321 300 313 300 q 351 283 341 300 q 357 265 357 274 q 340 236 357 246 q 267 215 302 215 q 189 230 232 215 q 184 155 184 189 q 205 43 184 84 q 294 -3 231 -3 q 392 17 334 -3 q 406 19 399 19 q 447 -9 436 19 q 449 -24 449 -17 q 421 -64 449 -53 q 295 -89 349 -89 z "},"":{"ha":780,"x_min":0,"x_max":780,"o":"m 391 -94 q 351 -66 361 -94 q 126 501 214 312 q 69 -85 102 -60 q 43 -94 58 -94 q 9 -78 22 -94 q 0 -48 0 -66 q 45 607 29 186 q 68 666 47 648 q 93 675 79 675 q 113 671 99 675 q 195 557 143 662 q 363 147 259 422 l 402 668 q 416 696 404 686 q 444 707 429 707 q 477 693 465 707 q 488 664 488 681 l 471 427 q 448 123 468 401 l 434 -54 q 406 -92 431 -81 q 391 -94 398 -94 m 593 208 q 535 224 563 208 q 490 288 503 244 q 486 325 486 306 q 505 406 486 370 q 597 463 538 463 q 664 437 632 463 q 713 356 701 406 q 716 328 716 341 q 698 264 716 294 q 624 212 671 224 q 593 208 608 208 m 593 294 q 610 297 600 294 q 625 310 620 301 q 631 328 631 318 q 626 349 631 335 q 609 372 621 362 q 597 376 603 376 q 579 362 587 376 q 571 327 571 348 q 573 309 571 317 q 581 297 576 300 q 593 294 587 294 m 736 98 l 500 100 q 470 113 482 101 q 458 143 458 125 q 471 173 459 161 q 501 186 483 185 l 737 184 q 767 171 755 183 q 780 140 779 159 q 767 111 779 123 q 736 98 755 98 z "},"":{"ha":606,"x_min":0,"x_max":606,"o":"m 302 372 q 272 386 283 372 q 260 416 260 399 l 263 485 q 292 797 269 717 q 361 869 315 869 q 417 819 393 869 q 448 699 433 783 q 479 770 470 747 q 520 857 506 837 q 558 878 538 878 q 598 848 583 878 q 606 762 606 827 q 600 507 606 682 l 597 420 q 584 390 597 401 q 553 378 572 378 q 524 391 536 378 q 512 422 512 404 l 518 647 q 466 541 484 576 q 417 493 439 493 q 388 512 399 493 q 375 560 376 532 q 361 694 371 639 l 361 693 q 349 482 351 582 l 346 412 q 332 383 345 394 q 302 372 319 372 m 132 376 q 98 391 112 376 q 89 420 89 404 q 111 791 109 625 q 44 784 48 784 q 14 794 27 784 q 0 827 0 807 q 10 855 0 842 q 39 869 20 867 q 260 894 150 880 l 266 894 q 294 884 281 894 q 309 852 309 873 q 299 824 309 837 q 271 808 289 811 l 197 800 q 174 414 195 627 q 159 386 172 396 q 132 376 146 376 z "},"":{"ha":439,"x_min":0,"x_max":439,"o":"m 176 -78 q 142 -73 159 -78 q 9 66 45 -43 q 0 129 0 97 q 6 187 0 149 q 55 277 13 225 q 231 382 109 345 q 311 397 267 393 q 328 398 319 398 q 275 566 323 513 q 199 598 245 598 q 119 581 165 598 q 102 577 111 577 q 63 604 75 577 q 60 621 60 612 q 87 660 60 649 q 201 684 150 684 q 331 632 279 684 q 414 394 410 553 q 439 352 439 382 q 412 315 436 325 q 398 220 408 267 q 353 74 379 132 q 176 -78 282 -78 m 172 9 q 275 109 228 9 q 326 313 313 194 q 254 300 286 309 q 87 127 87 248 q 90 96 87 111 q 161 10 107 25 q 172 9 166 9 z "},"":{"ha":756,"x_min":0,"x_max":756,"o":"m 713 -71 l 616 -71 q 43 -68 362 -68 q 12 -56 24 -68 q 0 -26 0 -44 q 13 5 1 -7 q 43 17 24 17 l 57 17 q 336 588 183 271 l 311 638 q 307 656 307 648 q 331 696 307 682 q 349 700 340 700 q 388 675 376 700 q 707 14 418 616 q 744 2 731 14 q 756 -28 756 -10 q 744 -59 755 -47 q 713 -71 732 -71 m 612 15 l 383 489 q 152 17 281 280 l 612 15 z "},"":{"ha":522,"x_min":0,"x_max":522,"o":"m 475 -87 q 445 -75 458 -87 q 433 -45 433 -62 q 435 307 433 106 q 436 592 436 487 l 89 593 q 87 319 87 495 q 85 -41 87 91 q 73 -71 85 -59 q 42 -83 60 -83 q 12 -70 24 -82 q 0 -39 0 -58 q 1 231 1 60 q 4 637 1 637 q 17 667 5 656 q 47 679 29 679 l 478 677 q 508 666 496 677 q 521 635 520 654 q 522 558 522 623 q 518 -45 518 60 q 506 -75 518 -62 q 475 -87 493 -87 z "},"":{"ha":459,"x_min":0,"x_max":459,"o":"m 161 -50 q 35 -37 61 -50 q 13 -5 13 -24 q 18 17 13 5 q 144 273 96 177 l 149 283 l 4 578 q 0 597 0 587 q 24 635 0 623 q 44 640 35 640 q 71 629 58 640 q 80 630 75 630 q 416 629 248 630 q 447 616 435 629 q 459 586 458 604 q 446 556 458 568 q 416 543 434 544 l 116 545 l 247 279 q 251 260 251 269 q 227 221 251 233 q 212 217 220 218 l 123 37 l 408 36 q 437 24 425 36 q 450 -7 450 12 q 437 -37 450 -25 q 407 -50 425 -49 l 274 -49 q 161 -50 198 -50 z "},"":{"ha":410,"x_min":0,"x_max":410,"o":"m 368 252 l 42 254 q 12 267 24 255 q 0 298 0 279 q 13 328 1 316 q 43 340 24 340 l 368 338 q 398 325 387 337 q 410 294 410 313 q 398 264 410 276 q 368 252 386 252 z "},"":{"ha":668,"x_min":0,"x_max":668,"o":"m 338 -89 q 292 -52 311 -89 q 265 35 281 -27 l 155 431 l 58 396 q 43 394 50 394 q 3 422 14 394 q 0 437 0 430 q 28 477 0 465 l 166 526 q 181 529 174 529 q 210 515 196 529 q 230 480 224 502 l 333 111 q 421 412 367 263 q 600 680 489 595 q 626 689 612 689 q 638 687 629 689 q 659 671 648 686 q 668 646 668 659 q 667 633 668 643 q 651 612 665 623 q 500 381 562 542 q 409 61 456 263 q 382 -46 394 -1 q 338 -89 368 -89 z "},"":{"ha":659,"x_min":0,"x_max":659,"o":"m 139 107 q 75 123 103 107 q 21 178 40 143 q 0 261 0 216 q 64 391 0 343 q 168 420 103 420 q 309 382 227 420 q 359 353 334 370 q 535 450 462 450 q 620 414 588 450 q 659 302 659 368 q 615 176 659 227 q 530 137 581 137 q 418 193 481 137 q 366 239 393 217 q 263 151 317 190 q 139 107 197 107 m 138 192 q 296 292 197 192 q 272 305 284 300 q 165 335 208 335 q 114 321 132 335 q 85 260 85 298 q 116 198 85 218 q 138 192 125 192 m 533 225 q 552 234 545 225 q 573 302 573 259 q 557 356 573 336 q 536 365 550 365 q 504 357 526 365 q 428 300 481 350 l 427 300 q 476 256 452 279 q 533 225 511 225 z "},"":{"ha":406,"x_min":0,"x_max":406,"o":"m 69 -84 q 0 -38 0 -84 q 22 0 0 -13 q 41 5 31 5 q 54 3 47 5 l 59 3 q 106 69 88 3 q 132 263 125 146 q 141 516 139 381 q 146 708 143 614 q 171 972 151 852 q 235 1163 190 1093 q 361 1234 280 1234 q 394 1222 382 1234 q 406 1192 406 1209 q 392 1161 406 1173 q 361 1149 379 1149 q 288 1088 314 1149 q 232 705 243 987 q 227 515 229 609 q 217 252 224 375 q 189 46 210 130 q 69 -84 153 -84 z "},"":{"ha":442,"x_min":0,"x_max":442,"o":"m 322 157 q 288 159 319 157 q 201 186 258 161 q 121 206 153 206 q 73 186 95 206 q 43 174 60 174 q 13 187 26 174 q 0 218 0 200 q 13 248 0 235 q 113 295 64 295 q 148 292 118 295 q 231 267 177 290 q 314 245 281 245 q 369 269 343 245 q 401 282 382 282 q 430 270 417 282 q 442 238 442 257 q 430 210 442 222 q 322 157 376 157 m 323 302 q 289 305 319 302 q 201 332 258 307 q 122 352 153 352 q 73 332 96 352 q 45 320 60 320 q 12 332 26 320 q 0 363 0 346 q 13 393 0 380 q 115 440 64 440 q 148 438 119 440 q 231 412 177 435 q 314 391 281 391 q 369 415 343 391 q 399 428 382 428 q 429 415 416 428 q 442 385 442 403 q 430 355 442 368 q 323 302 376 302 z "},"":{"ha":412,"x_min":0,"x_max":412,"o":"m 362 202 q 313 208 342 202 q 135 263 230 225 q 7 366 7 317 q 121 467 7 416 q 327 545 190 498 q 341 547 334 547 q 381 517 370 547 q 383 503 383 510 q 354 463 383 473 q 151 386 223 418 q 115 366 115 371 q 137 355 115 361 q 329 292 254 308 q 363 288 352 288 l 370 288 q 397 278 385 288 q 412 245 412 265 q 401 217 412 230 q 362 202 389 202 m 368 82 l 43 85 q 13 98 24 85 q 0 128 1 110 q 13 158 1 146 q 43 170 25 170 l 368 168 q 399 155 387 167 q 411 125 411 142 q 398 94 410 106 q 368 82 386 82 z "},"":{"ha":412,"x_min":0,"x_max":412,"o":"m 50 202 q 9 218 23 202 q 0 245 0 230 q 16 278 0 265 q 43 288 27 288 l 50 288 q 83 292 60 288 q 275 355 157 308 q 297 366 297 361 q 262 386 297 371 q 58 463 189 418 q 33 485 41 469 q 28 504 28 494 q 52 543 28 530 q 71 547 61 547 q 85 545 77 547 q 291 467 222 498 q 406 366 405 416 q 277 263 406 317 q 99 208 182 225 q 50 202 71 202 m 44 82 q 14 94 26 82 q 1 125 1 106 q 13 155 1 142 q 43 168 25 167 l 369 170 q 399 158 387 170 q 412 128 411 146 q 399 98 412 110 q 370 85 387 85 l 44 82 z "},"":{"ha":2060,"x_min":-19,"x_max":2060,"o":"m 109 -26 q 76 -20 91 -26 q 17 35 39 -5 q -19 200 -19 97 q 50 489 -19 352 q 307 694 139 665 q 356 699 331 699 q 455 686 403 699 q 483 666 473 681 q 489 644 489 655 q 467 604 489 617 q 446 598 457 598 q 434 600 440 598 q 362 608 396 608 q 326 606 343 608 q 197 540 250 592 q 87 334 119 463 q 71 199 71 262 q 74 144 71 170 q 121 60 86 60 q 220 145 159 60 q 416 539 304 262 q 457 567 427 567 q 473 564 465 567 q 502 523 502 552 l 501 515 q 483 317 483 401 l 484 288 q 580 76 486 121 q 656 63 614 63 q 1068 117 755 63 q 1345 160 1207 140 q 1613 181 1497 181 q 1868 97 1816 181 q 1874 75 1874 86 q 1852 37 1874 50 q 1830 31 1841 31 q 1791 52 1805 31 q 1630 96 1764 96 q 1357 72 1525 96 q 1082 29 1221 52 q 716 -22 873 -8 q 668 -24 691 -24 q 554 -8 606 -24 q 425 122 463 25 q 395 278 397 198 q 279 92 334 160 q 109 -26 185 -26 m 1887 91 q 1882 91 1885 91 q 1871 109 1879 92 q 1846 220 1846 164 q 1860 278 1846 254 q 1906 309 1878 309 q 1938 293 1923 309 q 1954 232 1953 277 q 2014 258 1988 258 l 2028 258 q 2053 240 2041 258 q 2060 217 2060 230 q 2053 186 2060 206 q 2008 138 2046 165 q 1938 102 1974 115 q 1887 91 1906 91 z "},"":{"ha":1896,"x_min":-14,"x_max":1896,"o":"m 235 -45 q 203 -38 218 -45 q 153 20 167 -22 q 147 57 147 37 q 190 171 147 111 q 317 255 249 252 l 330 256 q 354 254 342 256 l 363 290 q 375 387 368 318 q 379 483 379 435 q 340 626 379 626 q 291 587 322 626 q 218 466 256 541 q 83 61 119 268 q 75 1 77 17 q 59 -25 72 -15 q 31 -35 46 -35 q -3 -18 9 -35 q -14 10 -14 -5 l -12 68 q 1 359 -11 159 q 117 1270 24 789 q 136 1298 121 1288 q 162 1305 148 1305 q 199 1286 185 1305 q 206 1260 206 1274 l 205 1252 q 93 405 119 806 q 336 704 214 704 q 374 696 355 704 q 470 457 470 652 q 435 214 470 331 q 492 208 456 208 q 906 262 597 208 q 1450 326 1282 326 q 1706 242 1654 326 q 1711 220 1711 231 q 1689 181 1711 195 q 1666 175 1678 175 q 1628 197 1643 175 q 1463 241 1600 241 q 1194 217 1360 241 q 920 174 1059 197 q 554 123 711 136 q 498 121 524 121 q 408 131 444 121 q 235 -45 336 -45 m 240 46 q 254 52 245 46 q 326 166 291 75 q 262 118 296 165 q 234 55 234 79 q 240 46 234 46 m 1724 236 l 1720 236 q 1707 254 1715 237 q 1691 299 1699 272 q 1682 361 1682 333 q 1696 423 1682 399 q 1742 454 1714 454 q 1774 438 1758 454 q 1790 377 1790 422 q 1851 404 1825 404 q 1889 385 1878 404 q 1896 361 1896 375 q 1889 331 1896 351 q 1844 283 1883 311 q 1775 247 1810 260 q 1724 236 1742 236 z "},"":{"ha":2038,"x_min":-14,"x_max":2038,"o":"m 2000 91 l 1996 91 q 1944 103 1978 91 q 1876 138 1910 115 q 1824 216 1824 176 q 1830 240 1824 230 q 1870 258 1842 258 q 1929 232 1895 258 q 1948 295 1931 277 q 1978 309 1962 309 q 2024 277 2005 309 q 2038 216 2038 254 q 2013 109 2037 162 q 2000 91 2005 92 m 244 -23 q 175 -19 214 -23 q 96 5 136 -15 q 29 66 56 25 q -9 174 1 106 q -14 232 -14 202 q 52 488 -14 356 q 212 670 115 612 q 305 696 257 696 q 399 645 372 693 q 415 586 415 616 q 404 528 415 558 q 380 503 397 510 q 363 498 372 498 q 347 502 355 498 q 321 525 329 509 q 317 543 317 534 q 320 559 317 551 q 326 585 326 573 q 304 606 326 606 q 258 595 281 606 q 132 447 186 554 q 85 313 100 383 q 76 231 76 271 q 79 187 76 209 q 138 86 92 112 q 243 64 176 64 q 288 66 264 64 q 641 117 431 81 q 918 160 779 140 q 1185 181 1070 181 q 1440 97 1389 181 q 1447 75 1447 86 q 1424 37 1447 50 q 1402 31 1413 31 q 1363 52 1377 31 q 1203 96 1336 96 q 929 72 1097 96 q 655 29 793 52 q 289 -22 446 -8 q 244 -23 266 -23 m 1459 91 q 1427 154 1443 91 q 1417 220 1417 189 q 1431 278 1417 254 q 1478 309 1449 309 q 1509 293 1494 309 q 1526 232 1525 277 q 1586 258 1560 258 l 1600 258 q 1625 240 1613 258 q 1631 217 1631 230 q 1624 186 1631 206 q 1579 138 1617 165 q 1510 102 1545 115 q 1459 91 1477 91 z "},"":{"ha":2079,"x_min":-19,"x_max":2079,"o":"m 113 -27 q 16 35 51 -27 q -19 200 -19 97 q 1 355 -19 273 q 61 512 20 437 q 163 637 102 587 q 323 695 235 695 q 421 670 401 695 q 431 643 430 658 q 505 1053 451 827 q 569 1256 533 1164 q 610 1284 581 1284 q 627 1280 618 1284 q 655 1240 655 1268 q 652 1223 655 1232 q 595 1038 620 1141 q 526 675 548 842 q 503 396 503 514 q 528 188 503 269 q 665 68 559 88 q 747 60 704 60 q 989 97 824 60 q 1364 160 1101 123 q 1632 181 1517 181 q 1887 97 1836 181 q 1893 75 1893 86 q 1872 37 1893 50 q 1849 31 1860 31 q 1811 52 1824 31 q 1650 96 1784 96 q 1377 72 1544 96 q 1005 11 1137 37 q 739 -25 831 -25 q 646 -18 691 -25 q 445 153 498 7 q 418 304 423 220 l 417 319 q 281 97 343 180 q 182 -3 235 34 q 113 -27 148 -27 m 121 60 q 159 77 136 60 q 321 318 216 117 q 407 504 379 427 q 427 604 420 543 q 429 632 427 617 q 409 604 425 614 q 386 597 399 597 q 375 599 380 597 q 328 605 351 605 q 219 564 269 605 q 136 459 168 522 q 71 199 71 334 q 74 144 71 170 q 121 60 85 60 m 1906 91 q 1874 154 1891 91 q 1864 219 1864 189 q 1879 278 1864 254 q 1925 309 1897 309 q 1956 293 1941 309 q 1973 232 1971 277 q 2032 258 2007 258 l 2047 258 q 2072 240 2060 258 q 2079 217 2079 230 q 2071 186 2079 206 q 2026 138 2064 165 q 1957 102 1992 115 q 1906 91 1925 91 z "},"":{"ha":1632,"x_min":-11,"x_max":1632,"o":"m 241 -23 q 185 -21 218 -23 q 115 -3 152 -18 q -11 252 -11 56 q -3 336 -11 295 q 68 547 20 454 q 195 698 134 670 q 248 711 222 711 q 330 659 304 711 q 341 598 341 629 q 266 437 341 519 q 86 323 197 363 q 78 245 78 286 q 82 185 78 216 q 227 63 101 63 q 641 117 328 63 q 918 160 779 140 q 1185 181 1070 181 q 1440 97 1389 181 q 1447 75 1447 86 q 1424 37 1447 50 q 1402 31 1413 31 q 1363 52 1377 31 q 1203 96 1336 96 q 929 72 1097 96 q 655 29 793 52 q 289 -22 446 -8 q 241 -23 264 -23 m 117 434 q 131 442 124 437 q 201 498 172 467 q 254 606 252 553 q 250 619 254 615 q 245 621 248 621 q 235 618 241 621 q 148 507 198 602 q 117 434 131 473 m 1459 91 q 1427 154 1443 91 q 1417 220 1417 189 q 1431 278 1417 254 q 1478 309 1449 309 q 1509 293 1494 309 q 1526 232 1525 277 q 1586 258 1560 258 l 1600 258 q 1625 240 1613 258 q 1632 217 1632 230 q 1625 186 1632 206 q 1579 138 1617 165 q 1510 102 1545 115 q 1459 91 1477 91 z "},"":{"ha":1587,"x_min":-79,"x_max":1587,"o":"m 78 -842 q -1 -803 35 -842 q -56 -694 -37 -765 q -79 -443 -79 -593 q -77 -369 -79 -408 q -11 271 -64 -62 q 52 619 20 465 q 119 876 93 811 q 159 904 130 904 q 177 901 168 904 q 205 860 205 888 q 201 842 205 852 q 139 600 178 782 q 65 176 100 411 q 90 184 77 184 q 115 176 102 184 q 182 164 134 164 q 596 218 286 164 q 873 261 735 242 q 1147 282 1027 282 q 1396 199 1344 282 q 1402 176 1402 188 q 1380 138 1402 152 q 1357 132 1369 132 q 1319 154 1332 132 q 1160 197 1292 197 q 610 130 1001 197 q 244 80 401 93 q 186 78 213 78 l 173 78 q 228 -63 211 -3 q 271 -393 269 -215 q 205 -736 271 -602 q 78 -842 148 -842 m 77 -751 q 125 -696 96 -751 q 181 -401 181 -583 q 141 -86 181 -233 q 62 96 111 31 q 55 105 58 100 q 12 -372 20 -148 q 10 -441 10 -408 q 31 -672 10 -581 q 77 -751 49 -749 m 1413 192 q 1382 255 1400 192 q 1373 321 1373 290 q 1386 380 1373 356 q 1433 410 1404 410 q 1481 333 1479 410 q 1542 360 1516 360 q 1580 342 1569 360 q 1587 319 1587 332 q 1580 288 1587 308 q 1535 239 1573 267 q 1465 203 1501 216 q 1413 192 1432 192 z "},"":{"ha":1918,"x_min":-19,"x_max":1918,"o":"m 140 -840 q 43 -770 81 -837 q 7 -598 7 -702 q 22 -458 7 -534 q 119 -234 52 -330 q 360 -15 205 -112 q 391 274 380 146 q 279 91 342 176 q 109 -27 185 -27 q 76 -20 92 -27 q 16 35 39 -5 q -19 197 -19 96 q 1 355 -19 271 q 50 489 18 425 q 307 694 139 665 q 356 699 331 699 q 454 686 402 699 q 482 665 473 681 q 489 642 489 655 q 467 604 489 617 q 444 597 456 597 q 433 599 439 597 q 362 608 396 608 q 325 605 343 608 q 129 446 198 583 q 70 201 70 329 q 74 144 70 172 q 121 60 85 60 q 220 144 159 60 q 349 381 293 253 q 413 533 383 458 q 455 568 422 568 q 472 564 463 568 q 501 522 501 554 l 501 517 q 486 357 492 437 q 454 17 481 242 q 523 22 484 22 q 575 20 547 22 q 941 -31 732 6 q 1216 -74 1080 -54 q 1489 -98 1383 -98 q 1650 -54 1623 -98 q 1689 -33 1663 -33 q 1711 -39 1699 -33 q 1733 -77 1733 -52 q 1727 -99 1733 -88 q 1472 -183 1675 -183 q 1204 -161 1356 -183 q 927 -119 1066 -142 q 515 -65 613 -65 q 446 -76 465 -65 q 441 -79 444 -78 q 140 -840 340 -837 m 143 -749 q 166 -736 153 -749 q 224 -637 195 -707 q 343 -134 294 -460 q 193 -284 251 -201 q 110 -477 134 -367 q 96 -598 96 -543 q 119 -726 96 -675 q 143 -749 130 -749 m 1764 -311 q 1716 -279 1735 -311 q 1704 -222 1704 -256 q 1729 -111 1705 -163 q 1746 -93 1737 -93 q 1798 -105 1764 -93 q 1866 -140 1832 -117 q 1918 -219 1918 -178 q 1911 -242 1918 -232 q 1872 -260 1900 -260 q 1812 -234 1846 -260 q 1793 -297 1811 -279 q 1764 -311 1780 -311 z "},"":{"ha":1980,"x_min":-16,"x_max":1980,"o":"m 27 -41 q -7 -24 6 -41 q -16 3 -16 -13 q -3 326 -10 203 q 53 852 8 541 q 126 1253 81 1044 q 146 1280 131 1271 q 170 1287 157 1287 q 208 1267 195 1287 q 214 1243 214 1256 l 214 1234 q 141 837 167 1015 q 90 374 102 570 q 320 700 208 700 q 340 697 330 700 q 421 580 401 681 q 429 456 429 519 q 427 393 429 425 q 425 309 425 355 q 427 239 425 279 q 444 156 429 199 q 511 75 467 91 q 581 63 540 63 q 989 117 682 63 q 1266 159 1128 140 q 1540 180 1420 180 q 1789 97 1737 180 q 1795 75 1795 86 q 1773 36 1795 50 q 1750 30 1762 30 q 1712 52 1725 30 q 1547 96 1685 96 q 1004 28 1397 96 q 637 -22 794 -9 q 595 -24 615 -24 q 477 -3 528 -24 q 363 128 405 26 q 339 233 344 177 q 334 358 334 288 q 335 422 334 389 q 337 487 337 456 q 317 610 337 610 q 291 584 310 610 q 106 134 196 457 q 72 -3 85 59 q 56 -32 68 -22 q 27 -41 43 -41 m 1808 91 q 1775 154 1793 91 q 1766 220 1766 189 q 1780 278 1766 254 q 1826 309 1798 309 q 1858 293 1843 309 q 1874 232 1873 277 q 1935 258 1909 258 q 1973 240 1961 258 q 1980 217 1980 230 q 1973 186 1980 206 q 1928 137 1966 165 q 1858 102 1894 115 q 1808 91 1826 91 z "},"":{"ha":1609,"x_min":-8,"x_max":1609,"o":"m 1437 91 l 1433 91 q 1420 109 1428 92 q 1395 220 1395 164 q 1409 278 1395 254 q 1455 309 1428 309 q 1487 293 1472 309 q 1503 232 1502 277 q 1565 258 1538 258 q 1603 240 1591 258 q 1609 217 1609 230 q 1602 186 1609 206 q 1557 137 1595 165 q 1487 102 1523 115 q 1437 91 1455 91 m 189 724 l 184 724 q 172 742 180 724 q 146 852 146 797 q 161 911 146 887 q 207 941 179 941 q 238 925 223 941 q 255 865 254 909 q 316 891 290 891 q 354 873 342 891 q 361 850 361 863 q 354 819 361 839 q 309 770 347 798 q 239 734 275 747 q 189 724 207 724 m 273 -26 q -7 197 6 -26 l -8 231 q 109 670 -8 410 q 149 696 122 696 q 168 692 158 696 q 194 652 194 680 q 191 634 194 643 q 123 458 148 538 q 78 231 78 321 q 115 111 78 156 q 271 60 157 60 q 449 75 347 60 q 686 117 591 96 q 925 160 806 141 q 1169 180 1053 180 q 1418 97 1367 180 q 1424 75 1424 86 q 1402 36 1424 50 q 1379 30 1391 30 q 1341 52 1354 30 q 1176 96 1314 96 q 942 74 1081 96 q 692 29 762 45 q 273 -26 406 -26 z "},"":{"ha":1503,"x_min":-389,"x_max":1503,"o":"m -258 -840 l -261 -840 q -372 -728 -343 -837 q -389 -593 -389 -662 q -378 -479 -389 -537 q -273 -226 -350 -337 q -40 -14 -191 -109 q -3 321 -18 165 q 21 647 10 484 q 36 677 23 666 q 65 688 49 688 q 100 673 86 688 q 111 642 111 661 q 56 18 86 277 q 105 20 79 20 q 161 18 132 20 q 528 -33 318 5 q 1076 -100 918 -100 q 1236 -56 1208 -100 q 1274 -34 1250 -34 q 1297 -40 1286 -34 q 1318 -79 1318 -54 q 1313 -101 1318 -90 q 1057 -184 1261 -184 q 790 -163 943 -184 q 513 -121 652 -144 q 100 -66 204 -66 q 44 -73 64 -66 q 10 -284 31 -168 q -80 -644 -26 -495 q -146 -771 -109 -722 q -258 -840 -200 -840 m -255 -749 q -218 -721 -240 -749 q -163 -612 -190 -684 q -56 -134 -101 -439 q -293 -502 -250 -273 q -302 -591 -302 -547 q -287 -703 -302 -648 q -255 -749 -275 -749 m 1349 -313 q 1303 -281 1322 -313 q 1289 -220 1289 -258 q 1314 -113 1290 -165 q 1331 -94 1323 -94 q 1383 -106 1350 -94 q 1451 -141 1417 -118 q 1503 -220 1503 -179 q 1497 -244 1503 -233 q 1459 -262 1485 -262 q 1398 -235 1432 -262 q 1379 -299 1397 -281 q 1349 -313 1365 -313 m 58 724 q 8 771 45 724 q -35 874 -35 827 q -33 898 -35 880 q -13 928 -31 916 q 10 937 -2 937 q 36 929 19 937 q 71 881 52 922 q 137 933 100 933 q 159 926 149 933 q 179 880 179 912 q 155 814 179 852 q 104 754 133 779 q 58 724 76 730 z "},"":{"ha":1754,"x_min":-16,"x_max":1754,"o":"m 27 -41 q -7 -24 6 -41 q -16 6 -16 -12 q -14 58 -15 18 q 53 852 -7 429 q 127 1253 84 1061 q 146 1280 131 1271 q 170 1287 157 1287 q 208 1267 195 1287 q 215 1243 215 1256 l 214 1234 q 141 837 173 1048 q 90 374 103 570 q 117 443 103 410 q 348 701 195 620 q 368 705 358 705 q 408 682 395 705 q 412 661 412 671 q 389 621 412 635 q 277 531 322 585 q 180 291 180 418 q 227 125 180 199 q 296 69 258 80 q 363 62 322 62 q 469 71 407 62 q 720 109 613 89 q 1314 180 1118 180 q 1564 97 1512 180 q 1570 74 1570 86 q 1548 36 1570 50 q 1525 30 1537 30 q 1487 52 1501 30 q 1321 96 1459 96 q 1053 72 1224 96 q 728 20 842 41 q 475 -18 614 -1 q 374 -24 420 -24 q 273 -14 316 -24 q 159 68 209 1 q 116 168 129 111 q 73 -3 83 53 q 56 -32 68 -22 q 27 -41 43 -41 m 1582 91 l 1578 91 q 1565 109 1573 92 q 1550 154 1557 127 q 1540 216 1540 188 q 1554 278 1540 254 q 1600 309 1573 309 q 1632 293 1617 309 q 1649 232 1648 277 q 1710 258 1684 258 q 1748 240 1736 258 q 1754 216 1754 230 q 1748 185 1754 205 q 1702 137 1741 165 q 1633 102 1668 115 q 1582 91 1600 91 z "},"":{"ha":1681,"x_min":-8,"x_max":1681,"o":"m 1508 91 l 1504 91 q 1491 109 1499 92 q 1476 154 1483 127 q 1466 216 1466 188 q 1480 278 1466 254 q 1527 309 1499 309 q 1558 293 1543 309 q 1575 232 1573 277 q 1636 258 1609 258 q 1674 240 1662 258 q 1681 216 1681 230 q 1673 185 1681 205 q 1628 137 1666 165 q 1558 102 1594 115 q 1508 91 1527 91 m 334 -26 q 293 -25 313 -26 q 45 127 119 -14 q -8 428 -8 242 q 2 595 -8 505 q 64 991 27 808 q 111 1203 92 1122 q 122 1252 117 1232 q 141 1280 126 1271 q 165 1287 152 1287 q 203 1267 191 1287 q 210 1243 210 1256 q 197 1179 210 1235 q 85 580 119 868 q 76 420 76 492 q 88 264 76 336 q 195 91 109 134 q 342 62 253 62 q 601 99 439 62 q 967 159 724 126 q 1240 180 1121 180 q 1489 97 1439 180 q 1495 75 1495 86 q 1474 36 1495 50 q 1451 30 1462 30 q 1413 52 1427 30 q 1247 96 1385 96 q 979 72 1150 96 q 610 11 745 38 q 334 -26 437 -26 z "},"":{"ha":2234,"x_min":-16,"x_max":2234,"o":"m 37 -23 q 1 -12 17 -23 q -15 20 -14 -1 l -15 35 q -16 62 -15 49 q -16 96 -16 76 q -15 150 -16 117 q 0 422 -7 326 q 15 453 1 441 q 45 464 28 464 q 81 445 68 464 q 129 580 105 528 q 235 683 176 683 q 293 652 270 683 q 353 317 345 581 q 482 613 410 496 q 607 708 544 708 q 627 705 617 708 q 696 554 696 683 q 686 423 696 494 q 675 291 675 335 q 752 85 675 137 q 814 67 780 68 l 831 67 q 1243 121 935 67 q 1787 185 1619 185 q 2043 101 1991 185 q 2049 78 2049 90 q 2026 40 2049 54 q 2004 34 2016 34 q 1966 56 1979 34 q 1801 100 1938 100 q 1531 76 1697 100 q 1257 33 1396 56 q 891 -18 1048 -5 q 836 -20 863 -20 q 773 -16 810 -20 q 696 12 736 -12 q 610 136 633 56 q 589 294 589 205 q 602 464 589 355 q 612 585 612 551 q 602 617 612 617 q 557 565 591 617 q 448 321 499 470 l 435 284 q 353 15 370 103 q 336 -14 351 -3 q 309 -22 324 -22 q 275 -6 289 -22 q 265 25 265 7 q 270 137 270 77 q 269 250 270 199 l 268 316 q 250 548 268 444 q 236 592 241 592 q 220 566 231 592 q 210 543 216 555 q 143 329 177 470 q 85 9 121 237 q 68 -15 82 -7 q 37 -23 54 -23 m 2061 95 q 2056 95 2059 95 q 2044 113 2053 96 q 2029 158 2036 131 q 2020 224 2020 193 q 2033 282 2020 258 q 2080 313 2051 313 q 2111 297 2096 313 q 2128 236 2127 281 q 2189 262 2163 262 q 2227 244 2215 262 q 2234 221 2234 234 q 2227 190 2234 210 q 2181 141 2220 170 q 2112 106 2147 119 q 2061 95 2079 95 z "},"":{"ha":1954,"x_min":-41,"x_max":1954,"o":"m 570 -20 q 309 180 347 -20 q 298 308 298 235 q 301 396 298 354 q 309 553 309 498 q 302 621 309 616 l 301 621 q 273 600 292 621 q 107 237 194 507 q 58 59 67 109 l 51 29 q 7 -20 39 -20 q -31 -3 -16 -20 q -41 26 -41 8 q -12 254 -41 34 q 14 460 3 364 q 30 490 17 479 q 60 500 43 500 q 100 473 87 500 l 108 491 q 300 710 203 710 q 338 703 319 710 q 398 596 395 675 l 399 576 q 389 431 399 531 q 382 298 382 349 q 391 204 382 251 q 460 88 409 115 q 559 67 496 67 q 611 70 584 67 q 964 121 755 84 q 1508 185 1341 185 q 1763 101 1713 185 q 1769 79 1769 90 q 1748 40 1769 54 q 1725 34 1737 34 q 1687 56 1701 34 q 1521 100 1659 100 q 1253 76 1419 100 q 979 33 1117 56 q 612 -18 769 -5 q 570 -20 590 -20 m 1782 95 l 1778 95 q 1765 113 1773 96 q 1750 158 1757 131 q 1740 220 1740 192 q 1754 282 1740 258 q 1801 313 1773 313 q 1832 297 1817 313 q 1849 236 1847 281 q 1910 262 1883 262 q 1948 244 1936 262 q 1954 220 1954 234 q 1947 190 1954 210 q 1902 141 1940 170 q 1832 106 1868 119 q 1782 95 1801 95 z "},"":{"ha":1714,"x_min":-24,"x_max":1714,"o":"m 120 -29 q -7 70 34 -29 q -24 177 -24 114 q -7 315 -24 241 q 12 342 -2 333 q 37 349 23 349 l 44 349 l 44 368 q 55 490 44 431 q 142 651 71 581 q 267 705 205 705 q 368 660 326 705 q 420 488 420 605 q 414 409 420 450 q 376 257 401 328 q 294 89 351 181 l 304 89 q 723 143 412 89 q 1000 186 862 167 q 1267 207 1153 207 q 1522 123 1470 207 q 1529 101 1529 112 q 1507 62 1529 77 q 1485 56 1495 56 q 1446 78 1460 56 q 1285 122 1419 122 q 737 55 1128 122 q 371 5 528 18 q 315 3 340 3 q 225 12 262 3 q 120 -29 178 -29 m 209 124 q 290 283 257 189 q 326 425 314 347 q 331 488 331 458 q 325 551 331 521 q 265 615 310 615 q 203 585 237 615 q 142 472 155 538 q 133 369 133 420 q 209 124 133 197 m 121 60 q 142 64 131 60 q 65 198 92 115 l 65 183 q 77 101 65 133 q 121 60 92 60 m 1541 117 q 1509 180 1527 117 q 1499 246 1499 215 q 1514 304 1499 281 q 1559 335 1532 335 q 1608 258 1606 335 q 1669 285 1643 285 q 1707 267 1695 285 q 1714 243 1714 256 q 1707 212 1714 233 q 1662 163 1699 191 q 1592 128 1628 140 q 1541 117 1560 117 z "},"":{"ha":1957,"x_min":-128,"x_max":1957,"o":"m -80 -833 q -117 -817 -103 -833 q -128 -783 -128 -804 q -113 -611 -128 -766 q 10 432 -77 -234 q 28 462 14 451 q 54 471 39 471 q 90 454 77 471 q 99 427 99 441 l 99 420 q 73 220 87 329 q 98 300 85 261 q 263 634 165 504 q 385 708 323 708 q 422 700 404 708 q 519 456 519 656 q 486 224 519 340 q 553 214 505 214 q 966 268 658 214 q 1243 311 1105 292 q 1510 332 1396 332 q 1766 248 1714 332 q 1772 225 1772 237 q 1750 187 1772 201 q 1727 181 1739 181 q 1689 203 1703 181 q 1524 248 1661 248 q 1255 223 1421 248 q 981 180 1119 203 q 614 130 771 143 q 559 127 585 127 q 458 140 497 127 q 420 60 441 97 q 352 -18 396 17 q 284 -43 317 -43 q 244 -34 264 -43 q 201 22 213 -17 q 197 57 197 38 q 206 114 197 83 q 294 232 233 189 q 378 260 332 260 q 402 258 390 260 q 423 391 415 307 q 427 487 427 439 q 397 627 427 607 q 389 630 393 630 q 338 590 370 630 q 183 275 246 466 q 102 -15 136 133 q 8 -522 58 -215 q -38 -798 -13 -660 q -80 -833 -46 -833 m 288 50 q 302 56 293 50 q 374 170 339 79 q 310 122 344 169 q 282 59 282 84 q 288 50 282 50 m 1784 242 l 1780 242 q 1767 260 1775 243 q 1752 305 1759 278 q 1742 368 1742 339 q 1756 429 1742 405 q 1803 460 1775 460 q 1834 444 1819 460 q 1851 383 1850 428 q 1912 410 1886 410 q 1950 391 1938 410 q 1957 368 1957 381 q 1950 337 1957 357 q 1904 289 1943 317 q 1835 253 1870 266 q 1784 242 1803 242 z "},"":{"ha":1977,"x_min":-16,"x_max":1977,"o":"m 1805 193 q 1772 256 1790 193 q 1763 318 1763 290 q 1777 380 1763 355 q 1823 410 1795 410 q 1855 394 1839 410 q 1871 334 1870 378 q 1931 360 1905 360 l 1945 360 q 1970 342 1959 360 q 1977 318 1977 332 q 1970 287 1977 307 q 1925 239 1963 267 q 1855 204 1891 216 q 1805 193 1823 193 m 468 -838 q 308 -426 308 -838 q 366 223 313 -117 q 282 95 328 154 q 112 -23 188 -23 q 79 -16 94 -23 q 20 39 42 -1 q -16 203 -16 101 q 54 493 -16 355 q 310 699 142 669 q 359 703 334 703 q 458 690 406 703 q 486 698 471 698 q 505 694 494 698 q 534 661 534 685 l 534 652 q 453 176 495 476 q 480 184 465 184 q 505 176 494 184 q 574 165 524 165 q 987 218 673 165 q 1263 262 1125 242 q 1531 283 1416 283 q 1786 199 1735 283 q 1792 177 1792 188 q 1770 138 1792 151 q 1748 132 1759 132 q 1709 154 1723 132 q 1548 198 1682 198 q 1275 174 1442 198 q 1001 131 1139 154 q 583 79 707 79 l 568 79 q 623 -80 602 5 q 659 -395 659 -242 q 593 -732 659 -599 q 468 -838 536 -838 m 123 64 q 223 149 163 64 q 410 522 314 280 q 422 557 418 542 l 433 604 q 366 612 398 612 q 328 609 347 612 q 200 544 252 596 q 90 338 121 467 q 73 205 73 267 q 77 148 73 176 q 123 64 89 64 m 465 -747 q 513 -692 485 -747 q 570 -397 570 -576 q 530 -83 568 -224 q 477 56 509 -2 q 444 109 468 75 q 399 -441 399 -212 q 420 -669 399 -578 q 465 -747 437 -745 z "},"":{"ha":1999,"x_min":-27,"x_max":1999,"o":"m 1825 273 q 1794 336 1812 273 q 1785 403 1785 372 q 1799 461 1785 437 q 1845 492 1817 492 q 1893 414 1891 492 q 1954 441 1928 441 q 1992 423 1981 441 q 1999 400 1999 413 q 1992 369 1999 389 q 1947 320 1985 349 q 1877 285 1913 298 q 1825 273 1844 273 m 17 -34 q -16 -19 -2 -34 q -27 12 -27 -6 q -12 235 -27 35 q 4 444 -1 361 q 18 474 5 463 q 49 486 31 486 q 88 461 75 486 l 92 472 q 239 699 160 657 q 280 710 260 710 q 296 708 288 710 q 369 562 353 696 q 489 288 398 349 q 659 245 552 245 q 720 248 688 245 q 911 281 818 260 q 1285 342 1030 307 q 1559 363 1439 363 q 1808 280 1756 363 q 1814 258 1814 269 q 1792 219 1814 233 q 1769 213 1781 213 q 1731 235 1746 213 q 1572 279 1704 279 q 1297 255 1466 279 q 940 197 1080 224 q 663 162 764 162 q 557 171 608 162 q 342 330 413 199 q 281 549 299 416 q 280 561 280 553 q 268 606 277 606 q 254 595 262 606 q 110 229 179 496 q 62 4 73 84 q 46 -24 58 -14 q 17 -34 33 -34 z "},"":{"ha":1603,"x_min":-41,"x_max":1603,"o":"m 1431 208 q 1398 271 1416 208 q 1389 334 1389 305 q 1403 395 1389 372 q 1449 427 1422 427 q 1481 410 1465 427 q 1497 349 1497 394 q 1558 376 1532 376 q 1596 358 1585 376 q 1603 334 1603 347 q 1596 303 1603 323 q 1551 255 1589 283 q 1482 220 1517 232 q 1431 208 1449 208 m 62 -54 q 4 -30 31 -54 q -32 66 -32 7 q 6 166 -32 128 q 45 191 24 183 q -12 359 30 241 q -41 513 -41 448 q -14 633 -41 588 q 114 709 34 709 q 212 670 167 709 q 264 561 258 631 q 265 555 265 558 q 252 524 265 536 q 220 511 239 511 q 189 524 201 511 q 176 555 176 536 q 154 604 172 587 q 114 620 135 620 q 64 589 83 620 q 49 516 49 564 q 81 364 49 458 q 140 187 127 233 q 200 180 160 180 q 613 235 301 180 q 890 277 751 258 q 1157 298 1043 298 q 1413 215 1360 298 q 1418 193 1418 204 q 1396 154 1418 167 q 1374 148 1385 148 q 1335 170 1349 148 q 1175 214 1308 214 q 901 189 1069 214 q 627 146 766 170 q 207 94 332 94 q 159 96 182 94 q 161 64 161 79 q 85 -50 161 -28 q 62 -54 73 -54 m 66 37 q 72 59 72 37 q 66 102 70 100 q 60 85 64 102 q 58 66 58 75 q 59 53 58 59 q 66 37 62 37 z "},"":{"ha":1674,"x_min":-239,"x_max":1674,"o":"m 1499 92 q 1469 155 1487 92 q 1459 218 1459 190 q 1474 279 1459 255 q 1520 310 1492 310 q 1552 294 1536 310 q 1568 233 1567 278 q 1629 260 1603 260 q 1667 241 1655 260 q 1674 217 1674 231 q 1667 186 1674 207 q 1622 138 1660 166 q 1553 103 1588 115 q 1499 92 1518 92 m 298 -21 q 34 153 94 -21 q -5 429 -5 267 q 52 907 -5 597 q -92 917 -41 917 q -168 898 -166 917 q -179 873 -169 883 q -205 864 -190 864 q -230 876 -220 865 q -239 901 -239 886 q -213 957 -237 937 q -81 988 -174 988 q 65 978 -26 988 q 114 1205 79 1053 q 125 1253 121 1234 q 144 1282 130 1272 q 169 1289 155 1289 q 206 1268 193 1289 q 213 1244 213 1257 q 200 1181 213 1236 q 153 968 164 1031 q 287 958 247 958 q 330 968 324 958 q 347 989 334 982 q 363 993 355 993 q 374 991 368 993 q 399 957 399 983 q 398 946 399 951 q 265 890 378 890 q 138 898 207 890 q 89 581 107 745 q 80 427 80 497 q 81 387 80 407 q 110 186 81 272 q 297 66 153 66 q 330 67 313 66 q 684 118 474 81 q 960 161 822 142 q 1227 182 1114 182 q 1483 98 1431 182 q 1489 75 1489 87 q 1467 37 1489 52 q 1444 31 1456 31 q 1406 53 1420 31 q 1246 97 1379 97 q 698 30 1088 97 q 298 -21 433 -18 z "},"":{"ha":2011,"x_min":-14,"x_max":2011,"o":"m 1836 90 q 1822 107 1830 90 q 1806 153 1813 125 q 1796 219 1796 188 q 1810 277 1796 254 q 1857 308 1828 308 q 1905 231 1903 308 q 1966 258 1940 258 q 2004 239 1992 258 q 2011 216 2011 229 q 2004 185 2011 205 q 1958 136 1997 165 q 1890 102 1925 114 q 1836 90 1855 90 m 97 -33 l 94 -33 q -14 180 -14 -21 q -10 252 -14 214 q 22 477 0 368 q 56 662 47 612 q 74 691 59 680 q 100 699 85 699 q 136 681 123 699 q 144 655 144 669 q 110 462 142 622 q 75 162 75 288 q 100 57 75 60 q 137 91 113 57 q 203 220 170 139 q 306 541 264 378 q 341 662 322 603 q 383 692 351 692 q 421 671 408 692 q 428 649 428 661 q 418 438 418 537 q 449 190 418 290 q 523 81 476 105 q 616 62 559 62 q 667 65 640 62 q 1020 116 810 79 q 1297 159 1159 140 q 1571 180 1451 180 q 1820 96 1768 180 q 1826 74 1826 85 q 1804 35 1826 50 q 1781 29 1792 29 q 1743 52 1756 29 q 1577 96 1715 96 q 1034 28 1428 96 q 668 -22 825 -9 q 626 -24 646 -24 q 487 4 545 -24 q 368 153 412 41 q 334 319 340 230 q 286 186 311 250 q 210 39 250 98 q 97 -33 160 -33 z "},"":{"ha":1885,"x_min":-11,"x_max":1885,"o":"m 106 -33 l 102 -33 q -8 132 5 -24 q -11 205 -11 167 q 10 468 -11 288 q 24 643 24 581 l 24 661 q 35 690 24 677 q 69 705 49 705 q 98 694 85 705 q 113 665 111 683 l 114 644 q 99 458 114 574 q 77 177 77 278 q 78 139 77 157 q 108 56 81 62 q 148 89 123 56 q 227 220 188 140 q 200 422 200 323 q 279 679 200 614 q 333 697 306 697 q 413 645 386 697 q 428 571 428 609 q 407 442 428 511 q 323 215 374 328 q 404 87 351 120 q 500 65 437 65 q 541 67 519 65 q 895 118 685 81 q 1171 161 1034 142 q 1439 182 1324 182 q 1694 98 1642 182 q 1700 76 1700 87 q 1678 37 1700 52 q 1656 31 1667 31 q 1617 53 1632 31 q 1458 97 1590 97 q 909 30 1299 97 q 543 -20 699 -7 q 502 -22 522 -22 q 363 10 419 -22 q 269 111 311 41 q 106 -33 184 -33 m 294 383 q 338 569 336 496 q 338 581 338 573 q 336 597 337 589 q 333 608 335 604 q 294 420 294 584 q 294 383 294 399 m 1711 92 q 1681 155 1698 92 q 1671 220 1671 190 q 1685 279 1671 256 q 1731 310 1704 310 q 1780 233 1777 310 q 1841 260 1814 260 q 1879 241 1867 260 q 1885 218 1885 231 q 1878 187 1885 208 q 1833 138 1871 166 q 1765 103 1799 115 q 1711 92 1730 92 z "},"":{"ha":2163,"x_min":-11,"x_max":2163,"o":"m 1989 92 q 1959 155 1976 92 q 1949 221 1949 190 q 1963 279 1949 256 q 2009 310 1981 310 q 2058 233 2056 310 q 2119 260 2092 260 q 2157 241 2145 260 q 2163 218 2163 231 q 2156 187 2163 208 q 2111 138 2149 166 q 2042 103 2077 115 q 1989 92 2007 92 m 380 -33 l 376 -33 q 267 132 279 -24 q 184 7 229 47 q 107 -27 144 -27 q 29 20 62 -27 q -11 197 -11 77 q -9 241 -11 218 q 45 634 3 415 q 56 692 52 671 q 73 722 58 711 q 100 731 85 731 q 136 713 122 731 q 144 686 144 701 q 133 618 144 676 q 78 178 78 319 q 109 69 78 69 q 201 210 146 69 q 283 473 249 340 q 330 510 294 510 q 367 488 356 510 q 374 461 374 475 q 369 416 374 451 q 351 172 351 265 l 352 139 q 382 56 355 62 q 501 220 417 56 q 475 422 475 323 q 554 679 475 615 q 608 697 581 697 q 687 645 661 697 q 703 573 703 610 q 682 442 703 512 q 597 215 648 325 q 670 87 627 116 q 764 64 703 64 q 1173 118 865 64 q 1449 161 1312 142 q 1717 182 1603 182 q 1972 98 1920 182 q 1978 76 1978 87 q 1957 37 1978 52 q 1934 31 1945 31 q 1895 53 1909 31 q 1736 97 1868 97 q 1187 30 1577 97 q 821 -20 977 -7 q 773 -22 795 -22 q 698 -16 737 -22 q 619 19 659 -10 q 543 111 579 48 q 380 -33 458 -33 m 569 383 q 613 569 611 503 q 612 581 613 573 q 610 597 612 589 q 607 608 609 604 q 585 573 593 599 q 568 420 568 517 q 569 383 568 399 z "},"":{"ha":1757,"x_min":-158,"x_max":1757,"o":"m 401 -27 q 312 -19 360 -27 q 79 155 170 3 l 73 165 q -113 -24 -74 -24 q -123 -24 -114 -24 q -145 -11 -132 -24 q -158 20 -158 3 q -158 30 -158 21 q -144 53 -157 39 q 31 255 -66 127 q -75 660 -43 437 l -75 666 q -66 694 -75 682 q -30 711 -54 711 q -3 702 -16 711 q 14 673 10 692 q 92 339 37 499 q 304 676 229 531 q 343 701 317 701 q 363 696 353 701 q 388 656 388 682 q 383 636 388 646 q 160 281 304 481 l 133 243 q 152 208 142 224 q 411 62 236 62 q 440 63 425 62 q 655 96 545 71 q 1044 161 794 126 q 1311 182 1197 182 q 1566 98 1515 182 q 1572 76 1572 87 q 1550 37 1572 51 q 1528 31 1539 31 q 1489 53 1503 31 q 1330 97 1462 97 q 1055 73 1223 97 q 667 9 812 38 q 440 -26 550 -17 q 401 -27 420 -27 m 1583 92 q 1552 155 1570 92 q 1543 218 1543 190 q 1557 279 1543 255 q 1603 310 1575 310 q 1651 233 1649 310 q 1712 260 1686 260 q 1750 241 1739 260 q 1757 217 1757 231 q 1750 186 1757 207 q 1705 138 1743 166 q 1636 103 1671 115 q 1583 92 1602 92 z "},"":{"ha":1887,"x_min":-11,"x_max":1887,"o":"m 123 -834 q 28 -765 65 -832 q -9 -595 -9 -697 q 7 -454 -9 -530 q 103 -229 35 -326 q 274 -58 170 -133 q 344 -9 308 -33 q 372 355 363 172 q 223 66 300 181 q 98 -20 161 -20 q -1 98 24 -20 q -11 201 -11 144 q 40 538 -11 345 q 93 697 63 624 q 134 725 105 725 q 151 722 142 725 q 179 680 179 709 q 176 664 179 672 q 127 516 149 596 q 79 199 79 338 q 86 116 79 151 q 112 68 96 68 q 245 288 149 68 q 370 586 341 504 q 404 673 387 635 q 444 695 416 695 q 486 669 471 695 q 491 647 491 659 q 490 637 491 642 q 476 515 478 577 l 469 387 q 438 16 458 205 q 492 18 463 18 q 545 16 516 18 q 911 -35 701 3 q 1185 -77 1049 -58 q 1459 -102 1352 -102 q 1619 -58 1592 -102 q 1658 -36 1632 -36 q 1680 -41 1669 -36 q 1702 -80 1702 -56 q 1696 -102 1702 -92 q 1440 -186 1645 -186 q 1173 -165 1326 -186 q 897 -122 1035 -146 q 483 -68 582 -68 q 427 -74 448 -68 q 290 -667 382 -436 q 123 -834 222 -834 m 126 -745 q 150 -731 136 -745 q 208 -632 178 -703 q 327 -129 279 -454 q 177 -279 235 -197 q 94 -473 119 -362 q 80 -593 80 -538 q 103 -720 80 -671 q 126 -745 113 -745 m 1733 -314 q 1686 -282 1705 -314 q 1672 -222 1672 -259 q 1697 -115 1673 -168 q 1714 -96 1706 -96 q 1767 -108 1733 -96 q 1834 -143 1801 -120 q 1887 -222 1887 -181 q 1881 -245 1887 -235 q 1841 -264 1868 -264 q 1782 -237 1815 -264 q 1763 -300 1780 -282 q 1733 -314 1749 -314 z "},"":{"ha":1929,"x_min":-92,"x_max":1929,"o":"m 68 -834 q -55 -770 -9 -834 q -92 -640 -92 -718 q -39 -427 -92 -530 q 112 -223 22 -307 q 370 -29 202 -138 q 318 140 357 64 q 186 277 271 233 q 160 317 160 292 q 174 350 160 335 q 267 467 233 408 q 302 575 302 531 q 286 615 302 605 q 271 620 279 620 q 155 503 221 620 q 83 310 108 410 q 62 282 78 292 q 41 277 52 277 q 1 298 14 277 q -5 321 -5 309 q -3 332 -5 326 q 75 540 24 441 q 279 710 170 710 q 338 691 312 710 q 389 572 385 657 q 346 427 389 509 q 275 327 319 378 q 399 178 354 267 q 460 -3 444 93 q 534 2 492 2 q 587 0 559 2 q 953 -50 743 -14 q 1227 -94 1091 -74 q 1501 -118 1394 -118 q 1661 -74 1634 -118 q 1700 -52 1674 -52 q 1722 -58 1711 -52 q 1744 -96 1744 -72 q 1738 -119 1744 -108 q 1482 -203 1687 -203 q 1215 -181 1368 -203 q 939 -138 1077 -162 q 527 -85 631 -85 q 470 -90 491 -85 l 471 -131 q 445 -347 471 -235 q 357 -595 416 -483 q 171 -806 270 -755 q 68 -834 116 -834 m 73 -747 q 278 -555 174 -747 q 357 -328 331 -453 q 378 -132 378 -231 q 172 -289 267 -203 q 38 -472 87 -368 q -3 -635 -3 -569 q 60 -745 -1 -732 q 73 -747 66 -747 m 1775 -330 q 1728 -298 1747 -330 q 1714 -238 1714 -275 l 1714 -231 q 1724 -175 1717 -202 q 1740 -131 1731 -149 q 1751 -113 1748 -113 q 1756 -113 1754 -113 q 1809 -124 1775 -113 q 1876 -159 1843 -136 q 1929 -239 1929 -197 q 1923 -262 1929 -252 q 1884 -280 1910 -280 q 1824 -254 1858 -280 q 1805 -317 1822 -298 q 1775 -330 1792 -330 z "},"":{"ha":2450,"x_min":0,"x_max":2521,"o":"m 2064 -20 q 1866 102 1931 -20 q 1824 285 1830 170 q 1708 98 1762 167 q 1537 -20 1614 -20 q 1491 -7 1512 -20 q 1397 -17 1453 -17 q 1342 -15 1371 -17 q 977 36 1185 -1 q 702 79 838 59 q 429 103 534 103 q 268 59 295 103 q 229 37 254 37 q 207 43 218 37 q 185 82 185 56 q 191 104 185 93 q 446 188 241 188 q 714 167 561 188 q 991 123 852 147 q 1404 70 1304 70 q 1432 71 1419 70 q 1410 207 1410 127 q 1479 496 1410 359 q 1736 701 1568 672 q 1785 705 1760 705 q 1884 692 1832 705 q 1911 673 1902 688 q 1918 650 1918 662 q 1896 611 1918 624 q 1874 605 1886 605 q 1862 606 1868 605 q 1791 615 1825 615 q 1754 612 1772 615 q 1626 547 1678 599 q 1516 340 1548 471 q 1499 206 1499 269 q 1503 151 1499 177 q 1550 66 1514 66 q 1649 152 1589 66 q 1845 546 1730 267 q 1886 574 1856 574 q 1902 571 1894 574 q 1930 530 1930 559 l 1929 522 q 1912 329 1912 410 q 2024 75 1912 103 q 2063 70 2043 70 q 2143 85 2100 70 q 2323 194 2235 118 q 2440 325 2390 253 q 2478 344 2454 344 q 2502 336 2491 344 q 2521 299 2521 322 q 2513 274 2521 286 q 2369 117 2453 187 q 2171 0 2273 37 q 2064 -20 2116 -20 m 176 98 l 172 98 q 120 110 154 98 q 52 144 86 121 q 0 223 0 182 q 7 247 0 237 q 46 265 18 265 q 106 239 72 265 q 125 302 107 283 q 154 315 138 315 q 201 283 182 315 q 214 223 214 260 q 189 116 214 169 q 176 98 181 98 z "},"":{"ha":2266,"x_min":0,"x_max":2334,"o":"m 1702 -31 q 1670 -24 1685 -31 q 1619 33 1633 -8 q 1613 71 1613 51 q 1656 184 1613 124 q 1784 269 1715 266 l 1796 269 q 1820 267 1808 269 l 1829 304 q 1841 401 1834 332 q 1845 496 1845 449 q 1807 640 1845 640 q 1757 600 1788 640 q 1685 479 1723 555 q 1550 75 1586 281 q 1541 15 1544 31 q 1525 -11 1538 -1 q 1497 -21 1512 -21 q 1463 -5 1476 -21 q 1453 26 1453 8 q 1456 138 1454 38 q 1396 135 1429 135 q 1343 137 1371 135 q 977 187 1186 150 q 703 231 838 211 q 433 255 536 255 q 268 211 296 255 q 230 189 255 189 q 207 195 218 189 q 185 233 185 209 q 191 256 185 245 q 446 340 243 340 q 991 275 613 340 q 1404 221 1300 221 q 1459 227 1438 221 q 1584 1283 1475 726 q 1603 1312 1588 1301 q 1628 1319 1614 1319 q 1665 1299 1651 1319 q 1672 1274 1672 1288 l 1672 1265 q 1559 418 1585 820 q 1803 718 1681 718 q 1840 709 1822 718 q 1931 557 1911 677 q 1936 473 1936 515 q 1931 388 1936 441 q 1906 241 1925 310 l 1923 233 q 2040 201 1990 201 q 2062 202 2051 201 q 2257 330 2148 210 q 2291 345 2271 345 q 2321 332 2307 345 q 2334 299 2334 319 q 2323 271 2334 283 q 2236 188 2277 220 q 2072 113 2146 120 q 2038 111 2055 111 q 1887 152 1971 111 l 1879 155 q 1702 -31 1806 -31 m 1706 60 q 1721 66 1711 60 q 1792 180 1757 89 q 1729 132 1763 179 q 1700 68 1700 93 q 1706 60 1700 60 m 176 250 l 172 250 q 120 261 155 250 q 52 296 86 273 q 0 376 0 334 q 7 399 0 389 q 45 417 18 417 q 106 391 71 417 q 125 454 107 435 q 154 467 138 467 q 201 435 182 467 q 214 378 214 413 q 189 268 213 319 q 176 250 181 250 z "},"":{"ha":2065,"x_min":0,"x_max":2135,"o":"m 1623 -19 q 1513 2 1559 -19 q 1398 -17 1472 -17 q 1343 -15 1373 -17 q 977 36 1186 -1 q 703 79 838 59 q 429 103 535 103 q 268 59 295 103 q 229 37 255 37 q 207 43 218 37 q 185 81 185 56 q 191 104 185 93 q 447 188 243 188 q 715 167 562 188 q 991 123 852 147 q 1404 70 1303 70 q 1429 71 1417 70 q 1384 237 1384 135 q 1395 338 1384 286 q 1450 494 1412 420 q 1609 677 1513 619 q 1702 703 1654 703 q 1796 652 1769 700 q 1813 591 1813 623 q 1811 574 1813 583 q 1761 505 1803 505 q 1744 509 1752 505 q 1719 532 1727 515 q 1715 550 1715 541 q 1718 566 1715 557 q 1723 592 1723 578 q 1701 613 1723 613 q 1655 602 1678 613 q 1529 454 1584 561 q 1482 320 1497 390 q 1473 239 1473 278 q 1476 194 1473 216 q 1627 72 1499 72 q 1670 74 1638 72 q 1752 96 1702 77 q 1952 216 1858 136 q 2053 325 2012 266 q 2091 344 2068 344 q 2116 336 2104 344 q 2135 298 2135 322 q 2127 274 2135 286 q 2009 146 2079 205 q 1783 12 1902 58 q 1623 -19 1701 -19 m 177 98 l 173 98 q 120 110 155 98 q 53 144 86 121 q 0 224 0 182 q 7 247 0 237 q 46 265 19 265 q 106 239 72 265 q 125 302 107 283 q 154 315 138 315 q 201 283 182 315 q 214 227 214 261 q 190 116 213 165 q 177 98 181 98 z "},"":{"ha":2304,"x_min":0,"x_max":2374,"o":"m 1908 -21 q 1813 3 1853 -21 q 1680 311 1697 73 l 1678 326 q 1543 104 1605 187 q 1373 -20 1451 -20 q 1317 -3 1341 -20 q 1211 -17 1277 -17 q 1157 -15 1186 -17 q 791 36 1000 -1 q 517 79 652 59 q 243 103 349 103 q 83 59 110 103 q 44 37 69 37 q 22 43 33 37 q 0 82 0 56 q 6 104 0 93 q 261 188 56 188 q 529 167 376 188 q 806 123 667 147 q 1219 70 1119 70 q 1263 73 1245 70 q 1242 207 1242 128 q 1262 361 1242 279 q 1322 519 1282 444 q 1425 644 1363 594 q 1585 702 1496 702 q 1683 677 1663 702 q 1692 650 1691 665 q 1767 1059 1712 834 q 1830 1263 1794 1171 q 1871 1291 1843 1291 q 1888 1287 1879 1291 q 1917 1246 1917 1275 q 1913 1230 1917 1238 q 1856 1045 1881 1148 q 1787 682 1809 849 q 1765 403 1765 521 q 1925 72 1765 72 q 1994 85 1956 72 q 2195 212 2099 122 q 2292 325 2250 264 q 2330 344 2306 344 q 2355 336 2342 344 q 2374 299 2374 321 q 2365 274 2374 286 q 2262 153 2321 209 q 2024 0 2148 45 q 1908 -21 1959 -21 m 1383 67 l 1391 68 q 1583 325 1455 79 q 1668 511 1640 433 q 1687 611 1683 553 l 1691 639 q 1670 611 1685 621 q 1647 604 1659 604 q 1636 606 1642 604 q 1590 612 1612 612 q 1480 571 1531 612 q 1397 466 1430 529 q 1349 340 1364 403 q 1331 207 1331 269 q 1335 151 1331 178 q 1383 67 1347 67 z "},"":{"ha":2004,"x_min":0,"x_max":2078,"o":"m 1614 -20 q 1514 3 1557 -20 q 1398 -17 1474 -17 q 1343 -15 1372 -17 q 977 36 1186 -1 q 703 79 838 59 q 429 103 534 103 q 268 59 295 103 q 229 37 255 37 q 207 43 218 37 q 185 82 185 57 q 191 104 185 93 q 446 188 243 188 q 714 167 562 188 q 991 123 852 147 q 1405 69 1305 69 q 1440 71 1425 69 q 1394 255 1394 144 q 1402 343 1394 298 q 1473 553 1426 461 q 1600 705 1539 677 q 1653 718 1628 718 q 1697 707 1676 718 q 1746 606 1746 680 q 1670 444 1746 526 q 1491 330 1603 370 q 1482 241 1482 287 q 1535 96 1482 140 q 1616 70 1567 70 q 1691 83 1649 70 q 1774 119 1733 96 q 1933 248 1860 169 q 1997 325 1969 284 q 2035 344 2011 344 q 2059 336 2047 344 q 2078 299 2078 322 q 2001 188 2078 271 q 1818 42 1917 99 q 1614 -20 1711 -20 m 1522 441 q 1605 505 1569 464 q 1658 615 1658 562 q 1649 628 1658 628 q 1640 625 1646 628 q 1553 514 1603 609 q 1522 441 1535 479 m 176 98 l 172 98 q 120 110 154 98 q 52 144 86 121 q 0 224 0 182 q 7 247 0 237 q 46 265 18 265 q 106 239 72 265 q 125 302 107 283 q 154 315 138 315 q 201 283 182 315 q 214 227 214 261 q 189 116 213 168 q 176 98 181 98 z "}}}
